<mxfile host="app.diagrams.net" modified="2022-11-17T01:27:45.292Z" agent="5.0 (Windows NT 10.0; Win64; x64) AppleWebKit/537.36 (KHTML, like Gecko) Chrome/106.0.0.0 Safari/537.36" etag="FJ4yQgFDbBnwVA35vgIE" version="20.5.3" type="github">
  <diagram id="riwq2lILpXiSxAar26BJ" name="第 1 页">
    <mxGraphModel dx="1422" dy="762" grid="1" gridSize="10" guides="1" tooltips="1" connect="1" arrows="1" fold="1" page="1" pageScale="1" pageWidth="1200" pageHeight="1920" math="0" shadow="0">
      <root>
        <mxCell id="0" />
        <mxCell id="1" parent="0" />
        <mxCell id="iipvqNg0FXqF892tKuQN-1" value="" style="rounded=0;whiteSpace=wrap;html=1;" parent="1" vertex="1">
          <mxGeometry x="260" y="240" width="120" height="60" as="geometry" />
        </mxCell>
        <mxCell id="iipvqNg0FXqF892tKuQN-2" value="" style="shape=internalStorage;whiteSpace=wrap;html=1;backgroundOutline=1;" parent="1" vertex="1">
          <mxGeometry x="570" y="300" width="80" height="80" as="geometry" />
        </mxCell>
        <mxCell id="FCCBJd8lnmU84cFqvIUe-1" value="" style="shape=datastore;whiteSpace=wrap;html=1;" parent="1" vertex="1">
          <mxGeometry x="190" y="250" width="60" height="60" as="geometry" />
        </mxCell>
        <mxCell id="FCCBJd8lnmU84cFqvIUe-2" value="" style="strokeWidth=2;html=1;shape=mxgraph.flowchart.database;whiteSpace=wrap;" parent="1" vertex="1">
          <mxGeometry x="130" y="160" width="60" height="60" as="geometry" />
        </mxCell>
        <mxCell id="FCCBJd8lnmU84cFqvIUe-3" value="" style="shape=datastore;whiteSpace=wrap;html=1;" parent="1" vertex="1">
          <mxGeometry x="380" y="360" width="60" height="60" as="geometry" />
        </mxCell>
        <mxCell id="FCCBJd8lnmU84cFqvIUe-4" value="" style="shape=datastore;whiteSpace=wrap;html=1;" parent="1" vertex="1">
          <mxGeometry x="380" y="360" width="60" height="60" as="geometry" />
        </mxCell>
        <mxCell id="FCCBJd8lnmU84cFqvIUe-5" value="DB" style="shape=datastore;whiteSpace=wrap;html=1;fontStyle=2;shadow=1;sketch=0;" parent="1" vertex="1">
          <mxGeometry x="70" y="270" width="60" height="60" as="geometry" />
        </mxCell>
        <mxCell id="FCCBJd8lnmU84cFqvIUe-6" value="" style="shape=datastore;whiteSpace=wrap;html=1;" parent="1" vertex="1">
          <mxGeometry x="380" y="360" width="60" height="60" as="geometry" />
        </mxCell>
        <mxCell id="FCCBJd8lnmU84cFqvIUe-7" value="" style="shape=datastore;whiteSpace=wrap;html=1;" parent="1" vertex="1">
          <mxGeometry x="380" y="360" width="60" height="60" as="geometry" />
        </mxCell>
        <mxCell id="FCCBJd8lnmU84cFqvIUe-8" value="" style="verticalLabelPosition=bottom;verticalAlign=top;html=1;shadow=0;dashed=0;strokeWidth=1;shape=mxgraph.android.phone2;strokeColor=#c0c0c0;" parent="1" vertex="1">
          <mxGeometry x="320" y="620" width="70" height="170" as="geometry" />
        </mxCell>
        <mxCell id="FCCBJd8lnmU84cFqvIUe-9" value="" style="sketch=0;aspect=fixed;html=1;points=[];align=center;image;fontSize=12;image=img/lib/mscae/Cache_Redis_Product.svg;" parent="1" vertex="1">
          <mxGeometry x="170" y="940" width="50" height="42" as="geometry" />
        </mxCell>
        <mxCell id="FCCBJd8lnmU84cFqvIUe-10" value="" style="sketch=0;pointerEvents=1;shadow=0;dashed=0;html=1;strokeColor=none;labelPosition=center;verticalLabelPosition=bottom;verticalAlign=top;align=center;fillColor=#505050;shape=mxgraph.mscae.intune.account_portal" parent="1" vertex="1">
          <mxGeometry x="199" y="830" width="43" height="50" as="geometry" />
        </mxCell>
        <mxCell id="FCCBJd8lnmU84cFqvIUe-11" value="" style="sketch=0;aspect=fixed;html=1;points=[];align=center;image;fontSize=12;image=img/lib/mscae/SQL_Database_generic.svg;" parent="1" vertex="1">
          <mxGeometry x="92" y="630" width="88" height="115.79" as="geometry" />
        </mxCell>
        <mxCell id="_i_qO_vCdhERP_AomHt2-1" value="Text" style="text;html=1;resizable=0;autosize=1;align=center;verticalAlign=middle;points=[];fillColor=none;strokeColor=none;rounded=0;" vertex="1" parent="1">
          <mxGeometry x="390" y="520" width="50" height="30" as="geometry" />
        </mxCell>
        <mxCell id="_i_qO_vCdhERP_AomHt2-2" value="Text" style="text;html=1;resizable=0;autosize=1;align=center;verticalAlign=middle;points=[];fillColor=none;strokeColor=none;rounded=0;" vertex="1" parent="1">
          <mxGeometry x="111" y="120" width="50" height="30" as="geometry" />
        </mxCell>
        <mxCell id="_i_qO_vCdhERP_AomHt2-3" value="Text" style="text;html=1;resizable=0;autosize=1;align=center;verticalAlign=middle;points=[];fillColor=none;strokeColor=none;rounded=0;" vertex="1" parent="1">
          <mxGeometry x="270" y="190" width="50" height="30" as="geometry" />
        </mxCell>
        <mxCell id="_i_qO_vCdhERP_AomHt2-4" value="Text" style="text;html=1;resizable=0;autosize=1;align=center;verticalAlign=middle;points=[];fillColor=none;strokeColor=none;rounded=0;" vertex="1" parent="1">
          <mxGeometry x="195.5" y="325" width="50" height="30" as="geometry" />
        </mxCell>
        <mxCell id="_i_qO_vCdhERP_AomHt2-5" value="" style="shape=image;imageAspect=0;aspect=fixed;verticalLabelPosition=bottom;verticalAlign=top;image=data:image/jpeg,/9j/2wBDAA0JCgsKCA0LCgsODg0PEyAVExISEyccHhcgLikxMC4pLSwzOko+MzZGNywtQFdBRkxOUlNSMj5aYVpQYEpRUk//2wBDAQ4ODhMREyYVFSZPNS01T09PT09PT09PT09PT09PT09PT09PT09PT09PT09PT09PT09PT09PT09PT09PT09PT0//wAARCASwB4ADASIAAhEBAxEB/8QAGwABAQADAQEBAAAAAAAAAAAAAAECAwQFBgf/xABLEAEAAgECAwUFBQYFAwQAAQ0AAQIDBBESITEFE0FRYRQiMnGBI0JSkaEzYrHB0fAVJENy4TRT8QZjgpKiFiU1RHODk7LC0kWj4v/EABsBAQEBAQEBAQEAAAAAAAAAAAABAgMEBQYH/8QAOxEBAAECBAMFCAEEAQMEAwAAAAECEQMhMfASQVEEYXGBsRMiMpGhwdHhQgUUUvEVIzNicoKSskPC4v/aAAwDAQACEQMRAD8A/OAHpAAAAAAAAAAAAAAAAAAAAAAAAAAAAAAAAAAAAAAAAAAAAAAAAAAAAAAAAAAAAAAAAAAAAAAAAAAAAAAAAAAAAAAAAAAAAAAAAAAAAAAAAAAAAAAAAAAAAAAAAAAAAAAAAAAAAAAAAAAAAAAAAAAAAAAAAAAAAAAAAAAAAAAAAAAAAAAAAAAAAAAAAAAAAAAAAAAAAAAAAAAAAAAAAAAAAAAAAAAAAAAAAAAAAAAAAAAAAAAAAAAAAAAAAAAAAAAAAAAAAAAAAAAAAAAAAAAAAAAAAAAAAAAAAAAAAAAAAAAAAAAAAAAAAAAAAAAAAAAAAAAAAAAAAAAAAAAAAAAAAAAAAAAAAAAAAAAAAAAAAAAAAAAAAAAAAAAAAAAAAAAAAAAAAAAAAAAAAAAAAAAAAAAAAAAAAAAAAAAAAAAAAAAAAAAAAAAAAAAAAAAAAAAAAAAAAAAAAAAAAAAAAAAAAAAAAAAAAAAAAAAAAAAAAAAAAAAAAAAAAAAAAAAAAAAAAAAAAAAAAAAAAAAAAAAAAAAAAAAAAAAAAAAAAAAAAAAAAAAAAAAAAAAAAAAAAAAAAAAAAAAAAAAAAAAAAAAAAAAAAAAAAAAAAAAAAAAAAAAAAAAAAAAAAAAAAAAAAAAAAAAAAAAAAAAAAAAAAAAAAAAAAAAAAAAAAAAAAAAAAAAAAAAAAAAAAAAAAAAAAAAAAAAAAAAAAAAAAAAAAAAAAAAAAAAAAAAAAAAAAAAAAAAAAAAAAAAAAAAAAAAAAAAAAAAAAAAAAAAAAAAAAAAAAAAAAAAAAAAAAAAAAAAAAAAAAAAAAAAAAAAAAAAAAAAAAAAAAAAAAAAAAAUBBQEFAQUBBQEFAQUBBQEFAQUBBQEFAQUBBQEFAQUBBQEFAQUBBQEFAQUBBQEFBEFAQUBBQEFAQUFQUBBQEFAQUARQEFAQUBBQEFAQUBBQEFAQUBBQEFAQUBBQEFAQUBBQEFAQUBBQEFAQUBBQEFAQUBAAAAAAAAAAAAAAAAAAAAAAAAAAAAAAAAAAAAAAAAAAAAAAAAAAAAAAAAAAAAAAAAAAAAAAAAAAAAAAAAAAAAAAAAAAAAAAAAAAAAAAAAAUEUAABAAAAAAAAAAAAAAAAAAAAAAAAAAABQFAQUBBQEFAQUQQUUQUBBQEFAQUBBQEFAQUBBQEFAQUBBQEAAAAAAAAFAQUBBQEFAQUBBQBFAQUBBUAFAQUBBQEFAQUBBQEFAQUBBQEFAQUQQUBBQEFQABQAQAAAAAAAAAAQAUAAAAAAAAAAAAAAAAAAAAAAAAAAAAAAAAAAAAAAAAAAAAAAAAAAAAAAAAAAAAAAAAAAAAAAAAAAAAAAAAAAAAAAAAAAAAAAVFAAAAAAAAEAAAAAAAAAAAAAAAAAUEFAEUARQEFFAAAAAAAAAAAAAAAAAAAAAAAAAAAAAAAAAAAAAAAAAAQAAAAAAFBUFAQUBBQEFAQUBBUAAABQQUBBQEFAQUBBQEFAQUBBQEAAAAAAAAAAAAAAAAAAAARQEAAABAEUAAAAAAAAAAAAAAAAAAAAAAAAAAAAAAAAAAAAAAAAAAAAAAAAAAAAAAAAAAAAAAAAAAAAAAAAAAAAAAAAAAAAAAAAAAAABQABAAAAAAAAAFBBQEFAQUBBQEAAUAEUAAUAAAUEFAQUBBQRBQEFAQUAAAAAAAAAAAAAAAAAAAAAAAAAAAAAAAAAAAAAAAAAAAAAAAAAAAAAAAAAAAAAAAAAFAQFBBUAAAFQAAAAAAAAUABBQEFAQUBAAAAAAAAAAYgIoAAAAAAAAAAAAAAAAAAAAAAAAAAAAAAAAAAAAAAAAAAAAAAAAAAAAAAAAAAAAAAAAAAAAAAAAAAAAAAAAAAAAAAAAAACgACAAAAAAAACoAAoIKAgoCCgAAAAAKCCiiKAAAgAAAAAAAAAAKAgoCCgIKgAAAKCCgIKAgoCCgIKAgoCCgIKAgoCCgIKAgoCCgiCgIKAigKAAAAAAAAAAACAAqCgAAAAAAAAAAAAAAAAAAAAAAAAIKAgoCCoAAAAAAKAAgoCCgIKAwARQAAAAAAAAAAAAAAAAAAAAAAAAAAAAAAAAAAAAAAAAAAAAAAAAAAAAAAAAAAAAAAAAAAAAAAAAAAAAAAAAAAAAAAAAFAAEAAAAAABUBUABQAAAAABQQUBFAAAABQAEAUEFARQAAAAAAAAAAAAAAAAAAAFAQUBBQRBQEFAQUBBQEFAQUBBQEFAQUBBQEAAAAFAAAEUAAAAAAAAAAAAAAAAAAAAAAAAAAAAAAAAAAARQVBQEFAQAAAAAAAEFAQVAAAABQAGACKAAAAAAAAAAAAAAAAAAAAAAAAAAAAAAAAAAAAAAAAAAAAAAAAAAAAAAAAAAAAAAAAAAAAAAAAAAAAAAAAAAAAAAAAKigACAAAAAAAACgAAACgAAAAAKgAACgigAAAAAAAAACggoCCgIKAgoAAAAAAIAAAAAAAAAAAAAAAAAAAAAAAAAAAAAKgAAKIqCgIKAgoCCgIKCIKCgACKAgoCCgIKAgoCCgIKAgoCCgIKAAAIoCCgIKAgAAACKCoKAgAAAAACKAgoCAoNYCNAAAAAAAAAAAAAAAAAAAAAAAAAAAAAAAAAAAAAAAAAAAAAAAAAAAAAAAAAAAAAAAAAAAAAAAAAAAAAAAAAAAAAAAACooAAgAAAAAAqKAAAAAoAAAAKgAAKAigAAAAAAAAAoAACAAAAAAAAAAAAAAAAAAAoCCgIKAgoCCgIKAgoCCgIKAACACgAAAAAAAAAAAAAAAAKAgoCKACKiAKgAqAAoIKAgoCCgqCgIKAgoCCgIKAgAAAAACKAgoCAAAAgoKgqAAAAAAA1gI0AAAAAAAAAAAAAAAAAAAAAAAAAAAAAAAAAAAAAAAAAAAAAAAAAAAAAAAAAAAAAAAAAAAAAAAAAAAAAAAAAAAAAAAAKigACAAAqAAoAAAACooAAACoAICgoAAAAAAAACgAAgAAAAAAAAKAgKCCgIKAigAAAAAAAAAAAAAAAAIAKAAAAAoCCgIKAgoIigKAAAAACAAAKKgoCCgIKAgqAAAAAAAAIAoCCgIKAgoCCgIAAAAAAigqCgIAAAAACCoAAAAAigqCoAADWAjQAAAAAAAAAAAAAAAAAAAAAAAAAAAAAAAAAAAAAAAAAAAAAAAAAAAAAAAAAAAAAAAAAAAAAAAAAAAAAAAAAAAAAAAAqKAAIAAAAKAAAAKAAAAIAoACgAgAKAAAKCKAAAgCgigAAAAAAAAAAAAAAAAAAICgIoAAAAAAKAAAAAAAAAAgCggoCCgICgAAAAAAAAAAAAAAAAAACoAAAAAAAAKAAAAAAAAAAAIAACKAgoCAAAAIoKgAAAAAIKgAAAAqCoDWAjQAAAAAAAAAAAAAAAAAAAAAAAAAAAAAAAAAAAAAAAAAAAAAAAAAAAAAAAAAAAAAAAAAAAAAAAAAAAAAAAAAAAAAAAAqKAAIKigiooAAAACgAAIAoAAAAACgCgigAAIAAKAAAAAAAAKCCgIKAigAAIIoCKAAAACgCggoCCgIKAgoAAIIoAAAAAAAAAAAAAKAgoCCgIKAgoCCgIKAigAAAigIKAigAAAAAAAAAAAAAAAAAAgIoKgqAAAgoCCoAAAigqAAAAIoCAAAA1AI2AAAAAAAAAAAAAAAAAAAAAAAAAAAAAAAAAAAAAAAAAAAAAAAAAAAAAAAAAAAAAAAAAAAAAAAAAAAAAAAAAAAAAAAAoAAAgAAoAAAKAAAAAigAAAAqiKAAAAAgCgAAAAAACgAAAAgAAAACggACooCKAIooACAAAAAAAAAAAAAoCCgIKAigIAAAAAAAAAAAAAAAAAAAoIKAgoKIoCCgIKAgoCCgAAAAAAAACKAgoCCgIKgAAACKgqAAAgoCAAIoKgqAAAAAgoDSAjYAAAAAAAAAAAAAAAAAAAAAAAAAAAAAAAAAAAAAAAAAAAAAAAAAAAAAAAAAAAAAAAAAAAAAAAAAAAAAAAAAAAAAACgACAAAAKAACgAAACCgAAAoKAAAAAKIigAAAAACgigAAIAAAoIKAgoAAAAAAoAAAoiCgIKAgoCCgIoAAAAAAAACAAAAAAAAAAAAAACgAAAigIKAgoAAACggqAAAAoIzx475LbUrMyuHF3luc7Vjna3lDLLm3ju8UcOOPDxn5txTFr1MTVN7QvcUryvnpE+kTJOn3iZxXrk28I5T+TSRM1mJrMxMeMHFT0OGrqit9ts+ObxG2WvxRH3o82hKqbNU1XAGVAAAAAARQBBQVBUARQEFQABARQVBUARQEAAAARUFAAAAaQEbAAAAAAAAAAAAAAAAAAAAAAAAAAAAAAAAAAAAAAAAAAAAAAAAAAAAAAAAAAAAAAAAAAAAAAAAAAAAAAAAAAAAAAFRQABAABUUAAFAAAEAUAABQUAAAABQQAAAAAAFAABAAAFAAAAAAAAAAVAAAUBFAAAAAAAAAAAAAAAAAQFAQUBBUAAABQRQAAUAAAEAAAAAUBBQEFAAAAAAAAACImZiI5zI6dHWsWtmyfDj/i1RTxTZmurhi7O2HbHGPiilK873nxny9Wri01OVcdsnra2zHNlvmvvPTwrHg1zEx1jZ0qri/uw500Tb3pbonTZOU1tinzid4a8uK2K21tufSY6Sxb8FovXuMk8p+GfwyzExXlOrUxNGcaNOO847xevWGeekVvFqfBeOKrC1Zpaa2jaYnaW2n2mmtT72P3o+XiU5xNMlWUxVDQKObogoCCgIKAgoCCoAAAigqCoAigIAAAggqCgAIKgAAIKCoADSAjYAAAAAAAAAAAAAAAAAAAAAAAAAAAAAAAAAAAAAAAAAAAAAAAAAAAAAAAAAAAAAAAAAAAAAAAAAAAAAAAAAAAAAAqKAAIKigiooAKAAAAqCoqAACgKAACoogAAAAAACgAAACAAKAAAAAAAIAKAogAAAKAAAAAAAAAAAAgCggoAIoIoAAAAAAAAKAKIgoCKAAAoAAAIAAAAAIoKCAAAAAAFYm1orEbzPKHfmx48OHHTJPKOfDHW0sOz8cTknLbpXp82F8WbUZLZZrtWZ5Tado2eiinhova8y89dUVV2vaIYzqskcsUVx18qwRqsvTJtkr4xaCdJl23rw32/DbdpmJidp5SxNWJGrdNOHVo3ZMVZp3uHfg+9WetWhv0s93ki9/2fS0ecM9VXFhzT3FeLFbnS1+swTTExxaEVzFXDqxzfa4a5o+KPdv8AylrwXimasz8PSfk6tDmxTe2DPjiaZa8O9eU1nwly5Mc0nzjfZauVcJTOuHKZad3ltSfCdmDfqPepiy/irtPzjk0OdcWnJ0om8Zgoy0goKgoCCgIKgCKAgqAAAIoKiKAgqAAIIKCoACCoAAAAK0AI2AAAAAAAAAAAAAAAAAAAAAAAAAAAAAAAAAAAAAAAAAAAAAAAAAAAAAAAAAAAAAAAAAAAAAAAAAAAAAAAAAAAAAAKigACCooIqKAqKAAAAIKCgAgoCgAAoCAAAAAACgAAAAIKigAAAAAACggAAAAAoAAAAAAAAAoAAgigICgigAAAAAKAgoCCigAIAAAAAAAAAAAoIKAAAAAAACgIKAjKlZvaK1jeZnaEd3ZuH3+9tHLpX5t4dHHVEOeJXwUzLfkmul03ubTakbbesvMyZL5LcV7TafV3aitIxxGe81ta03msRvPo5+HSW5VvlpPnaImP0dsa8zaMocMG1MXmLz1c8TNZ3rMxMeMO7T0rrotGS1aZKV3i0/f9Pm5suC+O0RO0xb4bR0lntGOI57RWd+XjLnRExNp0dMSYqj3Zza7RfJbaK7RHLbydWDT21GmyY4vTjxRx1ji5zHjEMdblnVVjU1rWkT7t61jaIlz4Mk4s1b+U8/kt4pqz5p71VF4ymGMxbHaN94mOcOjUTHeRf7mWsTMeU+LHNEY81sdueOedZ8oZWpM6OYnnOK28T6SRFrxCzVe0yx4d9LkpPXHaLR6xPJzuvSfaTNPGazX6OXZmuMolrDnOYlAHJ1AAAAAAAAEFFQAEFAQABFBUFQEFQABARQVAAQUBAAaAEdAAAAAAAAAAAAAAAAAAAAAAAAAAAAAAAAAAAAAAAAAAAAAAAAAAAAAAAAAAAAAAAAAAAAAAAAAAAAAAAAAAAAAABUUAAQVFBFRQFRQAAABFAUAAUAAAFAEAAAAAAUAAAQABQAAAAUAAQAAAUAAAAAAAAAUEUAABAAAAAAAFBFAAAAAQAUAAAAAUEFAQUAAAAAAAFAQUBFAAAAAQABljpbJkrSvW07PUzWrh0848XK1dqRPrLT2dh2+3tHXlX+ct2+OM2OkxF5tM5OLflD2YVHDRfq8WNXxV25Q4dbMTqJrE7xSIrH0aHTOr4rTx4cVomfw8/wA0vhplpOTT78vipPWPl5w89UcUzNMvRRVwxEVQ39l5MdL2rqo4sE8p/dnzhq1WC2PLPeTNcfWk7fFXwmCYjHiiLdI6x5y20rm7QwTWIm+TBXev+3xh1t7vDzcdK5xOTDRZ8Nb3w2xRamWOHe09J8JaLVpxzS0cFonb0Y91kjnw9PKW3Vxxxjzx9+Pe+cdWLzNOcaOkREV3idfVc9Ztpsd5j3qTwT8vBt7Nr7ROTTfevSeD5xzZdnVjV4s+kt+0tTixesxz2cmlzTptVizV647ROy8URVFXKWZiaqaqOcafZdLkjDqsd7dItHFHoy1+GdPrs2Kfu2nb5eDZ2thrh7RyxT4Lzx1+U82faf2uPSaqP9XDFbT52ryn+TMxamaei01xNVNcaVR+/wAuABxekABBQEFAQAAAAAEFQURQEAAAFQAEFQABARQVAAEUBzgI6AAAAAAAAAAAAAAAAAAAAAAAAAAAAAAAAAAAAAAAAAAAAAAAAAAAAAAAAAAAAAAAAAAAAAAAAAAAAAAAAAAAAAACooAAgqACgAqKAAAAIoACoqgAACiAAAAAACooAAAAgqKAAAACgCAAAAACgAAAAAACgACAAAAAKCCgIoAAAAKgAAAAAACgigAAAAAKAgoIigAAKAAACAAAKCKADPDjnLlrjr4ywen2fhjFinUX5bxy38IdMKjjqs5YuJwU3Z6i22C2HFHLeMcbfr+jXfHkjJnvFLbRj4Kcvo2d9tnx1x+7Sazkv5y5O9vXRzk47Ra+Trv4RD1V1Rvfe8mHTPLe7OSeXKW/RXtj1VMtOtJ4mdcldT7mbaMn3cnn6SsY50+O3e1mLeMPNTRneNHprrvTNMxm6O0aY78Otx1iMOWZiuOJ6W8fo4seovTLW8TtET0jps6dHwXyTj1d5piyxtyjnE+DmvGPHeaTjneJ2neW65n4oyYwoiI4Jzt6Gpp3WeZpO1be9WY8pdelrXW6LPgnaM+OO9p+9t1j8k7mup7NtkxW3vp550nrwz4/m5tHlnDqsd4nbaeafDV3ST79E2+Kn7fljpsttPqceWs7TS0S29o44rq72pG1bTvEeTHV4+HJaYjpO0tub7XBit42p+sEU5TTLU1RxU1xzyXVz32i0+XxrXhn6SRPe9j8Pjhy7x8pjn/BME8eims/dvz+U/8AKaP9nqMU+MR/FrWYnrDHw0zHSXGLMbTMT4I8z1gAAAoAAACCiCAAAAgqCgAIKgAAqCoCCgIAgIoKgAOcBHQAAAAAAAAAAAAAAAAAAAAAAAAAAAAAAAAAAAAAAAAAAAAAAAAAAAAAAAAAAAAAAAAAAAAAAAAAAAAAAAAAAAAAAVFAAEAAUABUUABUFRUABQVFAAAVFEAAAAAAFAAAQAAUAAAAUAAQAAAAAAAUAUEUAABAAAAAUAAAAAAABREAUAUEFARQAAAFAABAAAAAAAAAVABQBFAAAAAAUGzT4pzZq0jpPX5PUyxfLjvixxEV3inyjx/o16LFGm0ts945zG/0L5JnU1mY2jFjm818N5ezDpiijPm8GLXNdeWkJeuObajJGasbxwdOVXNq8dsWnwU61iJnijpMyl966CkeOS82/Lk25884dTOKY4sUVitqz0nkzVMTE3y/ebdNNUTFs/1k4qV4rxWPF6+pyU1Oira23f6eu1Y/HXz+jlrpe7+2r72G/wAFv4wwx5vZtTXPaIvaJ5Unpt6pRHBGfMxJ9pMTTy3ZzcOTJPFtMz5unV4r3wY9VNJjf3Lzt96P+GOtme+4qztjv71YjpEeTZoM9+HLpZtvTLHwz03joxEReaJ5ulVVXDFccvTm1aHJ3eoiN9ovE0n6sM1NpmdtprO1o9UvSIjjpvERPOPKW/UWjvaZtvdzV975+JHw8MrM+/xRzXNMX7q89MtNp/3Qxpv7JaPvYbxP0nkvDM6PJTxxXi0T6Sy0/wBpa0f93HMfWG9Z3vVzyinw36McMe9nxx0tTir9Oa4Oeq2jplpMfomkt9phtPhPBP1Mf2eXHv8A6eThn5bkaRO96k6zG95Q580fab+Fo3a3Rqa8Npj8Npr+rQ4Vxap6MOb0wgoy2goCAAAAACiKAgCAAAigqAAgqAACoKgCKAgCAioK5wEdAAAAAAAAAAAAAAAAAAAAAAAAAAAAAAAAAAAAAAAAAAAAAAAAAAAAAAAAAAAAAAAAAAAAAAAAAAAAAAAAAAAAAABUUAAQFQFAAUAAFQVFAAAVFAABQBAAAAAFAAAAEAUAAAABQAAEAAAAAFAFAAEAAAAAAFAAAAAAFBFAQAUAAAAAABQAAQAAAAAUAVBBQAAAAAAAFEQUAAFG/R4e/wBRWs/DHO3yaHrYMfseim8x9paN9vXwh1wqOKq86Q4Y+JwU2jWWzJWMs8F7cMWvtFfOIc982GcOXN3UzF78E+91XLeZzZrzznDj4d4/FLnvX7HTYY63nin6zyeiuvW2+X5ebDojK++f4dF8FcuTDXHaI4IiZpPXaebg1FuPU5JjxtOzsrbi7Uvfwx7/AKRsyxYPbaW1WOscWLnlrH8WKo48o6+jdNfs86tLerfostaaS+jy86Xj3J/Dfwl5uXBbFktXUzNbxPOvi3Z8nd1jbrPT0NRXLq8Eavhve8e7lnbf5SYlpi0ckwommri0ifVli9mz6G+Ke8jLi9+k8unjDk4bYrVyVneIneJhcGScOet5jpPOPRsyx7PqLU6455xHo53iqLy7RE01TEaTn+V1G2PUccR9nlji2+a2pvorV691biif3ZXJTi0Ubc+6tyn92f8Aln2d9tNsE9bUmIbteq082Jm1HF036MdH9pvSetqzSf5NejtNcsRPWLRP9U0d+51dOPpxbWhnq8c6XtLJWfC/6SkVZRV0WY96aesXSYnHqsuOPCd4+nOGWojbU5ojpaItH8WfaMd3rqZI6XrW35wurjhzae/hakR/f5tTFrx0lmKr8M9Y36Ner55Msx0nhvH5ON3Z6+9i/exTX8nC5YsZu2BPu2AHJ2AAAAEUBBUAAARQVBUAAQEUFQAEFQAAVBUARQEAQcwCOoAAAAAAAAAAAAAAAAAAAAAAAAAAAAAAAAAAAAAAAAAAAAAAAAAAAAAAAAAAAAAAAAAAAAAAAAAAAAAAAAAAAAAAqKAAIAAoAKAAAqCooAAKAAACgCAAAACooAAgAAoAAAAoAAgAAAAAoAoAAAAAAgCgAAAAAAKAgAAAoAACgAAAAgAAAAAAoKAAgAAAKAoiCgIoAAAAoIKREzMREbzPKAdXZ+DvtRE2j3ac5ehe1O8iuWJm285No6REdGNcfsulrjpP2l5iN/WWGXFkt7RedqzfalJtO3Lxe2ingptzfNrr9pXe+XJpvqs3stLRbhvkvO20eH/lu7ymTXxjyUibY+cXjl0jfmwtp7xqdLjms8FIjefDfrLRhvxX1Wb92dvrLPFVE57tDpw0zF6d3nJlXHfD7Va/Xg238J3lu7MzW0d65Yjff4q+ceTLs7FOs03s+TJwxa/DSZ89t9mGWtsV5x2jhvWdpjyKYiLVQzXVFUzh1bg7WxYtPqK2x7XpevHTyiJ8GjSanJGScd8lox5Y4bRE7R6OjDjx6jHlwZ8sVvG98UbbzPo4eDHadqXmJ8rQxXxRVxQ6YUUzRwVaxzW8zXJbFnjfhnbfxht1GObaTHeec454JnzjwTV1m+PHnmNrfBf5w39kzXPbJocsxEZ6zFJnwtHROc0zzaqqtRGJHLX7p2VtnyX0l5/a1mKzPhPg5MGS+l1dMm21sd95j5SlZyabURaImuTFbfn4TEuztqlZ1canFG2PU1jJHpM9f1YvM035w1aIxLTpVH1/cejHtjBGDtG84/2eTbJSfSebZ2tHe4dHrI/1cXDb/dXlK6qfaextLn63wTOG3y61TF9v2Bmx/e0+WMkfKeU/q1MZzHXNypmYpomdaZtPp+JTWx3vZOj1HWa8WK0+sc4/RNV9p2Tpc0fctak/x/my0n23Ymsw+OK1ctY/Sf0NN9r2Hq6eOG9MkfXlK3v5x6J8P/tq9f8AbDPz02ny+EWmPzcWSOHJaPV2/tOxJn/tZY3+sf8ADkz87xb8URKYucX8HbBymY75awHF6AAAABFEVAAQUBAAABUFQAABFEVAAQVAAAQVBUFQHMAy6gAAAAAAAAAAAAAAAAAAAAAAAAAAAAAAAAAAAAAAAAAAAAAAAAAAAAAAAAAAAAAAAAAAAAAAAAAAAAAAAAAAAAACgAAIAoAAKAAAqKAAACgAACKAAAAACgAACCooAAAACgAAIAAAAAqgAAAAoCIKAAAAAAAKAgAAAoCgAAAAAAgAACggoAAqAAAoCKAAAAAAKCCgAACKAO7svBx5JzWjlTp83Hix2y5K0r1tOz2uCMUYtPj5R1tPpHX85d8Ci88U8nl7TiWp4Y1lhkzRj72Nom2Ou828rT0hyWi1/ZcNpmZt79t/Hef6N16Y+GKZbzNs+Tf7P+DKtKX1d8uG/FfHWYim3SYjZ2qvVNnCmYpi++nrdpw57e0anLvM0rEztvynwhMlcddBkyYN+HJaImPw7eDVWJx6DNNomJveKc/Tm3YcndYNNSY3rkm03jzjo5xN8p3d1qi03p6+kXb8WOcPZOnv0tlyWtEx4RHJ0ay0avS+10iO9x1+2+m0RLZ2xSuGulxYYnuq4vcmfH++Tg0uqjR3m20XraO7vW0bxMOvwxZ46b4ke0jW8+um+bzqWtS8ZK77xO+7draRx1zU+DLHFHpPjBqZy4c814uXWvLrDr0dKa/SZdNERXUU+0x+VvOHnimM6Ob3118NsTl9k7Mmurpl0GWYi2Su+K0+Fo8Pq8+JvgzRMb1vS2/ymCl7Ystb15WpO8OztKIy5PaKffiLT9UzqpvzhbcGJblV6/te1q1y5a6vHG0Zqxa0R4T4rE+0dk1pPO2G07fKWGK0ZNDw2+5baflP/KaKZrbNhnrNd4jzmHTKar8pcrTFHDzpnf0Z9nW49LqtPbpasWj0mDsmft82nt0y45rt6+H6sNNMY9fXb4ckbfmUmcPaGK8ct7bT6T0Kcoiek2K4vxRHOL+e4bexuWuyaa3TNivj/T/hexo4s2q009cuC9Yj96OcMN/Z+1seSvLa8bfm3YJjS/8AqSk1+Gcu0fKeX80iLW7pZxJ4oqmOdN/ONw1dnx3nZ+vw7bzGOMkfSXFfnixz84en2bi4O2NRo/8AuVyYv0n+jzY56ef3bbsz8NvF1on/AKk27p+cW+zUA4vUAAAAAAIoCCoiiKAgAAAqCoAAAiiKgAIAAigIAK5QGXUAAAAAAAAAAAAAAAAAAAAAAAAAAAAAAAAAAAAAAAAAAAAAAAAAAAAAAAAAAAAAAAAAAAAAAAAAAAAAAAAAAAAABQAABBUUAAFAAAVFAAABQAFRRAAAAAFAAABRAAAAAFAAEAAAABRQAAAAUBAAAAAAAAQUAAAAUABQAAAEAABQEUAAAAFAFEAAAAAABQEUAAAAAAAAb9JgnUZ4p92Odp9FiJmbQlVUUxeXb2Xp5jHOaeVrcq7+C6nPM6a9KRym3d1nxnzdOS0UtMcXd48devhvPRorbHjz008Y4tXFWbza3WPH+j224aeGHzOKa6prmO/f0auUa7zppsf8I/rLnx2mmiy5N9rXvFYn9XRTNTJpsmTNSuPjtwcVI5z4tWrx9zpsGOs8VZmbcUdJ8v0cqtOKN3yeinWKZ7vpn6tuSJ1WkxUtf7aYm0R+L/lbYpjJirtzrjrXb18WrUUtbW4MFPjrFKRt5/3L6DJpcWfVY7ab48GStMtfOIn4nSmOKZ7nmxcT2UR0m8+DHV5KanV5OzbzEc6xit+G0V32+r5/UYppvjzW4LRad4235urX5pjXai9LdLWtFo+fJh2pNdRTFqKR71aRTLH73mmJN4lezUThzTHKfX9pGnnVdn2vitGS+n6xHXg/4cWDLbBnplrMxNZ35M9FqbaXVUy1mY25T6w2azDEZbzSNvHaPGPOHGfejijWHrj3Kpoq0ncstfji2W2Sn3o4+XjEpitxaLfrOG3P/bP/ACUtOTRRaOd8E/nWTT8NNTEf6WaJr+bf8uKOe/VjSjhnlv0NNWK6i+CZ93LWYif4MaW4M2LNPKYtw3SOKnL/AFMFv0bM9Y9ovWPhzRx1SNMlnXPe4Y56zjvbbrhvy+XWGetrHHa1fCYvX5T/AMmWeKcOSemWnDb5xyW3PFgm3jWcVvp0amL3hmJtad7ylNdzmMleXS8fKY/qy7QnbUYs9fKs/wB/klo49Ni36zW1J+cdEz/aaHFbx4NvynZas7/NKcpp7rxv5Oy9u6/9UYsteUZL1n/7R/y8/Pj7vU6vD+G1v0l0a68/5PURPOKVmZ9Yn/he1KxXtvNEdMnP843ZqjOfH1Zwptbw/wDrP7eYA8z6CCgIKAgqAAAAAgqIoigIKgAAqCoAAgIqAIoKgACKREzMRHOZByAMuwAAAAAAAAAAAAAAAAAAAAAAAAAAAAAAAAAAAAAAAAAAAAAAAAAAAAAAAAAAAAAAAAAAAAAAAAAAAAAAAAAAAAACgAACCooAAKAAAqKAACgAAKiiAAAACooAAKAAAIAAKAAAgAAqKoAIACgoCAAAAAAAKAAIAAAoACgAIAACgIoAAAAAAKgoAAAAACgCKAAAAAAAAAAoI9rSYI02km1+Vp96/wAvJx9mabvcve3j3KdPWXfea5o4MtpiMlvdrHWYh6sCi0cUvB2nEvPBHm05LW1OTT47V2iftLR5R4Q0XjJjxanNkpNbZJisb+TO+rvbBnyRO1N+DHEf35MJzZcOPT4qzva8b2i3PfeeULVMTvySimqMrb1/TVnjh0unxR1mJvP16Oi2XbWxpbRx4tq028p26s74aZ9bW2O8b4rRFqT4RHk59JPedoWy7b7cV0tMTvk1eKqZmeUTPnLv0Glvbt3HkvG9JtNq28J2jdu0GS+XtXJNLTEXi02mPKd27sK95xZNNMxtWs2refuzPL+bm0dL4NTqYmJrbHhvM+vhDtTFnhxKpqqrieUWho7Sw0x5oy4Pfw6i3uzP6x9GjR62MeoyYc9K30+X3bRP6Tu6uz4jPjros+StdotfHvPS39HkZsOTDea5I5xO0uOJNUWmHswaaar4desbiWzU6fusl4pvMVnnE9YbYtOXR1vX9pgnafWslrzl01c9eeTF7t/WPCU09q481bx+yye7ePLdm0ROWkut5mnPWN/WDTzWmorb/SyxwWjy3YcE0vfT2n3qzvWfUmnc576fJ8O+2/8ACWzWxMxi1H3pjht/ug5X6L/KO/cGpnbPj1ER7uWvvfPpK6iu2mxXjritw7+nWGV6992fa1fuW4vlv1XSx7Ro8+L70V3/AC6NWvMx1zc72iJ6TbfkxyRx6K1q/cvF4+U/8rb39He1fu2rkj+Er2dHfYsuDxmk7fx/qnZ8d7jy4fGaTEQse9bvhJ92/dP0J/6W9o6VvW/0nksVj2bh8sk1+kxumkjvdNlp48Ex/ODFPFpMk+PDW35TzWM8+5Ji1479/cze/wBl4vOu8T+bPtOYnNpM348Vd/pySI30t6f+5P6xumsnj7N0mTxrE1/L/wApVGW+RT8ceM/VwZI2yWj1Ytuo/azPnES1PNVFpl7qZvTAAyoAAAKIoCAAAAIoKgCCCoAAKgqAAAgqICKCo34IjHjtnt4cqfNqrWbWisdZnaHVatZy8M/scEc/WXXCp5uWJVyeQA4PWAAAAAAAAAAAAAAAAAAAAAAAAAAAAAAAAAAAAAAAAAAAAAAAAAAAAAAAAAAAAAAAAAAAAAAAAAAAAAAAAAAAAAAoAAAgoAAoAACoKigAKigAAKiiAAAACgAqKAAIAAAoAAgAAACgAAKCgIAAAAAACgAACoCAoAAoACAKCCgAAAAAAAoqAAAAAoAAAAAAAAAKAgoAAAyxY7ZclcdOtpYvV0OD2fBOe9d8lo2rH8HTDo45csbE9nTfm6eWlxY8dI3392sec+ctF4tbLnz3mMdeHu8c35fOWzU5KY62zTaLZMUcMR4RaXJn481tNp72mbW96/1/4equbZPn4VMzn85+u/Flk0sTiw6fHlpMx70xM7TO/ix+PtaZmNq4+fyiIKXi/aGXPy4cUTMfTlDLTZpy6bLOe0Ry4IyTHPn4OfuzO+TtPFEZ9PVp0d5jJn1E9a0mfrL0ez8VM+DVazHSYvXHw2pEeM+P5OC2G+m0eWto97JeKxt4xHPd62jvfs/sfHfHtx3zbzv4xEc1w4mJtLn2mqOG9GszER4NWmmadm6y8TtvFa7/AFboz31XYmprSn2uOtMXFHW8b/0XXxjv2TTJpaTGHJn47fu7Rtt+cNGDP7J2dp7Yoi1smonJvbyiNnSZ5PLEcUcURnf06/J5Vp4bZbVnbhiKw25r95hrqaxExPu5a+vm39oUx3xV1dKxXDqLTtwx8M+rl08xhyzjy88OWOGZ8PSXGbxNuT30zFVPFbONzBp5rhyxbrgye7b03a7VnT574cnOu+0/LwktE6bNfFkjeu+0x5+rfqqd5pKZo52x+7M+ceEs6xlrDpe1UX0ncJrKTfT483Wa+5afPylt00e16DNi65KRxx67HZkxqaZNFeeeSvuT6x0c+hzzotfTJeOVbbXj06St4vFXKXOYmaZojWnOG7se9baidNkn3c8TT6z0Y9n39j7UrTLyiLcF9/ylO0cFtD2leMc7ViYvjtHlPOG3tukWz4tbjjamqxxfl4W6TCXmI74X3a6u6uPr/r0Y44ns7tvgvyrTJtPrWf8AhspX2Lt+2K/KvebT8p/4lO1/t8Wk10dc2PhvP71eUr2v9pTRa6vXLiiLT+9XlK3te3LNiPf4eL+UTE+MbldLTuO2cumt42msR6+H8WvR0558HjEWq3dp34O0tLrq/wCtjpk+vSf4Nk0jB/6kvjjlXLPu/wDyj/luMpt3+rnNUzTxc5pv5xq5cM8WlvPpWfynaVyxv2Zw/gvbb+K6ek8Oqxfhi0LX39JePxWifzj/AIaiLx5NTNqr993Bm51x2867NTbbnp6T5TMNTyVavfRoAMtAACKAgACKCoKgAACKCoAggqAACoKgAAIREzO0Ruu27ZM91HDHxT1nyWIvqkzbKHRpMOPHTLqM2WKzjjalYjeZtLZODFMYdNTPMXv72WbV5VZ4NNWIxV1Fu7xVr32SfGfKGE5cUYL2jDNs2ottWZtzir1xTFNNp3vKHimqaqpmJ9N9ZeEA8D6oAAAAAAAAAAAAAAAAAAAAAAAAAAAAAAAAAAAAAAAAAAAAAAAAAAAAAAAAAAAAAAAAAAAAAAAAAAAAAAAAAAAAACgAACCgACgAKCoogAAqKAACgCAAAKAAAoAACAACooAAgAAqKAAAoCACgAAAAoAAAACCgAAACqIKCAAAAAAAACgADox4No4sn5NU0zVoxVVFOrVTFa8b9K+ctnBWvTHe/rMbQzta88oyY6+kS1zXNtvF5tH7tnThiNIc+KZ1lJybcpxVj5wceO3xY9vWspGa8cre9HlZeGmT4Pdt+GfFL30W1tUti5cVJ4q/rDBlWbY7ct4mGdqxkrN6RtMfFX+bNonRq8xq1AMtgKCCgAAAAAAgDPFjtmyVx0jebLEXJmIi8uns7Td/m4rR9nTnPrPk9TJn2i8UrNr0jpHnPSDDWmnp3NNvcrva0/zc82nHqK6fHfr9plv4+f0e2mn2dNny66/bVzPKGEYcW2HTZr2nJMze1a+frJjzYMmXNqJxzSaRt3kW368o5NNckzXU6ueU29yn1/4a7/Z9n0r45bTaflDnx2zjfKHb2d8pnu+8tlsMYNDltS8ZK5LREWjy/k1ZPc7OxV8cl5vP05NuTPfS0wYqbTHBves9J38JbdbpbZr0jTxEzSIrOOvWqTGU2aiq0xxaTN7/AE/Do0OPDfDgw6uZiLVma3/DO/L6N3a1Z02HS6e0/s6WtaY8ZmWOvxRTVV02Pn3VK449f7mXXqpw63NbQXmuOcVojDefHaPhn6u9rRaHz5rvXTXyzn9/Vz31M6fDh0vDxYZwbWp62nff6Nfamm9nxabDjyVvWmO3DMT13nlLT2tl7zV46VjhiIiu0eUQ357Y82C+jtERkmKRit6xHRJzvDdNM08NXXOfz9XBhyRGKmjzTtjvG/8Att4S5eeHJbDmjlE7THl6w26jaue2DNXaact/GJZ6ik5tPGSeeXFG1tvvV8JcJi+nJ7qZiNdJ3ddRjnNpK5Y53xcpn8VfCV7Ky0nLOlzz9nmjh38p8GHZuppizRjz88OT3bem7VrtLfR6u+G3hO9Z848JSatK48zhvfBq8Y33JeuXQ62azvXLhvyn1h2ds46Xvi1+GNseqrxTH4bx1hlr/wDP9nYtfX9tj+yz+vlZj2faNToM+hv1j7XF6THUinOaeujPHNoxZ1jKd/XwZaj/ADvYmHN1y6We6v618EwT7V2Hlwzzvpr95T/bPWPza+yr8OfLpsnw5qzWYnz8Ds+fZu0ZxX+HJE0n5SsRe09cpZqjhiqmOU8Ub+bPS/5nsXU6frbDeMtPl0kxT7R2Bmx9babLGSP9s8p/U0P+W7UnFblTJE0n5Sy7OrOPX59Lbpmpam3r4LFOl/BK5txTHdVH333sc/2//p/T5PHT5bY5+U82zX5Ji3Zmuj72KImfOaztLHQV4tJr9JPWaxevzrP9GNvtv/TlfG2nzzHyraP6pnby9Eyiq3K/0qj8uvu4p/6h1GLrXJE2iPPeN4cmn39jyRPWsxH5S6s19u0uy9V4ZcdItPnMTtLVXHwZO0cP4OKY/N1pnP5/lyicov0j6TaXnWjbFkr+G+7Q6rxvbNEeNYs5XmxItL6WHN4AGHQAAAARRBBUAAFQVAAAEUBAEURUAABBTYVnj92JyT4co+bboMNc+rr3v7OJ4r+seTVl5cOOPD+Lqw1muK9afFO2OPWZdqKYmq08nnxKp4ZtrLfecvaGfakbX1N9ojwrSEnNh0+bLnx1rljHHd4ptG8b+cQzzzOljLTF8e0YYmP1hhjx4sWSs544sWnrxTX8dnpmJ3vxl5Ytbu6b8o+b54B819kAAAAAAAAAAAAAAAAAAAAAAAAAAAAAAAAAAAAAAAAAAAAAAAAAAAAAAAAAAAAAAAAAAAAAAAAAAAAAAAAAAAAABQAABFEUBUUABQVFEAAUAAAFAEAAFRQAAUAQAAABQBAAAFAAAVFEEUUAAAAFRQAAABBQAAAABQFAAQAAAAAAUAGVKWvbasbs8WG1+c8q+bpiOCu2Ovo60YcznLjXixGUasK0x4aza07zHi1XyYr23tF5+rLNltW+0Vjb1jqw7ylvjxxHrXk1VVHwwzTTPxScGO3wXmJ8rMbVvjtz3ifCYW2LaOKk8Vf4FMm0cNo4q+TE255OkXtlmyi9cnLJynwt/Vhak0ttP0lclOHaazvWeksqWi8d3f8A+M+RrlOqaReNFj7au0/tI6T5tdbTS28dYJiaW26TDPJHHTvI69LQa+MGUZcpTLWNovT4beHlLBsw2jeaW+G36SwtWa2ms9YSrPOFpyylAGWwAAAAUBFAQezoNPXS4ZyZeV7RvMz92HL2dpotPtGXljpzjfxl6Gpjetb3nbFj9+0eNp8IerBw7Rxy8HacXin2cef4as/2morSI4cVffy2nl8olpyZsWHFk1GL38mS3DxWjlPyjyM+bNn0sRWk8Wad4rWOlYMujvfJgwxNe7xxETHFz9Z2bqmZvwsUxFNorncftjn1WelcGPeLXtXe0TWNp36Qyz4sOp1MYa34L49q8O3KY8dmusTftS+TJWa1x732mNuUdP5NejtM58uot1pWbfWWOK82ndnSKbRenKYj6yyvWc3a3DMTHv8ASfKP/Dr7Gi+XtqM1bTHFedvWP/DDsy06u01yzWJpXaM09axPLm9HSaS+gvqLZK7RjwzwWjpMz02aopv7zh2jF4aZw+drb+jO2LFq9Xj12mtvWuSJyUmee/hMekvNt/me172tbhrbJwxPpM+Dd2RaK5subJM7YsdsnD57dN27S4aanUafW4Y2x8Vr5af9uY6R8m8ps4R/0pqidIi0T9bGojDrs+WlKRGfSRMRO/x1if4uHtCaZNfvj+z2tExWJ8tvFhpaZbazi2mb3yb8vLq367Hjz6idTpo93FTbLXynzSbzTo7UUxh1xF8rb+cubXzOs49VttlrO2SPOPCWrQaquHLFc0b4p5T6RJpNTFMte95x0mfOPKU1+lnS5o2547xxUt5w4zP86Xrppj/s1eSdoaSdHqZp1paOLHaOlqz0dsT/AIl2Twzz1WjjlPjfH/wmjtHaOhns/LP22Le2ntP61cWkz30esrk5xwztaPTxZyib8pZ96um0/HT9f9t3ZWeMee2DJ+yz14LR6+DCvFoNfW3hW3WPJl2hgjFnnJi5Vmd428PJs1MRqcNMsdbx+Vo6w3FMxHDzjQvTM8fKrVhra9zqozY/C0Ty/OGWuj7SM+PrG14n0n/kiYy6THa33fsr/wApK89JXj64bcFv9s9Gspv3sxeLX1jLe+a6yfta6inhtkj5T/yy1Exj12PPWeUWid/SWO3+VpFv9O047fKecSXrx6bFE9dpxz845wut2YtFo8Y8t+rfimMXbMTPKmXirb5Sx0dJ7rtHST1tSLx84ndhmtvbFm8dq3n6cpdGP3O1+fTJFqW+sbraL75uc34fL/6zdoy2m/YWjyx8WnzWp+fvO7JWJ7f1NIj3dRh4o9fd3/i4sdeLsrX4J/071yRH6Oyl4/xDsfP4ZMMY5+cbx/NmMpjy/CYnO3/l9bVPIrzvT97HNXK7b1nHmis9ceW1J/Nx3ja9o8p2csSHvwpugDk7AACKAgAoAggqAACoKgAACKAgCKgqAM8Mb33npWN5YNke7gmfG07NU63Zq0sY+drZJ8Of1er2fWMNPaMkbxp8c5ZjzvPKsPMpTijHj8clt5+T19RtjwY8XTjvOW/+2vKIenBpyvvejx9pqvanr6bu06ekd5bNn549LTjvv9689I/NpphyavNTTzba1/tc1p+7Hq6M/wBnp8Gmtym2+pz/AP8ATH5NeS1sOj7uv/U62d7fu08I+v8ABudN76R83OmZnONZ0/PrPyfOAPnPtAAAAAAAAAAAAAAAAAAAAAAAAAAAAAAAAAAAAAAAAAAAAAAAAAAAAAAAAAAAAAAAAAAAAAAAAAAAAAAAAAAAAAAKAACiIoKCgAAIKigAAoigKgIoAAAKAAqAKIbiKAAqKAAIAAKigAAqKCACgAAACgAACAAKAAAAACgKAAgAAAAoypS152rH1WIukzbVjHOdodOPBFY4sk/RlSlMUbxzt0+q2vX3t43ivOZ38fJ3pw4pzqeerEmrKllad968W3j8oYWi3Da9femeUbeEExW3uxM1tfnO/k1ZptXJy3rEcqrVVldminOzGMt68pnePKWXBXJG+Plb8JFq5eWTlbwt/Vhatsd9p5TDlfzh2tnllJS1sdt45T4wzvWtq95j+seSztmrvH7SOvq147zS28fWPM0ynQ1zjVcd4jetudJ6mSk0tt+U+a5aRWYtX4bdGVPtMfBPxV51/oW/jJf+UE/a49/v06+sMcVuG3P4Z5SmO00vFly1it/d+GecF/5Fv48kyU4LzX8meT38cZPGOViftMO/3qcp+RhmOKaT0vGy2ztylLza/OGoWYmJmJ6wObqgoAAIAAOjR6adTl2nlSvO0teHFfNljHSN5n9Hu0x102m4MVeO0eHnLtg4fFN50ebtOP7OOGNZM/d4tPvPwY9pisePlDnnHOXFjpqMkxfNbitWOsx4R6QtMlaXjFf38lPtMt56V/vo04K3yWz6vLMY5tG1Jvy23/4emqby8VFMxG/L8rTVWtqLRSeHT4KzO0eO3Rzae0xj1Gqt8W3DE+st800uDScFst5jNO/FWvhHp5JqdNemjx0wfaViZvaY68+nL5OU8WvR3pmiMoyvl8tUw55jQ2tqeK9LW4I589vHml8MYuz8lsFpyUyWjnt0iPP6tWs+zx4MH4KcVvnLqrbJgzYKUnlipE3iekzPPaSM/dlZi0cVPOb28Nw3aTFGm7DvltHv6jJEf/GOf8Xbhz1r2Rtq7WnHkyd1SPw+O/yhu1+CNTixYsEVrmx07zuI9ec7fV52un2fRaXT3ie8pS2W+/hNp5Ose7FngiqMebzrM3/H2bs2mns/RazJlmLxm4MeKaz8UdZ/Np7Mz208a3PHPHhxRXh8JmZ5N2Lu8fZmix6zeceW1723n3q+Uw16jHi0vY2Wa73rqs8RW0TztWOcT+bM31huJvE0VZzM2+U29IldJgjDm0+q01/sppa8x41nbnE/RxaPU93lzXpWPerOO8T0tEuzsvgxe057+/ixUitscdZ35PP1WmnT6aMlZ4sWa3uW848vmVTaLutERVXVTV3R92rW6buMkTXecV+dJ/k6+zsuPWaeezdVMRxTvgyT9y3l8pTQajFnxzodbbbHf9nkn/Tt/RxarTZdHqbYc0cN6T1jx9YcJtE8VOj02muPZV5VRnE/f8/stXNo9VtaJplxW/V2a+tdVWuqxRtN43tHr4ss1o7R0lctv+ox+7efPymWjRXnitpbzw8c+7M/ds3ERGXKUmqao49Kqdd/Vlhv32jmLc7YesedJ/oaes7ZNLv8UceKfWGNLdxqIzcO0b8OSvl5sr0nDn4KzzpPHinzjyWOV0nnEc8970ldPtktanSuorwz6Wjoum+0m2O/Kb1nHf0nwlMu2PVRavLHm2vWfKf/ACyz/Ya2uWI2rmiLfKWoy13v7sznpzj039E00TmxZcU/FavDMfvRzhaTOXQ5LR8Vdr/WOv6Nl9tJ2vFp/Z5drb+ks9Ni7ntfNor8q5N4j69P5EdJ8GKqspqjx/LVfa2mxX+7xzX6W5/xZXnbNhvPlW0/TlLHTUm+g1eCfjw+9+Ussnv6PTZo6TaaT9ef9Gom5OU27/tduwx/m9VSemTFbf12YVvw9ndn5Z//AFbUzWfziWce72jE+fP6TH9YarVm3ZOqx/gy1yR+RVGTnGcxfu+8fdr7Up3faGrj8Obj/Pm4M8bZ7/N6nbPv67JkjpmwUyfp/wAPN1P7SLfirEuOJGW+96+zTemm/T7Q0gOD1gAAAAACKAgACKCoAggoKgqAIqAAII25I/Z448v4sKV4r1jzltid9Ra09K7y3TGTFU5uvs7FOXtCZrG8Y68vn4Q7IpXU62Ymfs94pv8AuVjeWvsmvc9n59Tbrado+Uf87M+GcWhvtP2mXbFE/Pnaf4Pbhxai/m+bi1XxJiOWTVX/ADmptkycq5rze3pjq1WyTmy5dXMfFPBjiPCPRuy+5o+HHyvqbd3T0pHX9f4NOW1cWPiiPdxxw0jzk8eW/wBt056eG/TyfPAPmPtgAAAAAAAAAAAAAAAAAAAAAAAAAAAAAAAAAAAAAAAAAAAAAAAAAAAAAAAAAAAAAAAAAAAAAAAAAAAAAAAAAAAAAKAAAIoCgACgCAAKAAACgAACCooAACooAAgqKAACgAACCoAoAKiggAoAAAAoAAAgCgAAAAAAoCgAIAAKREzO0RvLpx4a0jiyc5jwapomrRiuuKdWGLBN+duVf4ujaa14aREeX9Utas8UTbaI5z/RhatpieGYmbePlD0REU6PNNU1zmt73rxTz8qx5+pM1tbgvETtG9pjzSLzE2mPgpG0R5yk14sUzSNrX5zEyXvotraluVb5Yni4uUbeDXTJtHBeN6fwZXvOO0Vr0rG0x5sb0ia95j+Hxjyc6pzydKYyz5pkx8G0xO9Z6SypMZK93eef3Z/k26PDkzz3cV+ztPO08oj1dtuyqaPJw6rJW1usRFtolacOZzjRjExqKZ4apzeXWt4ybVrPFHhEOy/Z2pyYfaK4uGm+1t5iNpepfNXLpt8HsdL442tEZdptHnts5cOTNFp4tJps1LRtbx+vV0jCpiLauE9orqziIiY33OXT6K+Se5tlw14um945SwtoNViyTtWtprP3bRLLPOPDlnHqNFNLR5TNZbcuHSajFTNps80ydLUycufnuzw0zlGsN+0ribzpPdl9JcmpwZMfDktjtSt+m8bc2NftMM1+9XnHyduPUazBS2lzTxUtzrW8cUTPpLXjnT5skTX7DJv0n4Z/onDF/FuK6rZxpzhy4bRW8b9J5Sl6zS818Ylt1ulyaTUTjy128Y8pj0Y5Pfx0yePwy52ymJ5OsVRNqo0kzRxcOSPvRz+bU209/DenjHvQ1JV1aoyy6AKy0goAtKWveKUje08oiEiJmYiI3mfB7eg0cabH3mXbvJjn+7Dph4c1y44+NGFTfmz0mljTYZiu05bRztLDDkva964p3pi33tM/Hb+h3vDE3zcVYt7uLHHxT6/NozR32ppo8NeHFT4+Hp6vXMxTERD50UzVMzV89/JL3rosfuzGbNn5zM9GvW2yZs+LTTbitG0Wn96XRbFi9pvqMuSLd1G8Ur0rEdIYYdVWYzaiMGOsUjeJ6zNp9XOY5TOTtTP8oi8/edHPmiNR2hXDT4K7Uj5R1/mtMls/asTjtNYm20bfhj/iG/TW096ZM8V7i23Bxb713lrx6e+kx5819p9zhpaJ3id/GGbTr5t8UZ084i3nO4Z4u57S1sYppNctre7avS0R5/R3ZtFkp2jXHek7ZckRFvCY8/yaewsXcY9TrLfFjx7V38Jno6+ydVl4c9LXmcOKk2589p9HXDva86y8naK5pqmKNKct/Ry67LbN2xM6e0xa2SKxaJ6RHLk6tf7PqdZfBW0RqrXitbzPu2iPD6MMGkrmzRm0NuPBW220/FXaN+fo4KcGTXRbnaYnp5c1SmmmZi38Y3dn2nxd/OOImZxYq44+fi6Jtjw6Xs3R6mkzivWb3nxjed4mE1Wtrr7102p2xzbJMY8tY24Y322n0a+1b3prrY+c48OKKV8p2/uWZte7VMVVRTRVFtZ+33MuOdL2Xqr1vFoy5oilo8a9WvT6jHlwV0mrttjye9E/ht5umbYa9j6XTzT3M82vbeecc+Uw83tPTW0uorjmYtSKxw2jpaGapmmLxo6YURiTNNWt5z8MmrWaXLo9ROHLHOOcT4Wjzh3Ycle0tHGmzz/mMMfZX8ZjylNHqcWs08aDXW22/YZp60nyn0cWbFm0Wp4bb1vSeUw5R7ucaPRnX7lWVcaT9/zC4b20mo9+N6zytHnDbqcPv+5O9tuLHb8Uf1bM/BqcMZttomdrfuW/pLDDFsmOdLedstPexT/Ju1vd5JxX9/SY13vJct+8x11URvxe5mr6+ZkrN9JE1ne+DnWfOn/Bpr1ta0Xjat44ctfLyldJf2bVzp8/w78Mz6S1rrzZm8aax6b+jKaxquzb2r8eGeLbyjxXb2zse1o55dNO8+tZTBM9l9qzjzR9lM8No86z4tmGP8K7bthy88F/ctv0tS3j/fkl76+Eszl8P/qj7xvqxzf5vsTHnj9ppb8F/wDbPSfzZa7JNsOg7Tx/FEcF/wDdX+sMtFi9k7V1HZuefss8Tj3n86z/AH5sNHS19FruzskfaY/taR5Wryn9EznfOGbxE3jSM/8A21a/Kc3XtTF/6jj/ALGtpvHrFo/q5cWO3+Ga7T2/aaXJFo+k7SmW9snY+k1NZ+10mSccz6dau6K0nt+9Y5Yu0ME7fWu/8YWN+bnN6Yz5f/rP3iWm08WfQ5Y6ZccV/KdmOOu9dXj/ABV2/KWus2/wbDkneL6bUzWfSJj+rqyV4dfrKxyiaccfKYh1pm7NWWXT7T+4cut9+nZ95+9p+7n6bvNzc8eKf3dvyenqf/0fpLfgy2j5RMw87PH2Ufu3mHLEjKd9Hq7POnjPrLQCPM9wAAAAAAAAigIAAigIKiKIoCACiKAzwfHNvwxMleWG9vG07LTlhyW89obcGKc2XTYI63tG/wBZdKYy34OVUxEzM7tm9i2PuezdJp+W8xFrfx/ox1VbWz4tPT4qViv/AM7/ANIdmatcvakVnbu6RtPyjnP8HJiyW4tRrZj3qxNqx+/flWPpD3TFos+PRVM589fOWjNtk1s1w/Dj2wYvp1lrxxjvqrZbxvptJG8/vW8I/NnSPZ9Jky152j7DF62n4parxXFp64Zn7PH7+WfxW8IYne96PTT0jw/O+svnAHzH3QAAAAAAAAAAAAAAAAAAAAAAAAAAAAAAAAAAAAAAAAAAAAAAAAAAAAAAAAAAAAAAAAAAAAAAAAAAAAAAAAAAAAAFAAAEURVAAFAEAAUAAAFAAAEFRQAAFRQABBUUAABUUAAQABQAFRRABQAAAAVFAAEFRQAAAAFRVAAQBQRsx47ZJ5dPNsxYJnnflHk3+G1ZiIjr6O1GFfOXGvFtlSla1xxtWN5nluxtkjabcO8b+76yTOTlHOJtP0rCd5Wd72j3aztWfF1vyjJxiL5zms1paeDfbaeK3qwtNqcd7crTyqWxzGOIrvPHPOWdPfy91FeKtY8ufJnua0z5Jba/DjtO155zMR4p/rzaY2rSOT0cXY+fu76nPeuOkx7njM7/AMHp6TS6THo8eK01jNn34LWjeZiHSMOZ1yebE7VRRHu57zeJpuzc+vrN6VilqxvPFy4o9IdWjwabRWjLm4ckRytx9Pyboz2w5K3jLSvBaYm3nPlDTrbavNW2qrpcVsO/OKxxRX1a4KaM9Zc5xMTEnhmbUzuzZrb1rffS5tLOG/wxa08vSWqs6nPg7uNJpcs151tSsTM+jm0+fRZN8WqwWxxbpfHPwz8pa502XDknJo83HNJ605Wj6MTXM5xm6U4UU+7OUx1/MSY9Rgpm+30nDMTtbgmYn8mzPo8M5ItoM/FFo3rW/u2j0TNq+/iL6nHGSJ5Wnba0SRpe9w2nT27ytfej8VfnDNr5a/R1vw2q0+sb+S21eothjHqY7ycXLhyRz2+Zp8OLUWmumttN+U4rTz+ksdLrKcdaa2s3x9OKPirH82Ou0d9FniaX48dvex5K+Mf1TiyidSKbTNHwzOnSd/NMWoy6TLOLLXjrW3vY7/3ybtfpcUxGq0UzbDeN5rPxUnxiWebLTtHHS2bauo24e88LT4b+rmxXy4OKsb1yY532nxjxgtynOOREzfijKrnHKd9W6mqjNo6YdVvemOdot96kNVsFsU2xTMWreN6WjpLZ3dMkTmwxtS3LJT8M/wBGGkz1pbuNR+y4uvjSfOF6cXzIyiZo+W9y58NuDLWZ6dJTJXgvavlLd2hpr6TV3xX6fFWY6TE+MMM3vVpk842n5w4zGUx0eimqKrVRpLUAw6BETMxERvMkRMztEbzL2dBoYwRGXNH2nhH4XTDw5rm0OONjU4VN5NBoe4jvcsb5J6R+FsjLaNT3NfeyW53nwpHkd/ta2TJbu8Ffh363nz+Tm1GTuuHDpYtGbLztafi5+b15URk+fEVYlUzVz+Uf6bMkd3mtrdTPw+7THHOYac2qtGhmYrGPvpnhrHl4zLbl0c5L4sFstaUrHLnva8+MpTUY8urpjwYa7V5cdue1Y8mZvGWl26bTETrb6RGjR7PmjQUpjx2tbLPHaYjw8IYamJwaXDp5ja1vtL/yZxmy6zXxEZLRj4t9onaIrDPFq8mp1ndTWt8V7fDau+0f+HP3Z08Hb34m88s53vRo1P2WkwYPGftLfXp+js0s302nwTw1mtt72raN4tHhCY9Ng7V1nDizTjvM7TFo5TEeTs7Vw5KarhjDaMcRFMcR4w3RTnMuGJi0zbCnXWd70dmauLL2dSMPDp7Z7cUY5n45jltDgviyaHQai2orOPitGOsefjMx/Bj2vkrXNTDM7zpcda7R04tnRqM3Bp9FptdXvacHe5N596JnpEfJ0meUPLRTVTTTziZv39fxq5uzMltNOfLi3rGLF067zM8m/Q002qyTly/Y6mbTa1KxvF/l5c5TU46x2JbJoK3tXNm33mPe2iP6uTTUtTDlvtO1IrTf1nnP8kjWIdZiK4qqibTe3f5+Zp8Ef4viw5a2rfHaOKJ6bR1bM2prPteLU7ZcWTL7t69ac+sMuzdXOauoyamsWvSszXLPWsdJ38+rnnSZ9PqNHj3iYzWiYvHOLRMs3yvHN01rtXrFvzkz7aw2xZtFh2mK0w1iJ858WGDV4MvFo9dH2Mz7mSOuOfP5OvNrcV+2M9NRWb4ovMTX5ct48nl67RZNNaL/AB4b86XjpLFd4zpawYiqmmjEym14n6/NjrtFl0WbgybWraN6ZK9Lx5w6cWaNdp+5y+9lpHuz42j+qaHW1nD7FrI49PafdmeuOfOGnU6XJpM3FjtvFZ3i0fxZpy96nTm7Ter3MT4o0nrvnCYrTpcvvRx4b8rR5x/VsyU7rLWk35fFhyejK1oz4Zz0rEzH7bH/AP1QYq1zYfZ5tvWZ3xXn7s+UtRHKEmrnPnvd4Y6qsxw6vHG0zO2Svlb+ktuqx11WgprMPxYvcyR5eUsdDlr3ltJq+UX9yZnwldNkv2V2jfDqa74re5lr+Ks+JMxbun6Sz70TaPipzjvjf2Z5Y/xHsiM0c9RpPdv+9Twn6GX/AD/Y+PJ1z6T3LetPD8uhET2P2t148F45T4XxytKRoe07Y4nfBmjh+k9EiL6+EsXt8H/qp+8b+yau86nRabW1n7bF7l5+XSW7Jkinaen11I93NEccfPlLThrOO+fT7crxNqx6x1hNotoopvypbaJ9J6T+bpEb8GZiNOWfyn9t2HHFb67Rz8GSvHX6SneTGj0Gp+/pcnBb5RPL+bLin2vDknraI3+vKf5Ma1302pwz04on69Ja4ejN+c934n6N+XFHedsaWOl6Rnr9J3/m2Y/tdXocnhqNLwT62iJj+iYLcWv0eS3TNinFk/Lb+jDTTNNL2feeU6bVzin5W5s2tLlN7W5/qY9YhozRv2Pv4xf+EODURvTJt+KLfnD1suOK6XV4v+3qLV+k9P4PKtzw29ccT+UlcXh6ez1a+PrZyAPI+iAAIoCACgCAAAACCoAioKAICKgAArZPLT1j8Vt3qdiYoydsRafhw0mf0/5edt9phr5Ru9nsOvDo9bqZj4p4In+/m9OHTeqHg7VVbCnv+82b4nfT6nNPKck8EfXnP6Q580zj0eGsRM2vM5pr52nlSPydOop/ldPg6TlmZn6/8MMk79o8UVjbDHFFf3ulY+ni9VUPBRPPeWTm1deDNi02P3vZ4jHXb72W3O0tc4seTW9ze2+n03vZrfimPD8+TZht3UZtX8VsW+PDv97LbrP0c8VrTS2pM/Z1nfLb8c+TnPTe/s9NN9N3nXfWe582A+Y+8AAAAAAAAAAAAAAAAAAAAAAAAAAAAAAAAAAAAAAAAAAAAAAAAAAAAAAAAAAAAAAAAAAAAAAAAAAAAAAAAAAAAAAoAAAgqKoAAKiiAAKAAACgAACCooAACooAAgACgAKigACAAKIoCoAoCoAAAAKigAAAogAAAAqKADbiwzfnPKrURM5QzVVFMXlhStrztWN3VjxVx7TPOyxEY42rXlHl4pN+e0xHKPen+T0U0RTrq81Vc15Ros3rPD15zy9fVjwxPSeKtec+cyRMTEW+G1o2ru36fs/U570pipNaRHFbJblX81zliZpoi8zZzcdq13nna89J8m7Fpb6rLGLT0m3DPOsQ9fQ9m6ad82qneaztWZ5V+rdN6aHRxFLRW+a+1ZpHWI8v6ukYX+TzV9ri/Dhxn9NxDh0nZm1c2p1l5rWvKKV8Z8nozTS6fQZbaOkY+KInJvz4Y+f99WWom2qj2WuqxxnraJvO20V5dI85c2fVZKa3a+L7Okxjx4piJm23jLrERTo8k1V4s5z5dzonP3cYdJHBfvce8UtymZnxn5OXtLvsOWlctazhpiiLZZjlaPKGVowajVZM2HLOPPbHNsnW3BtHTfwedl1ObBWmmrvXTx8Np5xMz4pVVaM28HCvVlrzuyy6nSdo4a0y1vhy4q7UmvOsx6x5ubH7Rord7gyTbHPKbUnlMesJPc5b7TEYM0dJj4Z/omSM2mv3lYmsz8UeEvPP+U/OH0KaYj3I0nlLLJkxZbbaiu3FzrlpH8Y8TLhy48cZqW34emSs8phtwYcXaFLY8O2PP1rjnpafRo0eryaHPNb04qb8OTFbx84+aTMc9J5rF7TFOscp3+m/S5MGst3OpmMeS/KMnhM+G7n/AMz2XrtudMuOfpP9YbNfpMePbUaSZvpsnOPOnpLOM9dXpqY9TPOnu1yeNfLf0S0zNp1giYtxU50zrHTfRdZixaz/ADWlrFL2je+KPPxmGvBqNtPwZI48ccrV9POGFK5cGS2Kd65K+9WWzamaJ1GONp6ZaR/GGo1vGqWtTwznHLfoxtg7uZrW3FiyxvSzPT39pmtL8s9OVZn70eUteDLGK9sGb9lM9fwz4Sa7BfS6rr8UReto8Y80vaLwtrzwzrOk7+rGl8mi1c7R8M7TWfGPJv7V09KWx6rT89PqK8Vf3Z8Y+jZrYjXaDHr6R9rT7PPEfpZhos1cmkyaTNP2czxVn8M+aWv7vLknFOWJzjKY3847mcWjX9m48Vv2+DeMc/ir5OGvvYL0nrWeJsx1yYc18U8rxzj5x0bskVvamppG1cvu3jystrxE81j3JmI01j1+rgZUpa94rSJm09Ihni0+TNlnHjrvMTznwh7Ok0uLS1mIniybe9LGHhTXPc3jdopw46yw0OhrgjjvtbL/APyrOW0amcNNr5bc7T4UjyS2Xu7d5qJmlZ/Z445zPrPq0ajLOO1dPpa8OXJzvO+88/Dd6pmKYyeGKasSq9Wd/luGzPSbZvadVMRixfDTrMsfa4rgy6imOKcU8NJnna0+f0TNpMuTg09ZitK85taed7eMpa+nvmxafFjnLNPdjinasec+rEzMT0/LdMUzEc/tH7atPTLGmvmrW18uX3K+M7eMs8WnnTabJObJTFky+7G877R49GGpz5M+p7jT2muPfhrWvKGrWWi+orhxc649qV9f7lzvERlyyd4iqqbTlfPy5b8W/Fpr4tLmvimuW144azTny8WvSY70xZsnDMX27uu/hM9f0TVzMZsenwzP2Mbbx5+Mvay5a6DT4dPnxV1FuDiy8XXeekRLdNMTPg5YmJVTTHOavTfq09kUppozaiemDHM7z+KeUNnZGqz+2TinJvgpWcmTj5xG0fp4Nuoppv8ADKVrkjTzlnve7vO++3SN/Lxc99LqNN2dltnpFOOYiZid+XV1tbKHimacTimrWcs9+JSmj1urpXHa1M+S3Hki/OJ8Z2c3alM9tXqM+alsdck8NJtG0cMeS6DLXDOfW0je1KzwzbznlDPQZ9TqNdp9Jkt3uKJ3vF43iPGWJtOrtEVUVTVGkRz+c/Zlrsvsmr0ulw/Fpscbz5TPOeX5NmTVRq+zptqckYb5bcVOGu1Znpz+jDPg0+sz6jU01VaZbTMcFv5S0drYa44waelpitaRtNo24lziJlKaaK5pp/lz9Z+rZNMmj7Nze1Y+Kc0RWsxPWN+sM+yLWntCtO8i2HFXitS33dvGPqnFfBg0VMuLvcV5n3bdNo8vJlpcOPbtHU6KbWjurVik/FXef6E5SVTeiq/Pny1t5OPLppv7TrNPM3xc5tE/FSZnxhp0PaFtNE4stIzaa/x4rfxjyldNq8unxzeZmd7cMx5/NvtosOvpOXs+Y72I3tgnlPzhynPOl6cqYmnF+Hrv1a9Z2fTuvatBecumnrH3sc+UsNLqIvSNPmttt8F5+76T6NWm1GbRZ5mu8T0vS3j6TDp1GHBqMftGD3Yn4v3Z9f6pTnnTr0bqvEcOJnHKfzvNrit9PqOLHHDlr8VPC0enomWsYttRgjfDeedfwz5M6T3ta6fUTw5K/ssn8mektM6idNnpPFf3bR5+rcRdmZmM5ztr3xv5Gqwxq9J7Zg52x8ssePzbKzHa3Z/dzP8AndNX3Z/7lPL5wy7jL2H2hW2S0XraPgrz46+Ut+fTzo82HtLszSzbBb3o4/uz4xMJa83nzcZxItEUz30z9p36OLDeNX2dOny/tNPzpM9eHyJmcujiMnxYp4LT5R4S9TJXWRqMWv0emx1i9d+GsV96PGNt+rHj1eLVRiyU3x5qbVngja1J/o6RTZz9tfOm3W19J5uC15jLhzW5TblPpaP6w248P+az6OeXHWZx/wAYbsOSdTg1HZuowY5z444scxHDa0x/wlrY9TodP2jprcGfSWimStvGPDn+hffqTVOkxbl96Z+zn4pt2dj1Ecr6fJw39In/AJdM44nXZsVemfF3mP8ALf8Ak2W09adq59L0wdo4ePHPhFusfrv+jRiyzXSaDV33i+lzTgy7/h/8JFVtUmeKL089PPOPrEwlJ4tPpckb/H+U77s88T7P2jWvWL1zVjynf/wubF3OHX4Ok6bNGSv+23/Et1oidTqIjpkw8UesTHJ0+KGJqzvG84n7mr2nJ2lNel64s1fl0l423uzX0vV7VInJFI8cvZ9sf/yq8eOd9/CbRP5wy69nm0TG8ot9nnizG0zHkPE+sgoCAAAAgqCgCAAAACAAgqCgCCERvOyssUb5ax6rEXkmbRdun9vefClXvaPHOLsTT44+LLfi2eBSJvOTbre8Vj831vd/5jSYduWOkTPp/ez24MZzL5Pbq7RTTvKP21ZorPaW08seCnP5RG8/ycEWvGnz55/aZLcNf99uv5Vdd7f5fVZ/+5bhj899v4OfNitadLpYnaZid58t+d7fTo7VPNh5ZTu2cuXJW0YtPiwxvaZmuKPO09bf35Jmphtqa6fi30mk+Of+5fx/o3TknJrL5cMcMVpNcX/t445cX1c0RSmjtqbxPdRPBhr45LeM/Jym3PR6qb+f3nfrL5kB8x98AAAAAAAAAAAAAAAAAAAAAAAAAAAAAAAAAAAAAAAAAAAAAAAAAAAAAAAAAAAAAAAAAAAAAAAAAAAAAAAAAAAAABRFAAEFAABQVFEAAURQAAFRQABAAFAAABQAABFAAABQBAABTr0Z1xWn0+axEzokzEasBvjDXxmZZd3SPuukYVTnOLS5x0+5HhWPnySdvw/puvsu9Pa9znG7atula2+XKWM0rM7RM1nyszNEtRXDWLas1nnCMaN6iooAACgAAIAAMoibTtEbyzx4bX5zyjzdFYpj5R9ZdaMOZzlyrxYjKNWGPDFfevtu2WnrEWiPP0MdbZr0pjx3ve0+7WI3n5vS0nYV837XNWKVn7StZ3tM/wAHoppytTDx4uLTTniS8ueOJ3iJmZ92kRzdul7Nz6nJOPLHBSsb3vblt9HqYK4+zq3zd1Nb35UrbwiPGW3JlwZcVcNbzgy55ieGKz7/APSHSMKI1l5a+1VT8Eee+jTh7O0ulrfWR/mOGvuRNek/JsjWVw6eMWW03vkibXifuRPn/RhMar2yMGm1ERGPle8dKR48vGWudTp9TOTU6jBMY8cxFK25Tlt4bw6ZRlDzzE1515+vc258OS+PBTSZO8wxvMV3iLXt67+DDFq8mTVxp82LFk4Im1r/AAxirHlLTEZMFtRqotHtt9opjyTETSJ67QlbTOC2lwUm9ZpvqLZJ6RHXb0ZvLUURa059/rO9fBceDT5JyaiLbabFaZrWeUZbeHNaarUU02TPn56nNPdYsfhtya6xp8uDT72tfTUiZthiJiYnw2892GTUZsGDFfUxPBxzOGu3OJ35zHyTTN14eKba+Pp957mdorp9Fkw4ZrTVZ7b5cczzmvjXf5/xeXx5NNPDMcWK3WlnTr9N3lrZ9PlnPFedreP1hhpdThzx7Pr+Vbcq5Y61n184cq5ztp0erCi1HFr167+pOmrq8E30sza1I3mk/FEfzY6HWUp/l9ZXvNPflPnT1hhmxansvWRMW4b196l69LR5x5w6dVjxdoYZ1mlrFM0ftsUef4oc7zM3jVueG1qpvTOk9N9XNrdJk0GetqX4sc+9iy1nrHhPzdOa1O08Vcs7V1cRtaekZP8Alp0mp3wzpc0cePrEeMfJrtjnT5Y97ixX+G0f31WIiM40n6LMVTNqvijSeu+jLTZr4uLHMbzHWk+PnBbHSkxlxTvgycp/dnylnaJ1E7xy1OP/AP2R/VrrljFfea8WHLHvV/vxXSM975mszMa73DZit3u2nyTtlpP2V58fSWq1r6XUxesbb9Yn9YZ6zBNK0yVnir4Wjxh0RWO0ez72rH+Z08cVo/HXz+iT05xonFERFX8Zynua9fgrbT4tZg54r+7b923lLbp5jtDsy2lt+30+98M+dfGrX2VnpE5NHqJ+w1EbT+7bws0VjJoddw2921J23S954uU6k0zacPnTnG/pLLQZ5w5L0mN63ja1Z8S+KMGpiKzviyR7s+cSy1VY4o1WONve2vEeE/8ALOle+rfTfe+PFP8AGGoi3u9FmqL8cc9d93okzOXFGT/V087X/er5t2j0uTjy1vWYwXjfeeXymHTGgjRxXV6jJEd5TnWOny9XfrZy30mHJhpHFMcG8zyjbxl1po5y8eJ2jSmjSefRjqMWDBatcO1IvTijz+bzcOS2S9408T3NJ3tb72Sfm7bTj1HZtduHLkxX7vNaJ4eW2+8+jzd8mrzxiwRbHpo6zWNomFqq0sxgU5Txcuc7+TKa91l9s1tomelKV57MZ1FcWmtmpiil8kzFJnnafOd1yaaufN7+alceKOVK8+Gsefklc+HU6mtceniYrG3FeeVax6MTeJs9EWmLznbXpblG7teCuaNPbPEXyZsvu0nrMR4yywaf2XFfJnvXFe8cNZnnt59GvJnzavVRiw3muOZ2rWOUbNervGXPGLFzpT3KR5ud6Yi8cnaKa6p4ZyvnPhyjfe6NPGm0+K2ppOTJNZ4YmfdiZnyXQ002XLOalMlO65zvPFX09WnVVnix6XHzjFHvT+9PV6WXFXQ9m4dNWPtcv2mWf4Q3TGdrZR6uWJVaNZvV6b9W3s/smPaqZI1GLPXi4rzWefn0aM9c+o7RvF6WpbJfaJvG397Mq39l7NnPSd82pnu8fpWOs/ybdFqs9K5dTqc02waavu1tz3vPR0yjKHkmcS81znyjfjk5O0cmP222GvvUwRwzafT/AJbc2bU6XS4sNcnBa1d7xbptPhtJgyaXV6nFjx6acWfLbitaLbx584k1Olydo9o5dRp8tMtY+GJnhn8pS8t3piYpri0RF892zzbYy6G2jpjz4u5tfrfHHL3fHb5tWkpkxabV6ymSuWvdzTHwdd59Pk09pYfZYrjyWmYikV4qxymes7SyvmnRdl6bHgjhyZ795vPWIjlBM5rFF6Y4c+KfLr6OPS4Zvl0+Hbna/FMOvJr5y9o91mpGbT1ttWs+EekurRdo5MufNk1EVmmGm03rWItO/Jo0WDT6jUTmxZKzSkxNq25X238ukpEZRES1VXeZnEp0j6y25sFtRnv7Nlie4pyw2nn6MMl503ZN5tWcGXNqNpmsbTtEeXzcuekzqctsdrUm+T3eP3Z2ieTu7XyxhxafSazF3m1eK94n3q2n1JnWWYpzpp19cvXNy5LYdXpMePLWK5YmZ76kcrfOHBlw59HlrbeazHOt6z/CXXq9JtNLaHL3tK0jeI5Wr84YaftGaV7nVYozYp5TWeUx8mK7TOeUvThTMU3ozjo3xq9N2nWMfaERj1Ecq6isbb+loc18Gp7Oz8UbTHnHOLQ35OzMeppObsrL30RzthtyvX+q9nXtN4wa7jjBE7TO3vU+SUxebTr1Z4qaaZmjTnTPLw/HyXDpZ1eK2bTUm2CnPLTxx/J6kafBr9F3WkrOTNjj3cszwzMeVp8fombg0N8eXBkx6esx7uaPerePKauLVY8eX/NaSc1ssc70jlX5128He1oeOapxZiYm0cv3/vxbNNq+PFbsztLLjxU32pesc8dvVhhrGi1OTQ63WW7nJ0twzMb+Er3mk7YpMTgri19Y5b22jL/ymHPp9Rg9i1ulvGfFyrMX5zHlz8WIno3NNrxaY6xll3wyx6HHNr6bHrMfOd68W9eC/h18JSMWryaXJSs3pqdLM2iInf57LGkrqsHeaHUcWfD0peNrWr5fOEvkz46U7V0W9cmOeHUY/D57eUrMxEJeZm18+/r390ssmt9p0+n7VikTn09orn4eU+k/Ken1bp0+OmstlwTx6DtGkxO33LTz5x8ynsttXTPh2xafW14b1+7Fp/hz/i093n0FL4Z3rOC/HSfT++ZFOl2MtKcu7u6f+2dFw5rRoIw6iJvk0OaJrP3orv4fwb9VpYjNrMdJi2n1uPvcdo6cUc2y+LHrMt7YYimbLh4uDwt8v78WOg1EVrpIyRvgyzOOY/BbwatFrOc1znVTr0+vrDXin2jPp7W//XNLbBf/AHxHX9DSzOT2C89cuG+G2/hNejLLp7aaKRHOMeo3pb03X9lNpjlGHWVyx/styn+Ja2azMVR7u9Y+8fI0fxdn2meUWvWfrExDxuGaTwz1rtE/SXtxWccxTb9lrJrEek84/i8rWU4dZqKx/wBy8R9eaz1dcCr3p3zmfu8vNG2a8essW3VRtnt67S1PFVFqpfYom9MADLQACCoAACCgIAKAICKAiKCoKgDZp/2u/lEy1tmLlTJP7uy0as1/C7OzMXe6jBSelr7z/B9La3+Y1eWJ+CnDHz/uHkf+nsW+qpaY5Vrv/P8Ao9Kd7aO0xHvZ8vL+/m9+FFqXxO2VcWLbecsMuOZw6XTxtveeKf5fpv8Ak572rbPqc8/ssdNv/j0iP/lLuzcMazJfb3cGLaP6fyefat50uHHXnkzZZmN+kz03n0huXPCm++ufo58nuaOcVp4bZpi+e34ax8NIY5eO+qw07ve1K7YcPhWPOXTjpXLrYjDjnNjwR9lTxy3/ABT6bs64Zw0z1wWjUa7Nyz5o+DDHjG7nOr0e0iPH8+lo/HV8SA+W/RgAAAAAAAAAAAAAAAAAAAAAAAAAAAAAAAAAAAAAAAAAAAAAAAAAAAAAAAAAAAAAAAAAAAAAAAAAAAAAAAAAAAAACooAAgoAAKCoogAAqKAAAqKAAIAAoigAAoigACCooAMq0tbpCxEzokzEaoNtcMfelsrWtekOkYUzq5zixGjTXHa3ht82yuGI+Kd2czt5seLfptP12dIoppc5rqqZViscoiFm23/hqmee0ztPlaFjfeI2msz5c4Xi6M8PVnxTPTn/ALZKUtltw0iJnynk6K6auOOPPXjiel8c8oZ3mZpHFFc+L8URvNXWMKf5b35uc4kfx3vyc8YtrTXJljFPlb3oZdxSs75e8rv0vSs7S273jH7nHlwR1rMxEwxrvwzbFvfF447ZOcLwUxy3vonHPXe+rCcNYjiy0y2pPS9IS2KsRxfaZMX4uHnDZWtpi2TT0twfep3m7GLcO99N39PxV33hJpjpv7kVT139mu1MdY3x5uOnjFq7TCW0l5xzkwzGSsdYiedW2s8u9wZaWmPix3r/AHuxtMb97jxzjmPi4J5QxNNMxnG/r8m4qqict+jkmJjlMbI7LY5vinLimMtI+KvjVz8EW54//rLhVhzDvTiRLABzdFAAFiJtO0RvLow6S+S0Vis2tP3axvLdNE1aMVV006tFKWvO1Y3dGPDWvO3OXq4ex80Y+PPemDHHXfnP5PSw9naTT5a8M8ea1d6Rkjp6zD1UdntnL52N2+jSPo8TT6LV6rbucM7TPxW5RHq78PZePFxZNZab46cuHbbjs7b2yUiKY+OYvPv5K/HeY8Ijwj+/nptrYyzmyXmK0wxtSL14orb5+Mu8URGrx1Y2JX8OUfVvrbDhitKYZw6jNXhrWkbzHr6NOXhmkUxZ5pp8c/aZomNt/Hbzn82G9qx7VTLasXpvE2njtkn05coaLWnS49PTJg/zV78VK158MeG8dN2pmznTh55a79PN0xqctrZM/B3uDDERipvvMzPSbTPNrpk3y5std82ecc95mpHD3X5+TDLhi+a2l0+WMmqvf7XNE/D6bLlmdRqPZ9rRo8FYrfNvw9Osz/Rm7cU08tx+/K7DHtGiwxGS1tLvMzSm8XtMeqZ73w6Ol9RhiYtk4sdNvfqzpXDr9TGorv7Npq70pSJiZ28JTFntTUe39pY4rG8zi2jnP/EM3b56Z9Od+nj1k1OHgm2DHx5tVk4d8lp96m/hsZZtl12Hs2ZvkitYpbLWdunOfyTHjthx5e0MMXy6m8zETw8q7+JhzRTFm0+qtOPUZYiLWrTnvPhIcss7fO/Xwhbaemr1eKdPkimk08b2tFusR1n5y0+2Yu1NVeuonutpmcd7TyrHhEplnJ2PjiuCa3i8bzea7xffrDGdNi1+mvn0NYpn29/Bv185r/RiZm+WvOHWmmLcU6aRPTxct/a+y9bxfDbrE9a3j+cN2p02LW4LazQV4bV55sEda+sejHSazHbF7F2hE2wb+7f72KfT09GvJj1HZWrrkx33jrTJXpeHDK3d6PV73F0rj5VRv5eDZpNVTNp/YtZzx/6d/HHP9Gma5dBqY3nl4WjpMN2oxY9XX2jSxFck87Y48/RhizVyYZx543rHxedfWGrcp15SkTGcxGU6x3rmxxm3y4doy152rH3o84Y0y04OHJG+HJ8X7lvOE4MmG8Ui3OPexXjpLdTDOrpfJgxWmf8AVpWN+GfxfJrWctSZiIznLe4+TTmx3xTExPv4+dbR96vhLbNI1unvkxxEZK871jz84bNJhyzljR6mvDz2pa07cMz/ACS+l1XZPaETPBFq89uLlaC0xyylma4vwxMcUZx3sezMtMnFodTO2PNyrafuW8JacV8/ZfaO8xtkxW2tHnH9Jh2dq9m1pwazTXp7Pn5xz+CfGG3PpZ7T0FNTGbB7Vhrw3rx87xHSfmzw1W74T22H8X8asp7p3lLh7RwUw54z6f8AY5fep+76M83+bwxP+rSu9f3q+MfR3dn9lavVaOazSs4p5c7bT6TDv0/Y3s2jtxYLTmxzvF558vGIdIovM9JcK+14dFomq9Ub/wBvK0ujz3wxmyU2wZa8Nt+szHSXdkph02gxWpw44rbgtbra3kztm7vDfHmtaInnSlab2m3luwxWnLiy1rp621E03pW3Oa+X1dYiI8XCququbzpdnmm+bs2LYsE3zY7b14vuRPjLDTb5uz8+kyZ+LUVjvPd24ojxiE7MnLSbYtVn4cmorNNpmI4J25bR5ufRTg7I1u+otOTLbesxWOjMzzIpyqojOYzi3P8ATLRZtPp8uTQYsfFGWNrWnnPFHRx67Lm2jS1m2S0c7zEdfKIh1Tkwdm5658OKs5LW9ybb9J6z6dWNtTeNPbU23iaTNeGI5TPhLMxlNN/9O9GVcVxF79ecue+ly4tJXDXhrx+9kva0RHyO7w6TT2xZc22TLzmaRv7vk59NXvcts+eZmmP3rTPjPhBjw59frI9y0ze3OYjpDleNYh6eGYvFVWUZz47+zopbT6XT9/jx3m1961455zHjPJu7P48mPLqJxYsWHFG29a/Fbwhtydj6vPm4rYeHHSOGlZtEREO3V6HUxp8Gk0uKL0pHFkmLRHvOtNMxPdDyYmPhzFom8zrN9IauzM+TNl7nJGPJirE2vN6RO0R6sMmr0mvzTXU4Lxe07TbFfw8I5l8ObQ6G3FW/eai3DFKRvtWPP5ufs77DNlyxTlhrvM2jf3p6NzPJyiimeLEp8rb6unVxj1NK4sOorinFHd0peNoiPGZsmfs+9OzsWkxWjLMWnLm7ud9/L9HBpMOXWa6JvyiZ396do9Zljqssd/kv3s75J5TTxqzMxMXmHWMOqKoopq0z893dOmvOm0Gs1lsXd5JiMOObdd56/o5dHW+TJji+9uuS3pEPQ1msvo502gpWMtqVicne+97089p+S4O0KTiyZMmnx48Vt6TGGOGbRska6kVVxTNUU66Z8tI/Lj9o1mTNTFHv49/gvzjeZduunQ37StXUWmsYY2icXOI5eTR2bTSXz5NXXLkjuY4+HJG/6+nJz20OotpsmelseXvb9aWifUvNrxm1MUTXa/DbLpnP6d1Ozv8A82XjQ6jHntmtvE/BMx5bS5dPpdRotNqMmbDelq18Y8+jX2tW2GmDBwzFaUjaduU+rotrdTpOztNSMk2tkmeV/ejby2n1TKJ8CIxJoi034p39I6NOn1WXJOk0eWK5cdrRyvG8xvPm6+1u71HbN6YdROPJFopNcnwzPTlLPQanTZ+1ItOkpjti58UTy/Jq1eirqe1s9tNeMl4vMzEWiJ/KS08mOKIxbzHDaJ8LzPycOprfTam3e470tWdoyUnq2RfBq4iufab+GSsbW+seKYMWsjLOLBaL79cd42j8peji7P0cbRqqZNNqJ5xaI4sf/CxTMzpk64mJRREXnPu/Grmr2JrdJNdVHFNK862pPOPnHg757U0utxxp+0MVu8jlGTHG35z4fT9EnJ2n2fSctb1vgj4bzbirb+jnyavs3tGP85lnS6jxvhieC3zj+/mtooi0PLPFjTxV52506x5NtdLrNDeYwabDOHJ9zNaLcXymfFjFO1dNWc/Z95nFXnbDymafTyab6S2kpyz+1aW3pvH/AAzxaXJE9/2XqK5+HnODJ7uSPpPVZ0zW8TnMxPjE2nx6SZOLtD/M6Oe51lfevhtHK3rWf7/rfa8Gvr/m9LwarH8VsXu2n1iPNjWntGSMuhyW0utrO84Mk8rT+7P8my2fDrLbanTzp9dj6zTlx/KPNI1WYiOWnzj8x82N9PeKx2n2Xmrnmn7WkRtPzmrKmprgtGu01O80eb3dRgnrSfE9nzY5/wAS7JyRe9P22Ovj84Z4sujy276sd3h1Hu5Ij7liIvMwzM3jPONO/wAJ+0pbQUtjy00F+8xTHeVxz1r/AFhlh1dO5w5tRHHpcn2Obfrjt5pOm1GDJ3eG/Dq8Hv4bR0zU8Y/4b8VMOu4s2GIrTWV4c+Gfu3jxj1/v5XPSHOqqLXqm8dee7ZxPWLS574M+kx2xVnfPob99gvH+pinrH9XRqMVNTi1U6b/VpXV4oiOlo6/n/M0mbu4wY9XG9aWnBNvGPJa476HLh58sOace/htbpv6dFiliqub9/ruY+srxe2UzYa77ajDGpw+l45Wr/D85a89YvOqif9XBXJ9P/LpyY6Yb6fNgj3KZ7V4fw8XWqxj73uLcvd49Nk2jw61n9I/NYyc4riM403+I82jNPPUZJ8e5zx899p/g87tOvB2llj1j+/1ejWs5MFY22nJpLU+sf8uLtb3tVXL/ANzFW0fWP+Fd8CbV23y/DxdXG2Sv+2Gh1a2OdJ+blePEi1Uvt4U3ogAc3QAAAFQUBAAEUBBUFAEEFQEFBUbactPf1mIam+kfZ44/FfdqiM2K5yfQ9j07rT5snTak7fy/g7aUjj0eP8NZyT/FqxY+DQ5KR8Vr1x/k35LcObU36d3jikfV9KMofm8Srirmd9Pu5sszOkyXiJ4s+XaPkRp4yau9rRMafTUitpjx5cqR/N2YdHbJbTRMTGPFXitP70+EerZmraMHDFq4+O/Dy5936R5236z8/LdmZzsz7WIyje4h598fdaOK8c4faLfa5I+Ka/hrH9/yYaiMccOPV76bQ4du70ePnkyz52deXhrqcmavDWNNTgxzfpSf6/8AHzcuOmXHjj2W0YrZvey63Ubb7fuxLNcXzdaKue928Z6Q+CAfKfrgAAAAAAAAAAAAAAAAAAAAAAAAAAAAAAAAAAAAAAAAAAAAAAAAAAAAAAAAAAAAAAAAAAAAAAAAAAAAAAAAAAAAABUUAAQBVAABUUAAQVAFAAVAFAEAAFRQAAFGUUtPgsRM6JMxGrEbYxecs61rHSHSMKZ1c5xYjRpilp6Qzri/FP5No6RhUxq5ziTOiRSsdIZQtaXvO1K2tPpG7oxdn6rJ0x7R+9OzrTTM6Q41VxHxS5ktbbry9dnox2XMTw2zU7zl7n/LZj0GnraIjirk/BmnlP1b9jXLn7fDjveP47zH1q349JqM1JtXDOSkePSYe1SlMV9sdfZcv4fu2bcOC+bPFaVnT5/xR8EtR2aOcudXbLReI3vo8nB2TnzxHd3rk360jnaH0PZ/YGlw4+Otpz22+0xXnb8nfp9Hj09/tPstX4ZY+G39/wB+TZnyR3kVzfYaiPhyxO1bf3/fk1Th00zel8vH7diYvu0zlvfVzY9DpOdtFp8fFHx4b04v48mEYdLa820+LDjyx8WHJeI3+kQzy5K5r8ObhpqI+HJFbZK2/LlDC2W9p4b99g1NfhvXFFa2+rpDjHHOs7+8NfcaLLbvMGHQ0zV+LHbFvEtNtFodVPHgpoaZo+LHtNIn5c2++fJktEXy6nT6unTixxEX/lu1Wz31No4dRijWU60yY+CbfSeUpaHWnjjOJ9fxo5cvY2HU1nLo8UVzV+LHjybx84iebhydnZaRObS2yUyU53xzG0/OI8Yerw+1b5sGmxznx871wW2n58E/yO/9z2rT5suKaz9pTJTvMf18aszRTbR6KMfFpyvfx9J18nz18eS2+aKVtNfjrHKY+iRatJjNpbzSfvY7/wB9Hv58dbVrq66fHfHadrRjvvXf0nw39XHn7Nx95GTRWi9bfFps3u3j0ifFirDtnD10dppnKrLek7h5VrRXJGbHHdTPWI6MctOcWmOHi6Wjo32idLlmk0tOK/XHkjaf/LZptNmvktp8eDLnxXjfhiu819YcpovlL0e0in3t2cE14+Uxtkj9Wp7+D/03rssxGWaYsW/LJM7zH0h6dP8A0xpKV4s1r5ctfjrvtE+sRHP9XOcGqpzq/qOBh5Xv4Pj6Ute0VpWZmfJ6el7C1mbab07uv7/L/l9Phw6fTWjHgwRXeOta/wAzJlzVvaa4N6xy3m8c/pvydqOy0x8Wby4n9Trqyw4t4uDSdiaXFO2W/eWrzmscoj5uyt8GDT24cU0xR1tEcPF8tuctN75rZq0thiMce9MUn3Z+dp2iXNGfLOPUavvclZieGszXesR6PRERTo8kxXiTeub77m/Jq61x4+90toyWn7HDW3vbec+TVb2a2fLjwaia6jh3m1o4qY58Y3jbn6sYz58VdPkmcd+KN4nbfJePKZlryzp8eHJj1Wjvim8+7TFbin6+CTMulNFtPp49JbqYNTwYsehz76aPfyZq24rXnxiI8Pk05dXiyb112jjHp6W3pj2mLz84S+lw1y4649VFNRPwYsnu8M+HRuyR2ppsNaWxxrbWnnvHFWs/xYlvK8Z/afG++5hFcWbU21dM8TnrERjw5ZikU8oSMus0eWZ1GO2fNkrMcccoiJ8pjyS8aK+r9jrjyY9Xfla+L3oraevVnTHqcdcen7L1eLNFJmMkWvvMc+fu+ReORNrWn69PGOXq04aae+Ca6LPXT5JttkvMzMzHnErbvsOPNhy4Zvp42mclt/D73ru2Z8en1Gpt2dGmy4Oe/e0rtWdo5ztPgzrTPmz4cWhzYs2irWK34rcXKOu8T+iX6LNXOfHP6Z+kNEYsWqrjzYMtcGPhnbHWJid48PqxrnimnrftHSxNa5J4eLff/bsztTSdp6iuHH3umrp526bRNd+vpLdm77Uaq8a3BSdBXnW8zvwx6THjOxfot7ZVePfHhPOZc+TBl02HJrMOXvK32vWtJnfaekzHlDOe4zYsd8+2DW56b1tafdmfP0Z4q+19oRrtLqvsMcc8VYmLREfdiHLkyaXtfUz3sTpdTHKvFPuWiPCfJmaraLETM+9y1mNY7pj1avac/Z+2i1uHvcPW2O/r41lNXpLYKU1fZ2S18NOe8T72OfVunNnw5vY+18E5cMzvW09a+tZ8WE4NVo8s63s7J7Rp7dbVjeNvK0Oc6bvDvTNpicomf/jV+J3mxmcPa9d54cWujx6Vy/0lpwZ7Yoto9ZSZx7/DbrWfR307Jr2nSdToJrhyxzvgmfH912abDo9ZinT6+lqaqnLvLfFH0apoqmb8/VirtGHTHDrEcudP6ePGjz4Ns2KLW01p27zb4ZehTsqM88dckTqoji7uvKM1fOJ83fitqNHb2fPWt+KPd350zV8t/NhbBTuuPSXv3UW3rO08eC/lPo7U4dMZPPX2quqdbd/Xx39WjBXS4NsWbH/lss+5kmPew3bNZXP2dqaazFMb9LbfDePP5S2Vy4+0a5MOavdavb368M7ZNvvR5SnZ8aiKX0Ovp/lufDe95pw/LdZmNIcZmbzVV5x1ju3n4tfadMWt0cdoaSNuHlkpz3r+jDFljtfQ+zXtT2zBG+K1skx3lfGP7/q7uzey8uhz2tOXvK3jacdMvK0eu/V0V0uLs/NE4MOWletsk1i0RHlv1Ym8sTjUUxwU5zGcT9t6vP7F0+ozabNps+K06bJG8faRvE+kS7tBpMfZ9bUiuqm94+K+OLRv6bco+rLVzN4rm0ubQxHxRfJXa0R6Sx7zFmiI0+TW1jJE27zDPFEee/LkWycq66sS86ROsflux5qWngvk0lpv7lqWjhtv5ermxZqabVTTNjzRnxVmbVwXmazEz12mfk0X1Wnx6yMWnpXUznttkm+9bRaOX0TtXLTsyceXBp7afPfraI4qx9fGSZhacKZq4bfF5b+TfXUTh11dNF8efJe8zMWiZtTymZ89tnNwZtJqJy58eWM039ylNu7iu/P9G/XZr+yU1lsUamL1isVpG01ttvvO3Ofk0xXLr9Bh1NrZL2wb1yae8T9rMdORduiLRxTpOU+O8vu0avsq2j7Qya6b470m3Hi4rePXn8mjX4NPk1FddfNW1YiJvNI5Wl3WwX7S03DqseTQ5aW9ybV9yI8I/Jnk0uozRh0+fRzjwU3x8dLRMWifvbfRmKYtZ3px5pmOOrOMp007uvk4NTfSdo6idpyWiY7zeY228Noa82vw59Tix49P9lesUjnvv9Hfk7Hz6TR4cePLirw3m18trbcUeEN1NFpdFe+ox5sVbXj7KbTvFd+swsXk9tgxGV51tv6vH1Fs2HJGHFWuLhj3pim28+kO22a+h7M97JPf5+e/jWrpth0+qmmoy5q2rgrtlv4X26OTLGl1WsmcmsnjyTw48dMc8o8GtF44xLRMaa5b8WvRzk7u+uyxN+5+CMk9b+DlxUnW6mIyZpmu/FltH6u3UR2fSsdn21OebUtPFalYmJnxTFj7Pw6e+KmeYrlryy3rPKPHlHmzq6RXaJqiJvOmXLebm1fal51E6jT2vSse7irv4R6OrX9o6zT4cGm3rbUWrxZt6Ry36Q19n4ME5raq2bFbT6fnPuzEz5RzabafU6mcmpnU4Ml8ltq1rfnv8mc+rXDhcURMZU9fpHlrLf3kzpq5sukxxTfu96+7N/xSmixaHUa+c00tiphjj2i/FERHmx1XZ2ttp8ePDS2SIjhiOLn6yyjszW6fse2LHp7Tm1F/f2292sdIWqc7WZvRw5V2mZtry+bXkxaDPmy6r/EbTfJaeU4pjaZ8IbNZpcddLhx6e2O0Vjhmlsm1pnxnZq03ZWqjLj48F4pirN53jbefJz6jSajNqIia7TM7bT1mUi8Ro6xwzXERXlHh5aWddsOfRdlWrXTR3uomN6xHFtXz5ebRpoyYtdjrlxREY68dovX+/Rt7Qi1ddjw4c8RXT1iu1Lbc45y24supphnV31FMlr5PdiZ3mIjxWIzZvPBebe9489Po5bdpZ76vu5jjibbRWecR6beTr12p0N+0YxZtPa9sXKZrbhiJ8doZ9k4tTqdf3uXSYbRETfjiu07+HNu03ZeG85s2t02WuSY6Y78Uzv1I4pc8SvBoqzytHKectWg0+ivE5dPqb076/KMlOcbTv4eHq2f/AJO6idRqc/e0vxcXBFLe9v679HqTpNHp9LGDDecXBtXeacU85iee3Vy6rRWmmovg1E1vbLvtvwTO3gcMTMPLHaqpqnhqtE9Y3ycdc/aHZ+KcObBvhiduHNTesz8/FK9oaXLHc5MmfS5rTznDzpH0np9G7HXt/DS2SK2t5RfJF/4l9dqq4be36DBx3+9NeHl5+rV+jpaJm8REz3T9mnvMkW/y2Cmtpj5RakzWZ9Zjxc+XV9m5r93ruzp0uT8dImJj5w2xTT5rRfHkyYb+G1un5OqP8R7vhm1dZij7uStcn/KVRMt3pp8fGYn7x6OLDpL44nJ2dlrqMXjXHbn9aytcOPNeO4zRp9RE/s80cMTPpLZbBoLWicmK+izR0tXeI3dHsmfLTnkprMX4omOKFi+hVi85n57tP0c+ePfinaNMmi1H3c23Fjt9W3JWMsVx6+IxZf8AS1OP3sd/n5N+HHrcWOceOldTh8cGTlMfLdMWLSTacURl082+LT5Y2/8ArP8A5M72mXKa4+XTd487w0Tp8tdTFsV402vr0tE7488f3/flnM6TPF8mq09tPefdz8Ee7v8Ai2/m6Y02SteDHaNXgrziu/DlxesebK1azkpNpnDqNtq5L12rkj8No/v+RlqxOLf9a/m3je3LJyxGfTRj0+ee84Pf0uojnF4/DM/JsyafHmnvtLecddTzrP4MseE/N01w20lZrw8OnvO8R8VcVv5QyppZre98ExSMn7XH4Vv4WgjJicWNY/W/pfxc9KV7QraMsd3kzV7rPTxrkr0tH5fwXHE6jH7PqvdtmpOK8+WSvS38fyh0Tp/auO0R3WaeV4j7t46Wjzj/AIZXxzqcXFtw6jleI/frymP5DnOJGmn2/X4hz1rkjLfHmja2fFE2jflGWnjHz5fk247Rg1OeJ27u00yfSeW/02buCc168p4sdovX1rPWPpz/AESNP32mtjtO16Vvh+dfD+Rdia4nXe4iHPGPu9RWkxyrnvX6Wjih5faVNsektPXuuD8p/wCXvZPtdPjyRHvxOO0/Lf8A8vO7S00zgx/uZLx9JndYl2wMT34vvV83rY+yrPr/ACcT2dbpp9nmdukw87uJ8nnxqfeff7PiRNDnG/uJ8juJcuGXfjhoG/uJ8juJ8pOGTjhoG/2eT2eThk44aEdHs8p7PJwyccNKOj2efI9nnyOGTjhzjf7PPlKdxPlJwyvHDSN3cT5HcW8k4ZOOGgb+4sncWOGV44aUb+4nxhO5nyk4ZOOGkbu5nyO5nyOGTihoeh2fi73W6PHMbxvxT8nL3M+T2ux9NMa219v2Wnnb5zydMKmbvP2rFinDme6Xr4o4qaWs9b3m8/Rt02mnV4789qZMszaf3Y8GzBp7Wz469Ipi6+Uy9LDipgxVx442rWOT11V20fmcXG4fh1Y5a7Y5isT02iInb9fD5uPJEUy8fBEVw02pP8qV/m771i228dObkyYYvEU4d+9txX2nrHrM/wAGKXDDq6vNthnhw4JpXnM5cnHPux8/Of72c1onUWvq6YL63Le3BjtljhxUd+ek2jJfelb5p4K95zjh+X9WjJgnNab9xqdVGKODHW32ePfo6S99FfOd+nrGj85AfIfswAAAAAAAAAAAAAAAAAAAAAAAAAAAAAAAAAAAAAAAAAAAAAAAAAAAAAAAAAAAAAAAAAAAAAAAAAAAAAAAAAAAAABUUAAQBVAG3TZK4tRTJekXrXrW0bxKxF5iJSZtF4aler/iek8dBg//AIULHaWh8ezsU/KkPR7Cj/OHn9tif4T9Hkj2I7Q7Mn4uzqx9G/Hq+xr/ABaKIajs1M6VwxV2munXDn6PAV9NX/A7/wChFfnvH82/Ho+xMnTHT/7Whv8AsauUuU/1CmnWiXyQ+zr2P2Tf4MVJ+V5/qzr2D2bM88E//aWf7Krq5z/VsKNYl8SPuZ7A7MmOWGY+s/1SvYHZ++3BP6f0I7HPVP8Al8HpL4gfd/8A5P8AZ/4f0r/RJ/8AT3Z/4bfSI/of2f8A5J/zGD0l8KQ+6nsHQU6Uy/SawtOyOzt+dp38u8rM/o1HY/8Ay+if8vhcol8Lw28pZRjs/QK9idnT/pXt85llHZHZUTt3GOZ8pvMz/FP7Wnq5z/WsPlTL8/jFPn+TOMO33Zl+iR2T2XWImdHhjfzj+rOOzezaRv7FptvXHCxg0xo4z/WqZ/jL87ikx0pP5LGO8ztFLTPpD9HjR9n1rH+U08f/ALqv9FnFpa7xGnx7+UY68v6fVqKIcp/q8TpQ/PaaLVX+HT5PrXZ0U7J1NvjitPnO77ji0m2/s+PbpX3I3tPpHj8+hOXRRvvpq7RytMYt4ifwxy5z8m4opjWJYn+qYk6UvkMfZFOXeZbW/wBsbOrH2dp8fTFWZ85nf+L6Sc+hpNoyaetOGu996V9zyifX0hLanQ1i3FpduGsWtE4493fpHzdaZiNKXKrt2LVyl4sY9o2rFYjn0mITJFo6cEz4RNoiY+U+b0sva/ZeK96+z8XBWJtNMdZiJn7vzZR2z2ZWLx3UxwbRMRjjnM+HLxa9pPRn2mLrwS8eMGTJtThjL5UvtxfSW6nZurye53e8f9vNMRb6S9j/ABfQzFq0vFqxeMfWOGZnyZTrsN5rSMd7xfJOOtJiN7THWYjwiPNn2lXRme0Y3+NnDp+yaxHBkt30R1wX5THyl3Y8VaYpxYaRkwx8WG3K1Pk1R2hgvGOLRa1Jm3vzz24fCJ6/Vw6jt7SRipFpnvuu81neseEbx1Sb83Phx8WdJne+96E791NaROowR1pMTx0c1qWri3tXJm03hasV4sf583J/jGmy3peJwcf4+Hafru3U1eGclsldPpomeUzERtb9WoieTfsq6NYMkWikV1HHlwT8GTvtpr6bxzhrvhnlTVRM7/s89dRO/wCfSfq21z4KWtSNNpt5jeacG/6LXUYu5iK6LBNJnpOL+q2lqJqjlv5/7afZ8tr+z57ajHnj4L1vHvfOJ5T84JxZtRHBfJeNRTltbDxVt8423rLotq8Na14tPpeGJ2r9nvt8m6NffjmO4xxt97h2if1S1STXXrbe+Th9lvqJ72mGntGL46cF6T8626/SW+mg1Pf01Wn7zFa0bW+096PSd42tDf8A4tfitWlK2tXrWsf8rbte1cc3tWu8RvNYjeY/KWZitmasacohhj7IvTUTlpOGtcnLJTg2i8T13iJ5T8m/H2PhrTJhve2TT25xiye9FPlPWPzap7XmlYveK1rMRvvHTf03SO07d5w2xb8+Ktp22n5c2Zprlif7iebsr2bpox1x3xVy1r072OPb8+bf3da1rXlERyrEz0+TyadqxN5rek3vijna1Ocb/Lov+KUtlvPdxfJS20V3339axunBU5zgY06vTyRw2r71K78pm09fTbxac/FTLjt3uPHjjpvztb935PNt2hp9PHtt8OS15jhm8zvanptPT5dGvH2l2dht7Vnxaql7/DmyxEz9P/Ba2rdPZq9bTP53/pdfhrjtfU5aZMeG3KK1t79p8p9Pq4suLSeyY8ubHqMWPf3cFZje/rP/AJelp8vZd8d9XfvJm3+rqJrNpj0ifD6Gnx9mTivqpw5Yrad++zRX3vlv4fRp6acWaItMTlvfNwXrp4y4dXqM+eMcx9nh7vlHz235MppSmWcuq1lcs5I3xUvimtYn1d2lr2bmw5c8Y83dxPPPliu0/Lf+hpp7P1VMt60z2x0nnnyxXbl4RM/0LwTi25Tlly395cNcPDPfanNgz6j/AE6zbasevNnj0+XFN89ptlz5I92d4mKevV3YM2g11sk1pkmmOd7Z70pFY28Of9DT6jQa/NemPHe8Yuds1sdIrEeX9wcUMzi153jTX8OLHpsmGvfThrl1fF8U125T8uTXj0ePS1vkw4dXTJmjhtasxeaT59Xq6fWaDXam2PDp7WjFHvZeCsUiPmun7S0Wr1k6fT4cl5r1yVrEUiPPfdnijok42LF70z3vOpXUY8XBXUxmyzyi2owzXl4xu1RocVMdqYNPfHbLG05dPaJj16zyh7GDtTR6nWzpdPhvkmOt60jhiPPffomHtTRZ9dOl0+C+W++03rSOHbz336JxR0T22LTf3e+f3o8mlNRjxRg02eM3heup5z+Xkx9npW1sGHBm097f62nj3Z8+s9HsU7V0ebXex4MV8tt9ptSscPrO+/RsxdqaK+s9jw72yRO3u05F+4nHxY/h3/uXjVpl1OHuqTXW4LbRMzbgtE+Mz5mDQaiK93oK2wxEcN8WopMxPr6w92us0eXUXwUy1nLvtatZ2ty+Td3uKZnFvF5jlNfin6/8k1dzE9qrpy4bc9xp9IfOZuz7RXa//wCbr0tw1yV+C+/jy6fVb9m7YJt2vHeRyiup00bztPjPp9H0XeY4mccRE7cpiI5R8/CGuM+HF9li4ImPu12iITXkkdsxOUb8dfWHi4NLXSaG8xEdpaKduGN95r5/Lr/4NNp76eJ1fYl7ZMU/Hp78pj028f76vXtqr1293lM9axvsW1dqxa14iK1jebLaehOPiTe8Xv8AXy6+FnnT2bOasa3RYsmk1ETzxW5RLpy6Gdbirk1NO51NOmSnOY+fLmt9fW047Uxzel55ZMe0x9ebPJqa1ra84oiY5RNKcU7rmzNeLl9OvgwpoeLDOPNebUnnNe7naLedfGJMOgwUicmKtr5Zrta1uOsXj1/8Mpz4sNbZL1jePenf3p/Lwa8PaeHNvl0sTmtPK1a251+kzyJun/VmJmL2+jophpOOLUxxS0Ry4b2rvH5MNPqaazHamlz5OOkfFWOKP1jZx21Wkyaq+sxZL5c2GPex4777R8mdNXXX4q5qRqcNa25VrHDxT139UtdZwqrXmJ/H5Z4cuny6j2LNlnPnpaZicmOPrHLlJmppqY7afU2te1+dcU22naPKI5bf34NeHtTTZtVaK4bY9RMcPFakRadvA1Gv0EWw+1zXvKz7u88U1n1mBrgr4rWny+3c6McVmsRasxp6RFsV+KJrPLpty38erTp64s+kivZ+mx91a0zO1px8N/WI3bLa+uTi77T3jHTnx5IiKx6xvO7VftTTaKa0x6e0xm51nFSJjJP0nmTlmlNOJOURnv6s4zUzY9RTTd3n1GON7ResWi3y8ZXRe0U0s48lKYc96zbHjpM8tum8TyhM+u0/Z1K5rYrRF+W8R09J5rXtDT5sMayK37vbebdIjb+/Am17E01TTlTlPr0aezq6/L30a6nBjnpfeMdot6bQziuttq74s22XFMxtS/LavnxRBXtfT6yIjFjzZLV593XaN48/l9W6/a+lpqJ0sd5fNFfhpzmfTfzS9mqva8U+55dO/uatVinS4IwUtfJjtbinv7TaJ58oi3g2Wj2fDOqx4+C94jbFkt7kT6TCU7Q0FMeOLxfFFr7Y6XrtO/pEerOddo/bLYLZLze3uzjttFYjz5r3MT7TSaZ/LRpprrcVL+/WcfK9LRxRkj0nxc02xdq48uGJnHNo4sWK0cMxMR4T4xL0tTq9Jo+6pfetY+Gtdtp9fkaiNHos1dVliZvaeGm8fD8vIutOJabxE56PByZtJos2PTZa2vTaYyRMeM+P0a+7p2Tx6nJS1tTaZphrM84j8T6PJpNFnyzrM2KLTEe9Ntto28Zacl9Bnw+2ZNPv3ccomsbzHnszN5eintVOUWnPXvno+V0+Kt9RWnd87e9k3tPKPmuu1Pfargw4qRHKsViOUR4Q+myZOzdBj3vitxZo3mODeyaeOzsWC2urprxWvSb1jeZ9EmJtaHo/vM+OaJ6R4vC1mS+mw4+z8EVi87XzTEePl9GOjtkplvnpO1cfu05dbeb3Iz9lWvGWcc95nnaImK8Xzbc2p7P02GMMYbzXnEcNNvn12XO7E9p93g4JvO5/D5fT0y67tCuOtrRW1uc7+HjLoz5c+p7QvfDOWMGKNqxXfbaH0FdV2fotLGfa2OM3KscuKY+i6fLo8lYrjxZa1yRxTa+1YiI8Z9EiFq7XN+LgyjKPu8bFi12PTxmt3neW3yTNrc4jwjm29kU1ne5tVqM3uYqTMxM9Zno9HUdqdnzERPeX4/Ckb8o6M9Rq9DpNPTHmi1Iyxx8HLi+q5OVWNiVU8PBnV3PO0VdR3eXJe/eWnalY4I5zLtzzg0tL1rpsFuDakTeu+89ZbsOfRxh7+MVqY8cRfivER16NVtb2fly0xVxZMl7TvExWOstXhymqquuZ4ZtvfmtdVjwdn2zZNLhxxmtwcNZ4eKP73NLfBwUmcNcWO9pt+0meULrtb2dgyUwZqze1I5RWInZt1Gp0Wm09b56bcccMVmI4tmeJjhmYj3Z95oyarTzGLNbLnpXJfeIr4/n4Jrp08ZO8y6zUUiLTvWK8p9Gy2r0E2px0mOHaKzMQubWaHJqLUy0taadZmI2gvN1pi0xamfpo4YnS5r2z+3X2r+LDtHybZ1GPJfj9tpP+6m2zKe0ey493u7TH+2CO0Oyv+1P/ANYOJ2miqf4z9PwnBhy/H7Fk+cc/0ZV0Wnmd64Np88eaY/ST2/sv/tT/APWF9v7M/wC3/wDhguzNOLyid+bophvWNo1Gfb8OThvH9VjQYbzxW0+Li/FjrOKf0aY7S7PjpW0fSGcdqaHwm8fRLuM4ePyiW+NLMbRGTLtHTj2tt8p6s7YL2rw2vTJX8OWvFDRHa2jjpa35L/i+k/HP5F5c5wsf/FtnS47bTbDEWr0tjtzj+DZ3UzTgtbjrPWLxE7uf/F9J+OfyP8W0n45/IzScLHn+MuiMFaTE496THLbflMLOKvHFojhnbbeOkx6tFe09Jadu92+bprmx3rxVtExPjBm51U4lPxQxnHFt+Llb8UePlJNOLaZja8Tvv6s+OvmyiYnptKMXmGqa8V+LpaOX0OH/AFIjaZmJmPXpP6NpyLpxNXdxFto+GYmGjVYeLHaNvv7/AKOwnp0WJWmuYm7xNTpYtp7xt4PJ9ln8H6Pr54dudP0YfZR9yI+i3u92D22aItZ8p7LP4T2X939H1XFh/DE/kceH/t/oeTt/f1dHy3sn7sfkeyfux+T6ecuCOuOf/oxnUaWOsbfOp5L/AHuJOlL5r2Xb7p7L+6+k9p0f7v5Htek84/JfJf7zE/xl837J+6Tpf3X0vtek9PyPa9J5x+R5H93if4y+a9ln8C+yT+F9H7XpPOv5Mq6nTW+GIn5VPI/vMT/GXzXsk/hlh7HP4P0fV95jnpit/wDSVjgnpin612S8dGf7+uOT5T2P9z9D2OYj4f0fW8Nf+1+kLwU/BX8i8dE/5Gej5D2WY60lPZfR9bb2evxTjj5zDGMmknpfDPymC8dFj+oVf4y+StpeXRj7L+7H5PsYjDPSkT/8WXdYvwV/IvHQ/wCSmOT4v2X909m9H2ndY/wV/Je6x/gr+SXjof8AKdz4qul4rRER15PoOztJtOptEfFatPyj/l6vdY/wV/Jjky48M1i0xE2nlELfo443basaOGI3r9mdaxXpHVXPGtwTttafe325eRGtwzt8XON+iWl4pw6+jomN4a71339Y28Wv2zF69NydXh85LSRRVHJLYpjeaRblHDXhiImPrLnyaWLbcWG2SafD3ueYi0+cxDfOr028bzE+TGNTo+UxEdN42hc3Wnjjk/JQHzX9AAAAAAAAAAAAAAAAAAAAAAAAAAAAAAAAAAAAAAAAAAAAAAAAAAAAAAAAAAAAAAAAAAAAAAAAAAAAAAAAAAAAAAAFRQABBUVQAAABQBGVb2r0tLbTU2rPOPrHJoG6cSunSWZopnWHoY9bbwyTHpZ24e0s2OY96237ttnhsq3tT4ZeqjttUZVPPX2Wip9Th7ZyeOX6Xq7Mfa08pvjraPOsvkaamOl429Yb8eSeuO/5S9dGPRW8GJ2Cjo+zp2pp7fFx0+cbt9NTgyfDlpPpvs+Opq8teu1vnDdXW1n4qTHy5ulqJ5vFX/T+j7SOdYY3x8UdbfS8x/B8th11a/s81qT85h2Yu1c8dM9bx67Sns55S8tXYsSnR61sUxHOK2+eO15/OZY3vbHEcc2pX/3Mtccf/h5ubH2tMxtlwUt8pWNdpYnetcmKfOtKfx2W1XOGPZ4kaw6cV7WiZxRa3nOKnBH1vbr9Erl4rTGOeO/jGD3p+uSzm9p0uSd75cV5/wDfyWt/+GI2bN4z12icmopH3Y2w4o/nJbe/0TRbWN+no3UyTa1qY/fv96uK3T/dkn+TCbzesxScdq0626Ycf/8AdP8AfJriYyz3Uf5nbpg08cOKv+63imTJWbxW849Rlp8OGk8OHF858S2e975kU573vWVm+9e8m+TgycuLn3mf0rG+8V/JhamWMnBHBGWlee/Ommp85nbdpya/FTLacWeM+p22yajb3MUeVfBw59fW+n4MVZx6Ott7WtzvnsPRRg1zpG9/Puh131EafFjyRvWm+2mpbhjit45Jjr9ZefqNbx1mtOePFbeZ53nNlnxmZab2z2yRaZn2rNG1Y/7dGG9KxxxzwaflXeZmL3Ymd7+b24eDTTnOc7385Wbzjttktzw/aZOO2/FeekbQsZL0mnHafs6zmyd5O0TaenJhXHMTTDbf/vZtoiNvTmw/a0jfh49Tk9b2isMzM734fV2tG9+P0baZclZx3nJaJx0tmta88t58oXFqMuGuOYzZcUUw2yTbinivMtOWeOmbJt+1yRjre884iPKGGfPWJ1M03yWnhx1vbw267QxNVt76ftqKOLK29zP4d1O09Tpq4+9mJ7vTT3VJ+7NvGfV5E6q15mb2tvPWd2ea0zOotMzM7VrvLjebGxZibQ9GBgUREzbPc/d1xk4ul5/M8J2crKt7V6S5xjdXWcLo7a6nU05Uz5Kxt0i0t2PtPVVvFpvxzEbe9HKfns4K5o+9H5NkWi3SXanEmdJcKsGP5UvUw9tZMc13wY61+9WvL6t+LtjS3rWuXHkvzmYtasW4ZeJwxy5b7G0+cR/Nv2tcONXZcKrk+kp2jizVrF9Vjx3i2+1Y24o+sN+LNGWO90uPFETbbJxREcnyccMREbTO0+PgyibxaJ4uG0eU9Wox55w41dhp5S+qm+OkxE8WbHmty5RMV2WcfF9jqrY95txUrSIjf9HzODW6nDG2DLeKT1jfpLox9qZ68Fcvd5rU51m8T/GG4x6Zc6uxVxpP5e5vmz4u8rM6fu52tPDvMxHrPUi82vTLo8WOaXyb5JmOf/Dy69tWvkx5suO1JpytFZ3iY+Tpp2tpLXjFSk00+SJi3u84nzbjEonm41dnxKf47+/c6Kd3pMsUxRaZzVmO+tz28uUdfm0zptr2ieDU6v4scZJmaR6x5+ezbg1Wmins2DUVtliJml7bRtM+Ebts0juK6jPTjz46/DxeG/KZW0SxxVUzn/vp5PFjbvpzauL6rPE+7j6VifVvrrrZ88Ze07W1UV+HBjnaI9HdqNNh1e2qz3tGGYibViZiZn8Lhtgy6q/Bir3eGv3MMRG0eczMuU0TE5PVGJRiR72X27o/VvF6FclO0bxfXZYjFjj3dJh+7HlP9/0bM0TqrY8Ws4dPpac8elx/FMecvI4rVtXDoaxgiJ64975Lz5zLpjXZNBS2LDjpXLb9pqM073mfSFiYjWHGrAm8cHlHTfnLu1H+Yrjw5KxpNDXljw1+PJ67f1NTEXwRp6VjS9n1npvPFln5eP8AfVpxazFpK97XHkvrLxzz6mNq0jziOrPDl01f83bL7dqrbxTjjhx09ea5dHHhqp5ZRp49f3PyZZ9p0sabBSul0VeeW9553ny9UtaY0fs2kxxptLaN82W2+8x5b8vyK2wXyTqtfqq6zNSd6YMU+5E/P+/qxv3Wpzd92tqsfDTnXTYZifoZdCMsp5eOv38ZyWtttFOm0NK4cWSN8mbJPDvX157/AETBMxpL4ezcW1b8r5rRPOPGd522hjlyV1mSs6/U4tNpo510+O0b7eu39/Jp1Oqxay1ceTJGl0NOVKRWZtaP7/uUmY6NxRM5W755/wC5+jfpskUwZMPZmOJm3u2yzMzM+c7R0g02SuDHfD2dWJt8NstrbcU+kR4Q5NXr+/x102ki+n0NI296dpvPrt1c2u7VmmCND2fWMOCI2vaI97JPjMyxViRTF5daez11za2vX79/c78epw6HFkjS+9NY+0zTM0i0+UeLycGppTNOWa8fB73LesbuXLMxWtJmZnrKW9zDFfG3OXGrGnlye/D7NTTE3m8y7Mfaetvl3nUXikTxcPFPDH0Wnaeqy6jjvNLTvvMzVxfBg9bz+i19zDa3jblDEV1Rz73ScHDztTHR6df/AFBqe9ta0dZ+7O230l04/wD1Patvf0sX9YttP8Hzyp7evqzV2Ds9WtL63F/6g0GfauWMmL/dG8fo6e+0GfFGPDnxUiZ3jh2r/GHxLKl7U+G0w3T2iebz1/0vD1omYfb20WDv8ebu7zk8cmO20fWN+f6tWTDlyXt7ns2fH71MlJ3pf58ny2LWXpPOZj1rOz0MHamqiJ7vU2tE+Fuf8XenEpq0eSvsWNRzu9W1ODJTPTTRj1ExtOWa+5afPk1ajHOX7fX6jue6mKxfHfirM/Lwcle1tRWsd7w2tWfdvttP18JbqdraSMuW86S/FeNr0i29beuzV4Y9li0ze1/D9tt8mOmTuqYc8zqK8NdTG1ptH0hZxY8EY8fasYopvtS8TMTMes7MsfaWkjgppclceC0TE1rjmOGfVcWn0lsVtPk1dc1ck748c332n59YPBiZmn4omPnf9ejTtOXNbQa+lr4r7Wx5KztWnLltPkyx5v8ADsVdLel6Ysm/DnraJ2mfGrfaubLW2DBjx0rSvDOHJEfD6TDV7JXT4YvFcmW+KYtbFM84jfrG8FuZxUzFp+Xf17vRow1w6WNRTUZJz4bb2rGTn3lvl4SyyW1GTJj4a99gtG9cWK0REV8YmNuTbNNTlt3+G05NPn55MWSvvRMeDVa+LRzXLoMXfYrzMZMe88UT0ndMobieKb6zvwtKXtTTaG2XQ4ppWb7WycW/DH4WNMOny4I1+l72lcfO1d/e39J26N1dLOgzZtVx2vpZpzwztPKY6S10vmy6+vsG06eY4L47cuGNue/oLE3iZpnvv9p72vUzHaWmpn00WyajDtjtTi32iZ5THm6NVesaOabxk1+OkUvMTzmPLfza62xaCl69lTXJmtM97eOfBt4RHl6mj0VYiO0L8VN4nJ3O3vTMeXpKRdZmmI7onLr4T3Lo4x5dFh1OtxWm2KeHDE227yefL5Ji7Svq72prbW4L86068N4+nRptOXtjDfPWbceKYmcUT09at9re26bNXF3Ua2kV4pr+HpO3qR1WqmLzxRnf/wCO+rrv2viw2rg1GGtsN6fb259Z8IZaPU4cWrzazUZbY8VI4aRvytHh/fm83Dhr2voa14LRfTWisWj/AFK+Xzc+fPTWU/w+uOMdsc/Z+s9OGU4svFiOzUTemMp/l3R139ns6nRz2h2lS9L2yafLXiretuUV8YatbGLV6qmjwRXuMHW0849Zcdcn+HaWOze/mmoy+9e1Z/ZzPSu7Vp759JGTHqY2rG05d+u3hET6rFUTqtODVGcTp8Pf37+71MNL0/zNeOs33pgrStY2rHW3Po4KYp7R7QriiuScceOTJ8NY6zyXN2xXNS97UnHfLEUx1jnFKeUOyZw9ndlWrjvS2qz8rTWYmax5LlVGTNsTDzmPenKN9zi1uprq9fXFhyUx4cf2dIxxv7seLfliOCuOmLPlzajaKzknhiuOPL582zsjT1phza3Pe1cWONo25b/3yc0xk1E59ZkpN7Wngx1m9p5z4RCxS1em/DTpT6/TzMMe19oTXLlx4cGKOdcflHg158s67tS06fDa02ttW1/CIdfDPZuiyYsfd0yRETktGGbTxT0rv6OfsnDFYza/URmyY9PHux8MWt4R/fmzMS1FUWmuOWUb78ubb2nelc2LS5s/e23i2StJ5R6fky0neZ9Tk1M1rg02KeGu/Lef5uHSWzTny6ikYceSOk2tvPFPTZtyzgxTOGMmXU+z0mbTSJiJyT/IjrKzh2p4I13fu6QwjJ3/AGnwaWJyZL3245j9dnT2hkx/4nWmW3ed1MV4YnrPjuw7Krl0+nz6+9aYaUpNcXFPObS87SZsODJfNw99etZmJt03Zv1dOCKqp4f4xbz8Xbivk1vadcuW0UxxfePLaPL8mrtHWRk1OWuLlj45/wDk4sGe9slsl5+CszHo0ZLzOS3zcqq8snpo7PHHeeUOmMnqy731cXHK8cscb0ezdne+qxl9XFxyd5K8aeyd/fep33q4e8k7yV9onsnf33qvfesvP7yTvJPaHsXo996r37ze8k7yfNfaJ7F6cZ485bMWtyYbcWO9qy8nvJO9k9ozPZ4nKX1el7ax5JimfalvxeE/0ejGbxiXwfey7tB2rfTzGPLM2xfrVunEicpfPx/6ZFuLD+T7KuqmOvOHRjzUyfDPPy8XhVzxesWraJrPOJhe9nrHV1mh8qrs130DG0bxMc43jrHg87S9pRExTUTPlFv6vS5TG8ePjDExMPLXRVRNpcu8zaYx6qszHWJlotbtOszwd1miPwzET+rLP7LfnbFaY6TNY3mJ+nN5d9Pjy5LRpNZS1o+5xcF4bs9WFRE6/WPw7L9parFH2+ky1iPHh3j82v8Axmlp64o9L45/q5Jr21g37jPktt1rfa231aMvbWsxTt2hoMOT1tjZn3dYeyjs1NXwxE+E/afy9WvakT8OLBf/AG32P8TiJ9/RXj/bfd48dpdkZp+20HdzPjS8wyr/AIXeN8Oo1mL5TFoj+ZExOiz2WmPiomN90/Z6lu2NFE7XwZYnynZqt2voPDR7/OYcExpY/wD8xHyy6eYTi7Hr+31ve/8A7LDNf1S/e1HZ8KOVU+HF+Idv+MaWOmgx/wD2/wCGcdtaaOmjpHyiJeX7V2DW3LFrb/OYiP4sv8T7Mr/0+hxRP/vTayRVE8257NROmHVvzerHbuLbatOH5VhnXX6jP+xvl+mHd43+M6uP+mpo8f8A+ypG/wCqTq+3tREcPtVonxpTaPzheK3Jj+zjW0R4z+n0EU7SvXfvpiP3qxVovj1Nbfa9p4qf/vdv0ePfs7tKY4tfqceCJ8c+eOf8WruuysH7ftHJnnxrgx7frPJOMp7PHKqJ8Kb/AF0e7wYf9XtK2T0rz/mV9h4uGtMua3rb+jw6doaGt4pouy7Zrz0nLabTP/xjk7q5O27YuK06fs7BPjaIxx/VYrhK+z106zbxmI+kXl69MVojemhw0j8WS2/8ktq64vdvrtNSfw4qcU/x/k+fvm0PHFc+r1faWWelMcTFd/Lnz/J3Y51eLF3lcGm7Kwz968ceWflHWU4rudXZrfFPzy9bz9Hs48kWpxTbPNfx5Ps4/kyx58V/2Xvx42pHL/7TyePjpfL9pTDkzRHOdTr7cNI9Yp5OyImYrfJmrkjwyZuVI/20jr9WtXlrwaY5734T3PTpkraIms7xPj4T/Vm5sc13iOO1rTG8zPWY9fKG22amPFbJadq1jdJh5Kqc8mV71ptEzznpDwtfrpnVRWvStJmfm6Ka+c+W9px1rFaTO/WdnzOfV5s2XJeJn3uceHOZatwvpdj7LM1TxcnqW1WWa8rc+79I95Lai08Ud7Eb7RHP8/q8i2W02nit1tEx9EjN41iZn4o+q3fQjs8PWnU0mZmckzvPFy8oIzxvvFZmd+LnPjLyu8tXlHuxHT5L3k+s7ecrc9hD1faIjpw8unyX2mIjnZ5F8/BXe07Q4s2rvk5c4r5MV4kUt0djmt44D5r9CAAAAAAAAAAAAAAAAAAAAAAAAAAAAAAAAAAAAAAAAAAAAAAAAAAAAAAAAAAAAAAAAAAAAAAAAAAAAAAAAAAAAAAKigACCoqgAAACgCAAKAAtbTWd4naUC9h0Y9TPS8b+sOit63jes7vPWJmJ3idpeijtNVOubjVgxOj0YHLj1MxyvG/rDppet492d3soxaa9Hmqw6qdWdZmOkzDKMmSOl7fmwjqrpdzmGfe5f+7f/wC0td5vbna82/3b2VUmLkZMZz6jg4ZzZpp+Hj4asO+yTXu+8ma/gx9PrLKaR12/SGNo36zvHlNtv4OUxMc244ei21GSa1x3mJrHTFSP47Mp1eXva2vWl8leVMcR7tGradtq7xHlSv8ANNuGOHeMcT1iOdpYmquOe9/6a4aZ5b3/ALbo1OXfJWs1tlyftMn4Y8iNVypPBTucPwxMfFZotERXa32eP8P3rE8trZK7RHwY09pV13v5rwU9N7+TbbPktW1ZrTvM872nbpCzqsm9ssXmIx17vHtyaZ4omY65snX92Fjhm0R/p4ucz5ynHV13vOTgp6b3lC1ja+Os9MdZtb5pTea4qz1vfilJ4pxzP3808vky3iuS9o6Yq8MfNm+990LvfnLHJO+G9vxZHO3ZfdxYqeO3FP1aXDEnN2w4yUBzbAAbK5bR15tlctLdeXzc46U4lUMVYdMuz5SnDEdd58fk5q2tXpOzbXP+KPydYxKZ1cZw6o0bPenwiPOPCUjhrER1jflM+DKJreOU7m0xM7RH9W7c2L8mO0zMWtymOseZHOIrWPctHWPBeHnEzbnE8pI58ortE8pjxhmy3TpHDym9Y5M6ZL4576t703jaYrO27HbbaPivEcjr78ztWY5xITm6o7Q1kxOGcs2xTEbbxE7eTKe180Yo09cdOHf3tt4m0+rjnnvjjltG9efUvPDWbRtN+kz5Ne0qjSWPY4cznTvq9TD2ti0+G1Yx2jNblNo2nhj0bdJqtDirOovaIyfcrNdufnLw61iI48nTwjzSOLLeZmdo8Z8iO0V82auyYc3tNur6DT4sOryW1Ga9b0rztM24pn0gtgtr9RtNpmvhEztWlflGzwLW4pilI5R0hnOW+Gs48eS0TPxTE/o3/cRzhieyVXvFWfLue3qMdstq6fBM91XlWuOIpEz5z4sdRinTU9lw8FNud5xxva0+XFLyKZ82GvHGXJF5+Ha08mNL3tvkyXtaI856yTjU9COzVRzyj6y9bJWuhwcG2LHmyc7XyW47xHy8HNTU4NPjtlik589uVb5OlfWIcFYnJkmbTy6zJaZyZIisekQ5Ti5ZR4OtPZ4jKqb9W3vb3mc2W0ztyrHq14o3tN7dK85MkxvFK9K/rK5PcpGPx62Ymc8+TtEZWjn6JSO9y7z85JmcuXl4zyX4MP71/wCBj9zHbJ4zyhLcpW/OPCDLPFk2r0jlBmnaYpHSsbfUwxtvknpWP1YTO87ykzlfqsRnboAMtgACxMxO8TtKKI349TMcrxvHm6a2pk2msxO36PPWJmJ3idpdacWY1ca8CJzjJ3TW8+vhMeEsOCkVit7b1392fL6sMep8MkfWG/hpeszHOLdYjxdo4atHnnioykpqdRj4vZ8l8V6zzis/FDfj7Q1WDLOecs7Wja1LRvu57cXSvKfuz5+kseCI3vb3aWj3qz4SucMzRRVrEPSp21eMtcWTTYpxzHuzTeLfPd16btDQ9zOHNaa5JniiOHx+cPC323w03rO3u236pw71rlyb1tTr5ysV1Q5Vdkwqo6eD2/auz9V9rfLFM9Lc7xW0RaPXaG7LqsWfS1/w/W1peltpmK8PF84nq+etktxY7Uj3LfdiPHxZUimDJwbzvfp6eRxsz2OnWJnujKfHk+ky6bFpska2uHbU2pERHOKcXjMxDTk0ufLrcfaFsvssxEbza3FWY8o5+Pk8DD3k95S1rRtO/FE+Lo/xLVZNPOKmWeGk8qzETvBxUzGcMf2uJTOVV+V56T83q5rXp2jOLQYow5d99pptx18ZjwY49PhprcVZrOHPO85MdbRveduW3k0f43qMWlitseO14jgm1d4mIZ/4nocsYtRq9PfipEcMb8XvR479WuKHL2WLTHw5aZZzJTHfU/Z4rXw62u8910iPXfzTDFMUZM8d3PaFa7Vjwm3jMerpvqtLq9ZFo1VsVLVi/FzrNdvU1WPFqdZirF6Z712il4tG/wA526ra7PHN7VRaN5eDg0ulntOLajV8WO2KffvMftPT5lr/AOL57YJm2O9J3rF7fFEeE+rr1+nvkxxp8t4+xnijJj35z61ZZqezYa4oxz7Vlp/1HBE7R9OjPDvq6RjROca8u7f0eTtGDJFrRE57csdPwR5y01xZNbq+Ck8o5TeekesvU9kiNF3vaFq481rcGPJE87R47/1ctseevFjxae1MVPhiI34585lmab+D00YsZzGul+XlvxY9pa6fs9FpL2jT4I2jn8dvGZdMazP2bgxTkms5YjfHS1ekz96XNpceHSZe+1W2XLSOKMcc4ifWf5NeDDqO1ddbJknlM8WS9uVawzeqPGVnDw5i0x7saz1lunV6nUVpp9qTa0zkyWmJ8fGWfaHaUTpMWkw4scYq+9vtztPm5tRmpbJOn0szNLT72Txt/wALGCsZO+1MbU32x4/G/wDw1NUzE2kjDoiYqqi3O29w7MGqv2b2XXP3eKubPMziiac4jzceLJqc+HuoyTvmtvaenKPGWGsyZtfr4rSvFblSlY6RHk3do2x6OsaLBaLXisRlvHn5Qzxa30hacOImMveqz8I/X1a9Zni2njHjme7ieGvrt1n83NX3dLafx22NR7vBj/DXn8zP7uPFTyrvP1ZqnOZl6KKYimIjnJX3dLefxWiGqec7tuX3cOKnpxT9Wlzq5Q6Uc5FBlsAAAAAAAEAAAAd/ZmunT37vJP2Vp/8ArL3Xyb2ux9Xx19nyT71Y92fOPJ6cHE/jL53bez5e0p83pTHJ29n6ucV4w5JngtPLfwn+5ciT0eiYu+VVTFcWl7eorxRPeY+Kkc4mszvDyNVi0ep3taYy123idtrV+Ux/N16DV0vktijP9rE86X8/RhrqaeM2+px3wXmd65sX8/X82Y6PPhROHXw573yeXbSaumPvNDqZ1GGOm1veq1x2p2ji3pea5ojrTNTm6cukmbxlrl4Mk/DqcHu8X+6rnzazWYJ7vX4seWPDJwlur6NExXrEVfSd/Ke5z31nZOomY1vZt9Pefv4J2/Tokdl9n6id9B2rSJ35UzV4Zj6/8N06js3NWI1WC+Os9L0nij+v5td+xMGpibdma7Fk/cvO0uNVOfV3prijnVR9Y+t/VjbsbtTH8Pd5aecXid/zI7G1E89Vj02nj8ds0R/Ddy5dP2loJ4cuLJWJ5ecT9WvHgtqrbV02ab/+3WbfoX3LtHtJi/HFusR+3bbszsvHaIydsU9Ypjm/6wtsfY+Dni02p1m3jbJFaz+XNhX/ANOdoWiLTWmOnXiyW4dvnBOg7O0c/wCb7Sm946001Jn/APFPJmItrDHHRVlGJNXdH/8AP5Se2JwTtpOztLp9ulppxXj6yxrru2u0L/ZZtTef/ajaP0bZ7X0eCvBpOz65P39TPHM/RLdr6/X7YqxkrXpw6f3Yj8v5plM2u1wTHvRhxHfM3/Pqy/w7VY/e7S1uDTxPOYyWi95+kdUtqOxNPG1dPk1t4+9P2dZ+Xj+ax2JjiOPW62mm3+5fnZf8npbcOg0vtmTwyZJ3j6VbtVp+2OKmrnM+Hux8/wBt+n12u1dJx9m6KNLi8ZxVivL1tLVlx9mYL952jqb6vP8Agx3m352Y5MPautjfW3vhxfg4do+lYXT4K0vwdn6S2fLHXJk6Q1ETMMWppvabeE+tUunBqtXOOZ0Gk0/Z2n8cto3t+c9fyY4tREZJtpuPWZ/HUZ+VK/KPFLaWt7xbtHW0y3jlGOnOsem0Nm+mnJGGlMmoyeGKs8NY/wB0+DcU2cp4OUb75nOfnEJbLN7xkz5Z1WSJ5Wvyx0n0r4/31duLFntki1q2tmnpNuXDHnP4Y9I5/Lx14tRa2S2LR1wRkxxvl1Ex7mCPT1Z1zRmpHO86bfeIt8eot52/d9P7i3jSHCu/S295efe9LBj22jiiazzjfrknz28Kx5OXWavT39yePJFZ3nadomfNnkrmjBMTMVyZI+0vaduGv4YcfDpMXxXtlt5V5QtMZ3ebDoiZ4pz8DJqopoNVkxYq45rTau0c955Q+bmLTad52jijb5RD3O09Rv2bw48dccXy1rtXyjnP8nhzG3O0843nb5s1avq9kptTM9ZSOGI5b2nbf85Zc4nyiJ6ehHLpG0RO302WI2+nLdIh6ZkiNvoxveMdeKzK0xWszM8ocGXJOS289PCGcSvghvDw5rnuTJktktvP0hgqPHM3m8vdEREWh54Dk9QAAAAAAAAAAAAAAAAAAAAAAAAAAAAAAAAAAAAAAAAAAAAAAAAAAAAAAAAAAAAAAAAAAAAAAAAAAAAAAAAAAAAAAqKAAIKgooAAAKAIAAoAAACooBEzE7xO0gI349TavK0cUfq6aZaX6Tz8peeO9HaK6dc3KrBpq0emrgpnyU8d48pb6aqs8rxMPVR2iirXJ56sGqHQbbwxretvhtEs3eJiYcpvDC1N/wDneWMVmPhiYj92sR/FtYzSPKP0YmiFipp5VneJrWfOZ4rERNfeiOGZ65MnX6Q2zE7bcW0f7oj+TDhjfeIjfz2m0uU0ukVMIj3Z4JmtZ+LJbx+SbVmsda4a/naWdqzM8VomfXJO0R9E24p4oicto6TMbVhzmne997UTve+5OKY+1tG17csdfKDg+HDv+9klY34pmk95lnrbwq15L1pWcdJ3mfit5szMRF53v6NREzNoYZb95km3h4fJgDzTN5vLvEWiwqKgAAAKKACtlc1o682pViqY0ZmmJ1dNclLek+rPaZ8XGyrktXpLrGL1cqsH/F08MRtERPXl6JtM87eXOGNc8T8UbNscM7TE77OsWq0cpvTqw8OCnLl7s+Zyrve0c55WiGW07bcoj08E2iN56ztziPFJgiWu1LWvM2n3fP0Y2txbUpHL+LbNZvE1nlHWstc2im9aRO/jLnVFnSmbryxRtHO8/olKxEcd+nhHmsUikcWT6V8097LbyiPyhGt3Iict5mZ+c+Re3HMVrHuxyiFtaNuCnT+Kx9lH78/om5NwXmKV7uOv3pWPs8fF963T0hjSsbcd/hj9ZI4suTn/AOF7/kmWnzXFERE5LdI6eslI7y8zaeXWZS9uKYrT4Y5R6sr+5Tu46zzsZeUGfnKTM5cvLx5R6LlmJtFa9K8oK/Z4+L71uUekGKIjfJbpXp6yd3U0z6Lk9ytcceHOfm1kzMzMz1kYqm8t0xaAAUABQBBUUBlS9qTvWdmIsTYmL5S7MWorflf3ZbJpz339J9Yee24s9sfLrXyl2pxuVTzV4Fs6HRtWsVrXnPPhtbwnySIta0ZOn3bxLZjvjyxO0Rv4xJaLzPnt1jwtDra+cON7TaWEcNJ7qkzEXjeLb+LGtJvi+03ju56+cM4pWsRSZ4uczT+m7Hive1clYnirPDarMx1aienzTJktaMeSm+0Ttt6sp4MGXfad7z+ULEVxX4Imd79J8IYUpOTHauSZiaT1/iZ37zK3cYcc8eSl+dZ6z5nFOet6bbTHOseRmvN6UvSZ2rO23qztNMOSL7c7/pHimWnJc9ef4YZOWmmlbb8E+8s24MFMsx7+3DBhxzXNkraPc6Tv+iRa2bvKT161jy2MzLTlr8zTZs1LTfvskVpz5WnnLfTtPW5c3vZItM/ijpDkzTFYjFTpXrPnK/ssO/38n6QzFUxlfRqrDoqzmM50ejl7atltwX0+O2OOUVryif4unN2vpu6ppe7vSla+9EbbbvFwRFYtlt0r09ZY4q97l97p1tLUYleXe41dkwb6ZR6vZmvZWPSRGO1Zy5J4pjJNtojwhn7HlzaKbzq8cUvPDWmKOWzw7zObNy8Z2hc9o44pXpSNoX2kW0yT+2qyiKs9c83saXTW0mPJnwaO+XJWOGt8kxtE+cQ58OktbNfUdoamlIpG8xvxWn0iIcWa96YqYeK3L3rRv4pb3NNEeN53n5E1RfTRYwq5vN85587OnFqaVycGlrNK9b5J+K39HJjjvdRG/jO8sqe5pr28bzwwmH3ceTJ5RtH1Yve0T4u0UxTeY8En7bUf7rfoZp7zUTEeM7Qum5Wtk/BXf6mmjfNFp6VibSkZ275ambTM9INTO+aYjpXlDUszxWmZ8Z3Riqbzd0pi0RAAigAAAAAAAgAAAoMsd7Y8lb0na1Z3hiEExfJ9Tps9dRgrlr4xzjylteH2NqeDNOC0+7fnHze492HVxU3fB7Rheyrmnk57XxV1M01WKYx3iODNTrW3q9ylr30Xv93qa7dfxQ8HUTlx6jHlw2i1tueG3TJEdfrzd2jmKZu/0Fpiv+rp7dY+RLz49HFTE7/Xo1201Zm09n2jJWed9JknafnWfNz2zZ8OO3DT2vTR8eHNG2XH9f5vT1umwai3HjyezamLb0tvy38PzcF82onN3ebHWmtp/p25Vyx51t5ktYVfFHXx39dY55OPh0Goib6fJbFM/FS8dGnJ2Pe/v6a1eLrG08p+U+Dotg0uuvM6a04NVX4sN/dt9PNzTg1OK/2VrYsu/TpFp+STEVRpd7aKpifdqtPSd6d7GvaPa/Ztu7y3yRH4ckbxPymTL2xrNTG3tmXDPlE7R+cNsdtarDvg7Q09c1ek1vG0/mf4hpfi0fZ2n4vLN78uUdIl04M+KrCi/WLWedOn1ufJxRTNmt+KN7fq7sfZmspSLa6+HBj6/b2jf6R1a8nb3ace5XLGGsfcpjisR/Nhh0+XtG/FOO8WtznJO+zNNr5OtU4vDeu1MfP8fd1b9g4J6Zs948fuTP8AFjOs1+f7Ls+tKU/Dp42n6+K37Hw6XH32fPXPXyx25f1c89oTSe70ePg8Iikbb/zl0ziPeycqaaa86L1eOif4detuLXZJpP4etv8AhnTVY9Pbg0GKe8nlvXnafqznJqLxX/Es29PDDtvaf79W2mXS2+yxYcmm3+7initb5zPRYiI0WqqqY9/Pw0/e82u2bU293WarJb/2aW3n6z4E5cuXFMTeMenjrG/u/wD/AFK3xaTTxtbUVy5J6YqRO0f7p8W+2LR4MUantS98tv8AT09fdj8mtIc5qpytHhl6R9/q06el89ZthnudPX49RfrPpDowYbZ8Vqab/KaCn7bU35Wv/f8AfqjPk1eGNVrZjR9nU+DHSPeyekefzY5M2TWzTJnpwYK/sNNX+Ms34tGKpqmen1t+Z+kOysaS2GlNrV0dZ3x4K8pyz+K8+Lp9v4MXtFceOnF7uGu3xbfen92HDiwzlm+TVTwabH+2v04vKlWeXPhnNN7Y+9yco4elKeVIj06y3aNIeWqiKptrvd92yxU1Gqni9+/71mzu9Pg/a37y/wCGnT82Ncuo1Xu1mZjyryhn3WDT889u8v8Agr0+rbNUze0/KHm9rZ+9vhpSkUrXedq+v/h5tYiNo6zyif4ujW5p1OpyX2itedYiOkbcoafPblE78/0c5zl9PCp4aIgiPxc5/gqtOoyd3TaPinoTMUxeW4iaptDn1OXitwRPux+rQDw1VTVN5fQppimLQIqMtPPAc3qAAAAAAAAAAAAAAAAAAAAAAAAAAAAAAAAAAAAAAAAAAAAAAAAAAAAAAAAAAAAAAAAAAAAAAAAAAAAAAAAAAAAAAFRQABABRRFAABRFEAAFQBRFAVAFAAAEAAVsrmyV6Xn682sWKpjSUmInV011do+KsT+jONXXxrMfJxjrHaMSObnODRPJ3e04p8bQk5sU/fn8pcStf3NbPsKXXOXFHSY+cU5/qwvnpPhe/wDunaPyhzjM41UtRhUw2XzXvHDyivlHKGCK5TMznLcREaACKKgIoAACigAKigACDKJmJ3idpYqo3UzzHxRu3VvW/wAM83GrpTi1Rq5VYVM6OyaxMTvvLG0W5zSscXnPi0UzXr47x6t1c1LcrcpdYrpqcZoqp72uaxE75L7z5R1N7ZPdpXavk3zSJ96sVmZ82q0WnlfJER5RDE0Wbprum9cXw+9fz8IStN/fyTtH6yscFfgrN585gmlrTxZbcMerNmr75pM2y2iKxy8I8lvaK14KfWfMm28cGKJiJ/OViK4udud/CPI3c3YrHdV4p+OekeSY68Uze/wx19StZyTN7ztXxktabzFaR7sdIA97Lk5eP6LktHKlfhr+q2mMdZpWfen4p/k1JM2y5rTF8+QqKw2AKAAKAIKigAAoigRMxO8TtLpxan7uTnHm5hqmuadGK6Kaozehw0tWZid6zz5eE+aWtMTMxXx9+PGY83HjyWxzvWfo68eeuTl8NnppxIq7peWvDqoz1hIw+7wXnlE70nfml8szwZK78MTtarZfHM9bbc96zPhKTalLTaI+KdrT5T8lmm3czFV89d780pWuK814vjn3Y26NVYnNS1Lztas77z+rPu73iaWn3qTvFp8lvlivDem00tPvTt1Zy56NRM3y136wwzX3x0tjtM1rO31ZzNMWSMm3PJty8o8THj4LWi201tPuxPi1+9qMcxPx1t+kmevNcpy5flIwxGa3H8FOctdrWzZfWZ2iG7U23xVitt69JnzljT7LF3k/FblX+rFURe3J0pqm3FOuiZ7RG2KvSvX1kn7LBt97J1+THDSL33t8NedkvacuXeI5zO0Qzfmtv49NWeH3K2yz4cq/NMFYtl3t8Nfelc8xHDir0p19ZJ+z08R97Jzn5LpNuiZzF+rHnmzetpXPbiyzFeke7DLD7mO+Xx6V+aaesTk4p+GscUlrxbqt4iZnoaj3eDHH3I5/NcnuYMdPGfelhWJy5o362nmue3HmnbpvtBM6yRGcR5svg0nre36QY/d0+S/4vdhNTO1q446UjZc3u4seP04p+qzlM9zMZxHfLSA5OwAAAAAIAAAAAAAAAKLW00vFqztNZ3iX1GnyxnwUyx96N3yz2Ow8+8XwTPT3q/zdsCq02eLt2HxUcUcnZr60nFWckWiInlkr1pPn8m/DvnpjjLaMOsrG2PNHw5dkzxacU8G2/lbpb0atFOL2a+LLFp0k25T97Bby+T0zq+Zrh+G9xz8XqYsntlJ02tpwainuzvHK8eX1/k4s/wDl5rou0PtNPaf8tqJ+5P4Zls7+dNkri1/vY5j7PPXrsz12+mpNtTSM+hy7RmiOfD5XqlWjhRFqrcp0/Xf3eTz9RpI1d5x7/wCax9K2na8x6T4uWM2qrM47TxWry4bx+kx1h2ajRTwVx48nf44jiwXiffrHpPi5p1N81e71VIzXpyjJ0vHpK83tw5vGWcem+nqte09Nevs/aGCYrHnHFw/KerXfB2PSO9rlzZqeWKOGY+e7ZW+l1cdzqLUtMcotk9zJX69Ja7dkXwXi8564cc9Ml7RMT+TnMTPe6RwUza80z05T91r2v2fi2jF2XW+3S+a/FP8AD+bRn1Wu107YMk3rP+njrtt9IdHs3Ym++XXzky+NcVJrWZ+ctGXtCulng0ennBHnvzn6sxfO85N0U0X/AOnRN++/3z+TVj0d8V+LVZZx2/BXnef6Or27Bjr3d8NcUeN6c8s/Xo11zajXVidTFcWLxyxEV/8AK109aRNuzKe08PXNaNuH5QsZR7q1+9/3Ne7T5/nNl7JW1JyxmjDjnwvP2t2qKai/2Wmw2wYrdbT8V/qwpg45nPqMm8R1yX6fSPFvr2lrdTauj0EXtW3Laec2/pBMxGq2r5Z266R+fNhOXT9mxw6eIy6n8fhX/lvx6LuIjW9r1tly3549N429beUMrZtL2PG1MeHUdo785iN6Yp/nP9/PVx5otOq12Sb57c4rP3fn/RI96bcmL1TF458+c+HSNw6rYZy5Y1fa+WIt/paekfBHhy8G2mbvNRODR0rivtvlz359zTx+rgrGfJnrixVm+rydI8Mcec+rry002DDbRd9tp8Xv6rJX4s1vL5N6RaHCunSJ8o5RHh6dZ7mGbPbV3xY9LW04aTw6ak/enxyWbcWnw4qxbUZJ22nhrXnMx42n5zyaJ1VucY6Rgi9fe2648UeG/nLdp9PfJ9pl2xVnaZm3/wCGv06tUpXHDTbSPrvfN1xqMmSIxaendxPhXrP1MlcOjxWyaja961meCOkfNa54rWMWjpMb8uL71nL2rwaPQXnLPHnybRFesRv5tTNou89FPFXFOl/m8eJnJte/3tp5efVY5xv5+BET1nqyZiH1JSeUbvOzX7zJNvDwdWrycOPhjrb+DiebHqz4Xq7PRaOIQHB6QEQeeA5vUAAAAAAAAAAAAAAAAAAAAAAAAAAAAAAAAAAAAAAAAAAAAAAAAAAAAAAAAAAAAAAAAAAAAAAAAAAAAAAAAAAAAAAKigACACgqKAAgKiqgAAAAqKAACgAACAAKAAACgAACCooAAAAigAAKKAAqKAAIKgCgAoAMq3tX4Z2bq6jwvH1hzjdNdVOjFVFNWrsja8b1vb6SwnFG+/Ba3zmHPE7TyZxlvHjv82/aUzrDn7OqPhltmMm20RXHHzYbY6dZ458o6J3vnjpP0O9mPhrWPlBNVJFNTKYvl5z7tY+kQTetI4cfXxs12va3xTMozNXRqKeqgMOgAIoCgACiKAqAigAAAoAACo34tRavu396rpiaZIm1Ii2/KYeeyra1J3rO0utGLMZS414MVZxlLttGT7vWs7xt0mPJIpSkzFtuG88q+Uscepi8cOT3Z8JhstjrMTvPu258vCfN3i1WcPNN6cqsmm3HljeI+0x26R5M7TXFkieH9pPvT5Le813tWvSdr+cwxri5Wx2+Dfes+LNp5atXi2em/wDaYsc/aY7xM1id2i97Zcm+3pEN2TJNq0yU32pO0wXiuC03jna3wx5MVRExaNHSmZibzrLDLMY6Rir162n1MX2eOcs9elfmwx0nJfnPLrMmW/HbavKteUQxf+Xybt/H5rip3mTn0jnafRMlpy5ZmI68ohnf7LDwffvzt6R5GCIrE5bdK9PWS38fmX/l8jPPDFcUdKxz+az9nptvvZJ3+jXjrOXLET4zvMrmvx5J26Ryj5F9ai2lPmzw+5jvl8o4Y+aaesTl4p6Ujikz+5WmKPCN7fMj3NN65J/SGtJt0TWL9WNYnLmjfraeZntx5rTHTfaGeD3KXy+UbR85aGZ+HxajOrwUEYbUAAAAAAAAAQAAAABFFb9Fm7jV48m/KJ2n5OdVibTdKqYqiYl9ZkiLY7RaJmNvDq0aO1qaq8xEZLTT7Snhmp4Wj1NBm77RY7b84jafnBTeusxcMxS3H9nbwraetZ9Je6c4u+DwzTxUS6b8GHDFbb5tBl51nxxyuHLl0mDuNo1GCIm2PxjJjnrX5x5Le0UrfNTHvhtPDqME/cnzj+/+OS2TJ2fauTB9tpMk8VYnwnxj0klypp44tv8A36xmmXT91hjLor2y6K870mJ97Dby/v8A5abZsesj/Mb11FemfHHOfS0eLpvxYaTrezbzbSZud6/9u3rHl/fq0Wrh18Tkw2jTaynj92/z8pSNHoonnPz5x4/f52ar4aaunDnpF7xyrnw9Z9LVcVdLlx5Jwx78eNLRMTPydWWsZP2lbaTWV+/T4Mn9JYTq9dlx9zlzzescq3rMbx/Ni0TOj00TXEWict6fqzOf/T2pmnezkxYsW2895fnBjy6HRxwWtTVfvWjeK/KHH7J2hGf3cGe9557xWZ3h207Ii/8A1Mziz/8AYr1t9Z6M0xnPDGa1zFv+rXeO7d95tWWs63Lvo4yaqfK8bcP0jk12yU0lt8t+9zR0x1+Cvz81y5cmCZxVtGlrHKaUne0/OXRjnR48UW1uKcdvu2jne308Gtedt71W/DEZXju134Jipm7Uv3vaNox4adcnw8MeUQzyanHSnsfYXKL8r5J/aZPTfycuSmt7SzVxaek3x/drTpEerba2m7Kr3WC1dRrZ5WvHOtPSPOWJtf7pNMZRrPKmNI7534NmPs2/Z2OM2orXvp+GJmPd/rLKaUwZKzltOfW5P2eGnOKb+Mz5uTfJjv3maZy6u3OItO8Y/WfVui1tFXhwxOXXZ+W/WaxLcZRlv9s1RVM5zeZ8v9R6ujNqLaSnsGhmPasvPPmrO8x6b/zcmLHGSNsdZvp8E/8A8W7P2Wum/wAtfJxanLzzTWd+CPKZW+r46xOGnBpsM8GDHH37+c+ZzvJTFo9zPv670jpGbfEYdLM99tnzRMZM23w8X3aerbjjPrMu17b7TPFb7sTPO0/SOUNGHT93Xjz293HPPzyZZ8Po6IyWyzGDT1nu43iIjraI+KZ+ct0uFfWM+/e7eDsrkphju9NHFknlN9v0h5Xbe2CcOO08ee0zaY68Pl9er1azXS17vFtk1E8ptHOIn0eD2jbh7TtSZ48kbRM9eHzK5yZ7JTfEvuf0w8ZBq1F+DFO3WeUEzaLvbEXmzkz37zLM+HSGoHgmbzd9GItFoAEaEBFeeA5vSAAAAAAAAAAAAAAAAAAAAAAAAAAAAAAAAAAAAAAAAAAAAAAAAAAAAAAAAAAAAAAAAAAAAAAAAAAAAAAAAAAAAAAKigACAACoqgAgKCoAAAAKigAoAAAAgCgAAAAoAAAgqKAAAAIoigAAKiqCooAAAAiiKAqKAACiKqAAKIoCoAoACoogAoKgCgAKiiAACoAoAACoNuLNbHy618pahYmYm8JVTFUWl6FMtcsb02i3jEsb47TPxc4nekz/AAcUTMTvE7S6MepiY4c3P1d6cWKsqnlqwZozpbN6UtxR0vO0z4RLCaWy1mlp9+k9Z8m6a0tEzFeKtp57SxtOTlMVn3Z2mseMNzT1Ypq6a7/058l61r3ePp4z5mKsUr3t+kfDHnLK2KmK02yTvH3ax1lrve2W8cvSIjwcZvE56vRFqotGnVIi2XJ52tLPNaOWOnw1/WVtMYKTWJ+0t1ny9GOGkWmbX5Ur1S06c1vHxco0ZR9lg3+/k6ekJgrHFN7fDTmxyWnLk3268ohnlnu6Rhjw52+a3jXlCWm1ucsIi2XL62llqLRbJtX4a8oXF9nitlnrPKv9WOCkWye98NecpbK3OS8XmeUMsvuYqY/H4rNLLJeb3m0+MsWapvLdEWjMARpUAQAAVAFEAUQBRAFEAVAEAAex2Hl5ZcM/7o/n/J36iKxPFbfh+9t1284+Tw+y8nd67Hz5W92fq+gyxM13iN5jpHn6Pbgzeiz5Ha6eDGv1dWSclb2y1iLZ8cbZaeGWnm4cu2mjvsEd7os8+9SfuWd1eK2PDOGdstKceGZ+9XxpPycmW1ccTqcNOLTZvdzYp+5b/wAtvDh623vp8nLS9+z8kavQ34tJn8LRvFbeNbQzyYKa2J1nZU91qcXPJgmf4NWSJ0k97p549HquW1ukW8p9WHBaY9v7MmYy4f2uKesevrDnOj2Wv70Tn1691XoW1PHWb4Z7jPX9phvG9J9Y8mGTPXNHHHZ+GueI5zXfht9G3JrMOpmuojFW2/xUmdprPpPk05a6TDMajT5dVijfnTaN6z8+jU9XSmI0mLTvLL7tcdta2adzbNamLptj92a/LxafYtVkr3s2nuJ597edqu+e1cGT38OjxZNTEc7Z6xPF9I5buX/F9dlyTS0VvFuXdxSNvpDll/KbutEVx/26Ip6s8eow46d3iwzmyeGotHw/KD/CrzM6nV6is4OtslZ4vp8zLp64ccZs+acm/wDoVnnH+7yasE6/X5q4tPSZp4UjlSsf34rNtKoIvaaqJtHOZ+27NuXtW1Keydk45wYZnaZjnfJPrLPDGn01OLUY4jUT9+vTH9PGWy/+HaCs00+SmXW7bTaOeOvnES5MmLJpojUa6kze3PHjnp85Kcs5/UMxFNUWpi1/nV+nTOXRaPH3048uTJfnjpknr+9b+jR7Tl09Zz22jUZvgrEc438WrDjvffW6ms33n3K7fFP9IdFcddNSddr78WfJ+xxR1+c+i8UznpCzTRTlOc+vdHd1lhi02W940eHe2fL72a/4Y9ZdNMmDTT32OsZZx/Z6avhxfi9WicmSuP2PF7mXPzzTHWK+Uyzw4+Kk6mPcwY/stPv9609ZgjpDNd5zq09f96eF2zHTNny8NLTecc8EWnpOSes/Tm665aYa9zo97b+7x+NojlG3zlzWyTPDptJExSn2VNut7z8Vp+TppNNHG2OItmnlXxisRyrH1nm6UvPiZ6/L8uqu2ix7R7+eY/8ArH9XzNbTOotv72S8zbJbye7r7exdnZJmeLU5o4axPPhieX9XhYI4bTSvPb4recpXPvRDp2Sn3aquu/k3OLWX3yRX8LsmdomZ6Q829uK82nxlyx6rRZ7uz03quxAeV7AEQABXngOb0gAAAAAAAAAAAAAAAAAAAAAAAAAAAAAAAAAAAAAAAAAAAAAAAAAAAAAAAAAAAAAAAAAAAAAAAAAAAAAAAAAAAAACooAAgAAqKAACgKgAAACgAKigACAACoAoAAAKAAAIAAoAAAgqKAAAqCigAoigACCoAoAKAAACiKqCpACgAoigAKiiKAAAqAKAIoigAAKigCCooAAAM8eW+Od6z9HXjzVy7Rvw2jw83CN0Yk0udeFTX4u6+Gs14JtPX3eXT0c85K4964qzE+Np6ri1M05X96v6w3z9pXjwxSZ8d45u2VcXp1cPeom1ecOamKbe9aeGnjaTJki0RSkbUjp6sr4s153vMfWeSR3eLnvGS/p0hztbLR1iqJm+q0juad5b45+GP5sMdJy5Nt/WZI482TzmWV7Vx07vHO+/xW80y8lzjxljmvF7bV+GvKGdvssMU+9fnPpCYaREd7f4a9I85a72m95tPWSZtF51kiImeGNIQBh0AAABAAAAAAAAAAAAAAAARa2mtotHWJ3h9TWYyYotHS0bw+VfRdmZO80GPzr7s/R6ezznMPB2+n3Yqelhicmmx1ieC0zM0t+HJHh8pj+bRmvw8Wrpj9y32eqw+U+bo08RfT2pedqzbhmY+7P3bfnyas9rVm2pmm9q/Z6rHH3o/E7vkUz7873+bdXn5I9lmZx/a6LVeE9IvHh6Ty/RzZcd8EU7S0F7TSJ4cm3Wk+UurLEaaZiPtdFqucfu3j+E/wBHPecnZ+Sur09uPS544b8t4n0mPNirR78Ob6c/r3T3/hrnNpcmXfU1nHXL/qUjlPzhsriz6LL9lqtNnwXjpe28Wj1hhXBptVe2DHeuG9udKXn3Zn0lzeyanHadNnwZInflMRvtLMzN3aIpnK9u6fWP068uDs/BMZst65KTziuntzifLdb9o6TLjnHpNH3GT8XebzePns5MWi1WK9q5sXBj+93nux82WbFpNFaLUv7VM86zHKsf1S862svBRM2mZqnlnl+PmaWctL99WlMNaz718kb/AMerbqtfGqpOHR74uL446d5P8vk0Wz5+1ctceWd8vSm0bR8jJWvZl5pO19VHj1rT5ecpxTbuamiJq96Pe6J3MaDa+qpvn60xT4esrgyZbzOr1WS044npP358oXTzGbfUdpTa+GJ+Lf37T5QyjDHaOfemamLBjjpedopX+cpEf4tVTrx+c/aC2pza29tTq7zXBj5RWvKPSsMcdrZL21uau+07Yqec/wBIbIx4dTmilsvBpcMbzwc+Xn85ZW1VM2SctMcYtJgjalfG3lDVs85YvEZUx+o6eMs+59mxxTLPHrdVzmv4K+qTlvnyRbFHFTD9lp6R0m0+LVhpnzb5Ouo1U7Vmfu18ZdN82PS700nOmmjgi/jfJPk1Gm997nVGfWd/6jzbd66LfFgtF81I7qMnhF7fFMfL+rdgiumpGe8b3n9lSfKOUb/Xm0YMXslO8yc8mOOHHWfHJbrP0h0Ydo31ebnWOWKv4uHlEfnLpDzV6dfvvX5uTtm1sePDS0zOfLM22n7sdI/m8/DG0TWvwxy3858W3tHJfJrrzad8k7Vj92Ia8Xw8vhjlH9WNa3sw6eHCiGOptw4Z855OB06y29618o3czzY03qe3AptQAOTsICKAA88BzekAAAAAAAAAAAAAAAAAAAAAAAAAAAAAAAAAAAAAAAAAAAAAAAAAAAAAAAAAAAAAAAAAAAAAAAAAAAAAAAAAAAAAAVFAAEAAFRQAAUBUAAAVAAAURRQBAABUUAAAAFAAAEAAUAAABUUQAAABQFBUAUAAARRFAVAFEUAAFEVUFQBRFAVARRAFVBRRAFVAFEBFVAFEAUAABRRARRAFZUvak71mYliF7JMXdNb4cvLLWK28+m5bFSvPur2j0nk5mVb2r8Npj5S6e0idYc5w5jSWy172jgpSa18ojqRiinvZp4Y8vGWPf5Zj45a5mZneZ3JqjXUimdNGzJknJMctqx0jyYIMTN85biIiLQoiooAAAoAAAAAAACAAAAAAAAD2Ow8n2eXH5TE/n/4eO7+xr8Osmv46zH83XCm1cPP2qniwpfS6SYmmWLxvTb3o/dnr+XJM83xzOWY48mGODNX/ALmOekminbLPLf3enmyzb4/fp71sEc4/7mKf6fyeydX57+e977nm5uDT7453yaLU+/SY+5eOv1c02tocs47RGbRauN48pnzjyl1Zu7wb47TxaPP9rjtH3LRylzW3005Oz9VHeafJ9phtHh61c6nvw846/fv8Y+zntofacFp0kzkti58H34j5eLR7RqMmL3c2SL442mOKecN2fDm09cev015tWs7Tkp4fPyS/aOWuSuonFhy8XjekTz8mJteXrp4pjLP89Gjjy67al73yZo+HeZmbejZg004f+unusM9az8U/KFz67NG2XTRTDS3hirtwywriz9p2m2OtsmeOdvWPPdnK/WW8+HP3afT8Lqc1cVZpoomuC335+K3zZaamKmOL9oxbuvuVj4p/4MOXB2fMxeK6nJPWs/BX+ssPZs2svbPFptjjnfJPSkep4a9Eytaco6853/pb4c+ty8VNu5rHWPhx19WF7d9NdJpInu9+v4p85W2qtWI02h4oxzPPzyT6t2TPi0uGcFcFbai/LJes7bfuwZTfPxX3otFvCPvLVas5LU0Ok96N/etH3p8/lDppgxZMsY8t+DSaeOK23W//AJYTqLaPBOm09K11GaNrzXnMR+Hdh3V8mSmgwzNr2nfLaPP/AIXKN/RibzGto3efw25dXbJF9TWnBFvs9Pjjwjzb8OPHopi2ojeNLXj4PxZJ6bsMeTDpsl9VMReNPHBgp4cXnP8AE0+G2bLWNReYrTfUam8/pDefPe/s5VWt0jeXy+stuGt8k2zZ7fsY4rz+LJfpH6uqlqWm2oyxtptPG1a+cUj/APuly0tbUTWta8NKROe8es8qmvvWNJalZ+ww8OKJ/FPW0/VvSHCaZqqincR+fs8q1r5clsl5+0zTNpnyhup8PlHhHo013nnbrfnPpXybb24cU2nrEOdGWb319IcOa3FltPqwB5Jm83e2ItFhFRFAEURUBwAOb0gAAAAAAAAAAAAAAAAAAAAAAAAAAAAAAAAAAAAAAAAAAAAAAAAAAAAAAAAAAAAAAAAAAAAAAAAAAAAAAAAAAAAACooAAgAAoAKigACAACooAKAAAAIAKCgAAAACgAACAACooAACoAoAgAAAooigKgCiKAAIogCiKAACiCiqgIogCgAKgCiAMhARRAFVBRRAFVAFEBFEUAAFEAUQVFEUAABUAUQEURQFQAVBRRAFEAVAEUQBQABAFEAVv0V+71mK370R+fJzrEzExMdYWJtN2aqeKJh9jpJmNTTbq3596zx443tijjrH4qT8Vfp/RxafJEziyRPKdrPQ1HFE8WON703yUjzjpar6EvzGJFq4eVm7rHPdXnfSZ573Fb/tz0mHJk3x0v2freU4LcWHJ+GJ/k7ctcXF7PeY9l1E8eG+3wTbw/NxWnjiul1nuajT27uLz418In08mJ1h7cKct/P7T4tE31HZep4o2nBqK8460vCUy6HvL4tVgyUrbxxW5b+E7Syrly6bvezdXj7zHE8VK261n0lh7PpdXp5nFqox5Mf3MsbTt83PO2T15a1fOPpLHHn0Wly2pbS3y1nlMZL7fXk06jVZ62itLRjx9axjjaJhvrpdPlwz3utp3lI5RSs2m0Ji1elxY5w4sPFafhy5ec1n0hJvpezccN7xEzPP85/ZKaKM2GdTmtGKsdafev8A7YaravJaYw6as0xb7RjjnxfPzYRXVZtV1tbJHjPSI/o6r3wY8fDpJ31U/Hfw/wDimumX3anKfez9I31W0YNNj2w2iNZb4onpSPSfNhTS5dHjjUZsUzlv+yrPP/5S04sMYa+0aqJ2+5Set5/oyx3yajJbUanJbuqdefXyrBfPON9S0xE2m8c+/uhvxae+lwe26q0VyZN+6i3OfW2y997Lpe401Z9o1XxXn4or5em7nredRmvq9T+zx9I8/KsN+Gk48F+0tXPDbJM1w18ZnxmPSFiYtaN97FUf55z07+UeWss9Pp6Zc3Da22l0cceW/wCK39d2UWvqYppqV4fab95eP3I6btduLJXDoKRwxae8yxH826MndYMlqf8AUaue6pt9zHHVuOe99HOq+vPl+fWfJui8cFcOPnOW05ss/u1+GPl4uTtS0cWHS7+5grx5Z87zzl1UiMeOYrH2movGOkfhx16/nLys9oyZ7xM+7vxXn+EFeiYFN679N/opvM7z1t70+keEGrtth285ZY95nees85/lDRrLb2rXyjdmqbUS9VMXxIc4I8j2AAAIigAOABzekAAAAAAAAAAAAAAAAAAAAAAAAAAAAAAAAAAAAAAAAAAAAAAAAAAAAAAAAAAAAAAAAAAAAAAAAAAAAAAAAAAAAAAVFAAEAAUABUUAAQABQAFAAAAAQBVABAAUAAUAAAQAAVAFAAABRFAAEAAAFBUAURQFQBRAFEUQABRAFEAUAFEFFEBGQgCiAKqAKIAqoCKIAoCiiAKICKIoKIAogCiCooAKIAoAAAAAgACiAKIKKIAogCiAKICKIA+h7Nycehx+cRw/k93LNrY63xxvfbvKR5zEc4+sPmexcm+LJj8p3/P/AMPo8c2tpMc0+OOdf90eH1h76JvREvzvbaOHEnxefmx48v8AlZnbBqt7YL/gtPPb8/4uK1Z1+2HP7usis453+/Mfzd+ox1yxbT1nameJy6a34bxz4Xn5a219L3x711mOIybRym23jHqS64M5Xvb7d/574c86mM2nrh11bRl088MZIj3qx5T5sc+gy1mmr0k1zYr+NJ6T5TDbbNh12THkzTXFmyRw2vPw3n18nLk02fR576bPW1It8NvD0mJcp0h7aMptGU9OXfZb9naulq5seG0UtziZ2jb0Z5tJpseOM+XPW0z8WLFzmJ+blpkvbfT5r2mJnlvO+0tmHSail548fBTpab8o2Zi06Q6zxR8VVvvDPJrp1GCNLFa4cdfh4es/OfFj7N7Htk1tZi3WmLxn1n0Z5/ZtFMTpbe0WnplmOVflHmwwRfX5JnVZJisfFmtz4f6ms2nUi0U3pyp+u/qzrmv2jn4tZO9Kx7145cFVvGn1eemDT5L0wV6RNekeNpatTxTtp9LWZw78pj78+cscsxp8fs2KeLJb9paP/wCWC9tSKb24cukdO905MmDNmpp9HSYwYo53v4+dmPezqtTOovvOHBERSvn5QxnT5MeONLjjbJkmO8tPLbyhvzTiremg0k70x+9mzec+O3p4NZ83P3Y+Hcc58+SxM6bSzO8W1utnb/ZT/n+DPDw4oy6yedcMdzgj8V58WnDtauftDJvXHT7PDHnPp9G3FXjzUrk5YNHScmTyiZ6R81ju3vVzqjW/n+PSPNlN/Z9Nn1Np3tSsYMXrafin6Q8usbRFLf7rz/J1azLNq4q35VxxxzH70uWvT3utvft8kr+J2wqbU3nnv9+Mt+Pfbees85ceotxZrenJ21+Hn18XnWne0z5yxjTamIdsCL1TKAPO9IgIoCAACuEBzegAAAAAAAAAAAAAAAAAAAAAAAAAAAAAAAAAAAAAAAAAAAAAAAAAAAAAAAAAAAAAAAAAAAAAAAAAAAAAAAAAAAAAAVFAAEAAUABQEAAAUAAFAAAEAAFRQAAAFAABUUAAAAQAAVFAAAAAAAVFAAEAFAAAABUAUQBRAFEUFEAUQBdxFEFQBRAFViKMhARRFBRAFEAZCAKIKiqgCiAKIoiiAKIAoACoKiiKAAAACiAKIAogIoAAgCiCiiAKADu7JycGs4fx1mP5vqtHNraaa1+KLe78+sfzfFYMndZ6X/DaJfYaCd+8pE7TMRMfOOj14E3ps+N/U6M+Jp1NYyRbHSeHj+308/htHxQ4M1sl6e3YN6anS3+1rHlPj/J6Opr3lppSeGbz32GfK3S1fz5vPyZLfZdoYY2tO+DU0nz9fm6VaOOBpv5ecZeLRbBTtC2Wun4aZp9+MXhb/a5a6vVUwxEXtFsXuzW3PaPq3ZsHFpq63RTMTgttkpE86evyY+3xGeMmqwUz47xzn4bfnDlM53vZ7qLzFoi8dOcT/pjm7R1GakZqzSt45X4aRG/q1ZMuftCI473y5q8ojrvDbGfRafUT/k7Xxz4TknnDC+tyafLvpK0w1nnWaRzmPmzM/wCUulNNvgot0nJdPhx4OfaEzGKf9OvxT/Rr1V75bVx4a7Yd/s61/n6rXTZtdxZ8UTO3PLMzyr6zLPHrK6Glsel2va8bXvMfw/qmVrTlDWfFeM6unKN/Upnt2bWa4b/5i0bWmOcUjyj1ZYNRfR4/abVp31o+yia9P3mODS4JxTqsuSKxv7uK/W8/0XDpL6vJfU6rJSmGnO1pt+UQvvRpvvZq9nN+Lz7+5hGW+PFOqzWm2bJvwb+HnZnXBbDpaVvvF9RtM+c18I+rLFfDbPbVZq95jxdK9K+kMJ1GXNfJrs075bzw448p9PlCxaJ38ybzpFt5R5at98kZtTTFSP8AL6OvKseNv/LOsTkx4dFTnbUX73NbziOkfJhfHGmwYtBSft808eot+GPCpbLGDRZ9THLLqPssUfhp4z9Wr5Z73o42vbh8vz87z5OPU5K59VeYn7OszMz5pSd/et1t70/KOjCK7RXF4zzvLZT3p4vxc/pHRiLzN5eqYiItDPJPDhtPjs4HZqp2w7ec7OJjHn3rOmBHu3AHB3BAAAUBEHEAw9AAAAAAAAAAAAAAAAAAAAAAAAAAAAAAAAAAAAAAAAAAAAAAAAAAAAAAAAAAAAAAAAAAAAAAAAAAAAAAAAAAAAAACgAACAAKACgCAACooAAKAAAIAAoAAAACgAAqKAAAAIAAKigAAAAAAAAogCiAKIKigAAAAAKgCiAAKAJuAoAAAKIAogIoACoKKIAqoAogIoAKIAoiiKIKKACiAKIogqAKIoACoAAogCiAKIAoigAAAAAAACD6nsXN3lMU787V4d/KY/8AD5Z7PYOba3dzO3DeJj5S79nm1Vurxdvw+LCv0ezq6Tk4seP3clt8uH0vHxV/vzeZqcvOdbgr9lqKxbLj8ItHWHqazi96cfLJX7fF/urPvV/vzl5mXLjwZY1MV4tJmvtkr+Hfr/fo9U9XzOz6b3+4lzZqzpM+PWaS8+zamu2/lPjWWultHqceTDnrbDmrzrakb1n6Ms1cugvl09ZjJgt79N+db1/qxzYtPnrj1OkyxS/S+LJO20+k+LjN9Po99NrRMz4T6X9GFNPpMuCYnWxx051jup5x5GHJoIxzitTJmv8Acm08MRJl7O1eO1M1MccF+cTxRt/FM2hrjrXNk1GKlL/drPFaJ+SWqjk6Xoqy4739fJovq9RNuDfgrHLu6xtH5OiNJix4o1GWY4vDT/e+c+hOpwTjiulxbaiv+red5tHpHg5cOLLmyTebTWI52yWnozz6t2vH+P3381jvdbnmbTEREc58KQyyW7+9NNpo+zrPL1nzlsz6ymTHXTYsMcETztHK2SfOWd8un0ennFjxcWpvHv2m3wR5QWjr4nFVl7ufKPuxrhtq81NFpf2dZ9689N/G0ttr4faJjDO+DTx8fn8vnLRky3wabuonbJmj3q18K+TOuDaMelmdt54sk+c+X0hqL3y30hiY5zOW7z+GeKLRpsmtzbzfUW4Mcfi8/p4NOqv9pHFO9cMcMetvF0Wze1aq2WsRGn0tOHHXwjwh58z3uTbf3K85nz9SZtTZcOm9V5/13fL1WsTw7T8eWefpDdTnO8dJ6fKGmJm29+k3nhr6Q3U9OnSPlCUat16NWrnlWPq5m7VTvkiPKGlxxZvVLvhRaiBAc3QAFARAAFcQDDuAAAAAAAAAAAAAAAAAAAAAAAAAAAAAAAAAAAAAAAAAAAAAAAAAAAAAAAAAAAAAAAAAAAAAAAAAAAAAAAAAAAAAAoAAAgACgAoAgAAqKACgCKAAIKigAAAAAAAKCooAAAAAAgACiKAAAAAAAAAAAAoACKIAogCiAKIAoAAAAAAACoAogCiAKqAiiAKIoACiiAKIoiiKAqAKIqoogCiAKqAiiAKAAAAqCiiAiiAKIoAAAAAAAADq7Pyd3q67ztF/dn6uUidp3jrDVNXDMSzXTxUzS+0z2telclPj5Zqes7bWr/fm823c1vFbz/k9dSYmfwXjx/N1YM1s3ZuPLj2nJWs5KR5zXrH5OXU91HeYIn7DUbajBb8NvGHvqz0fBwqbTNM7/wBa+UuKMs6S9MWspN8MTw2jxj1hhk0E1y3pprd/hvzrNeseW8N1ZpNsvZ+u93ijixZPwT/SXHlx6jBSuWJtW1J2i9Z5THhzcavpD6FF75TaZ+U9JaqVtvbT5KzFt+UTHSWWnwZrWnHOK/DPKd422lty9oau8VzRmni6TO0cphr1Opz6qve3y2tPS8b/AKufux5O8e0nWIi/qzy6XHosm2pyxe0c4rjnff6mfVW180xzWuPblWtI2ifn6sdLp756xTLMYsfhlvyiplvTSTOPT+9fpOWfH5LpF9IZ1qtOdUb3zbMmC/Z3K1YtqJjw5xT/AJYafT5KU9qzY7TEz7kTHxT5/Jhp6TFZz5r2riiem/O8+UMrZs/aGffJkmMdI8+VKkWyy8I+6zFWcX8Z+0b+rfpoxYIvrtXMZbxP2ePwtb19Iau8yTjtmvvObPM1pEeEeMpjx21+pjHjrw4ccb+lax1mW2mWsZr6iPhxR7vp5RDUZ6abvLE5TnnO7QdoTXSabH2fjmJv8eeY/FP3fo4pjaIxV+K3OxxTvOfJztad49Z80rvWk3n478ocpm870dqKeGLc/WWcTvMzXpX3KfNvptEcunSGiPdnaPuR+dpbq7RX0h1oc63JmnfNb5tazO8zPmjyzN5u9lMWiwCIqoCACCqgA4wGHcAAAAAAAAAAAAAAAAAAAAAAAAAAAAAAAAAAAAAAAAAAAAAAAAAAAAAAAAAAAAAAAAAAAAAAAAAAAAAAAAAAAAABQAABBUUAAFAEAAFRQFRQAAABFEUAAAAAAABQVFAAAAAAEAAFQBRAFEAUQBRAFEAUQBQFAAAAAAAAAAAAQVAFEAUQBRAFAAABRAFEAUARRAFEVRRAFVARRFAABRBUUABUAUEBRFEFQBRAFEUABQAAAAAAAAAB7vYWomNJlpXnfT3jNWPOOlo/JuyYqWyRo5mIxZJt7PbwjfnEf35vH7Mzzp9ZW/PaYmJjzjxexnwxlrl01J2tNY1OlmP1h7MKq9D5PaKODGmeue/DX5uO9/adPXDn9zWaW3BFp+9HlLTTU6jQai2OY+yyx72O8b1mJb8m3aWSL0jbUXp79fxzHjHq5/bLZdJ7Pq8cZZwz7szytWPGN0nKzrRF4tMZc46X6eZi1WCmS+PPo8doty5Wmu3lLHHrraXLPdYMNZ6TvXfl9VyU0ObT1yVy5q3rytW1d+XnyP8AIXwb758manhyiLR/Fn3uUw3ajnTPfq5885c14txWyRb4f6bN+GMWmiJ11e8jwwxO0/WfBjj7RvipbFgx1x478rREbzP1Y00WXPW2anPDHxZJ8PmzzvTnLpOlq8o38mXD7dqIiuSKx4RMcqQy1E6em2m02W2Wu/vWrXbjn+jRkzVrScOn3ik/Fbxt/wAM6R7LTimN89492Pwx5/Mvn6ycM5fSPy25884sEaDT1is3n7Wa9bT4Rv6NeaK0pXDv7mPnaY+9Ztw4a6PTe16qftckfY4/Gf3p9HBa9st4jb5QVVWjPWeRh0xM+7pHPrLKN8uTeeVY/SGUW3tOWY5V5VhjblEYqc+fOfOV5cUU+7TnPrLEOss6712jxj3p+c9GzJPDht6Rs10mZ2mes+9P8jUTtiiPOXWJtTMuUxeqIcyA8j1gICoAoAAgIrkAZdgAAAAAAAAAAAAAAAAAAAAAAAAAAAAAAAAAAAAAAAAAAAAAAAAAAAAAAAAAAAAAAAAAAAAAAAAAAAAAAAAAAAAAFAAAEFAAAFAEAAFRQAAUAAAQABRFAAAAAAUAAUQBQAAAABAAAAAAAAAABUAURQAAAAAFAEAAAAAAAABRAFEAUQBQBAAAAFEAURQFQBRFAVBUUAFEAUARRAFEUBUFRQQFEAVUAUQBRAFAEAAFQBRAFEAUQUZ47cOSs+UvZw5LZdJStJmNRpMm9J86T4fns8N2Y8lqWi9J2tNd4+cO2DVbJ5u0YfFbe8rurLScuntq9LvXLp773rHWv70MMmpwanPTNqI7q1497JSOU+e8N2e/d5sXaOk5Y9RWa5K+FbeMT6NFMGLW48lMV64s9fejHbpbz2n+TrMzrDzU2terTrzjrE+EsL6KcOomtM+HJjnxi/WGOXQ202b39RhiOsTF994YW02e2KYnDfix+Ub8kw6fNqIjFXFebfd5foxaNOF6ImbXmrxbstdFSkZMM3z3+9WY4axLmtqc2W0RWZiPClen5Nkaa+C++e9cMx1iec/k2Xz6aKxGipOK+3vXvO8z8vJJvOuRFo097v39lx5qaL38uHFlz7e7W0bxX1n1a8d75bWz5piuOJ3tMRtxT5QYez82THOfJHDhied5mPe9I82GeeOYi01x46/DSOa3q1nQiKJm0Teef4hrzZb6jNNp5zPKI8oSZjFHDWd7z1nySckVjhxxtHjPjKUrHx2+GP1cb3nvd7WjuZV+zpxz8U/D/VYr7tcfjfnb5JWeO83v8Nf72WJmYm33rztDUJLZWd53855fKGGpn3qx5Qzp15dI5R9GjNbfLb8mq5tQxhxetggPO9IAAIAqAiggDlAZdgAAAAAAAAAAAAAAAAAAAAAAAAAAAAAAAAAAAAAAAAAAAAAAAAAAAAAAAAAAAAAAAAAAAAAAAAAAAAAAAAAAAAAFAAAEFEBQAFRRAABUAUAFBAUAAAQABRFAAAAAAUAAFQBQAAAABAAAAAAAAAAAAAAAAABQAAAAAAAAAAAAAAAAAAAAVAFEAURRAAFEAVUAURRFEFFEUBUBFEUFEAUEBRFAABRBUUQBQAAAFQBRAFEAUQAb8dvs6z+C36S0NuHnx0/FDdE5sVxk6MWa2GMmOI4qRO81npMNup09bRj1minjx2+Kn3qT4w5eL3sd56WjhlMc2pN8dbTFo51mHbi5S880TfijXn92ddTn0uaLYct6xPSInwYZc2bii0Zb8M8496W+NdkzafusuPFktTnW1qc9vJMWv2x2xTp9PEW5xbg51lLxPPVYiqM+HNrxYMuutw4qTbL/AB+q2w49NaY1E8eSP9Ovh85a82fPM8N7zER4Ryhh3m8bZK8Xr4szVTfv724pr8u78mbNfLPvTtEdKx0hrbPsf3/0O8rX4KRE+c83Oc5vMukZRaIK0iI4snKPLxlLWnJaIiNo8IYzNr25zMzLOZjHXaPjnrPkeh6k85jFTpHWfNlxRvNo6VjavzYR7lP3rdPSGcbVmK+FI3n5twzLOvux/tjb+rlmd53b7ztinfr0+stCYk6QuFGsgg5OqoCKAgKgAAgOYBl2AAAAAAAAAAAAAAAAAAAAAAAAAAAAAAAAAAAAAAAAAAAAAAAAAAAAAAAAAAAAAAAAAAAAAAAAAAAAAAAAAAAAAAUAAARUAFAAVFAAEAAUABUUEUAABAAAAFEUAAABQAAAAVAFAAAAAAAAAAAAAAAAAAAEAAAFAAAAAAAAAAAAAAAAAAAAAAAAAAFEAUARRFAVAFEAVUFRRFAVARUAVRAFAEUQBRFAAAAUUQBRARRAFEAVcduG8T5SxCJsTF8m+0cslPKeKEvafcyx16T814ueO/nHDLGsbWvinx6O092+jjG/umT3bxkp0nnBkiJ2vXpPX0kp71Zxz16x82NL8MzFo3rPWGJtPm1F48mVbxavDk8Ok+TG2O1efWPOC9OHnHOs9JY1tavwzMJM8qmojnSMox2nnPux5yd9k/Exm026zMp7q+8zm9aRtj6+NkpWPjt8MfqlabxxW5V/iszOS0VrG0eEL3yndC1ne05LeHT5sqxyiJ62nin5MeVrRSJ92vWVj3t5/FO0fJuGJTNO8Vjz5y1MsluK8yxcqpvLrTFoARloAAAABBQAHMAy6gAAAAAAAAAAAAAAAAAAAAAAAAAAAAAAAAAAAAAAAAAAAAAAAAAAAAAAAAAAAAAAAAAAAAAAAAAAAAAAAAAAAAAKAAAIAAoigAAoAgAAqKAACooAAAAIAAAAoAAAACgAAAAACiAAAAAAAAAAAAAAAAAACgAAAIogCiAAAKIAqACiAKIAoigIAAACoAoAAAAAKIAoAiiAKqAKIoiiCiiAKIoAACoAogCgCKIAogCiAKAACKKgA2097FavlzgvMzWuSOscpYY7cN4nw8WcRte2Oek9HSM4cpi0780ydYyV8f0kv79eOvX70FJ647ct/wBJYxM47+sdUmfqsR9Cl5ry6xPWJXhx25xbh9JLVi0cWP6x5NaTMxlLURE5w2d3Hjkqb469N7T69Gta1tbpCRPSCY6ytrWvPNlP2ddo+Kevob1x/Dzt5+SUiOd7dI/WV596cu5dprSKx8Vv4MpmK8Ux0rHDHzYxM+9knr0hjf3a1r9ZW9oS15swAcnUBAVAFAAAAEAHOAy6gAAAAAAAAAAAAAAAAAAAAAAAAAAAAAAAAAAAAAAAAAAAAAAAAAAAAAAAAAAAAAAAAAAAAAAAAAAAAAAAAAAAAAKAAAIAAKigAApACAAAAKAAqAKIoAAAAgAAqAKCKKAAAAAAAAAAAAAAAAAAAAAAAAAAAoAIAAAAAAACgAgAAAKAAgAAAAAAAAqAKIoAAAAAAKIAqoCKAAqAKIAoiiACiiAKIoAACoAogCiAKIAogIogCtlp4qVvHWOUtTPFPOaz0tyap6M1RzXJ70Rkjx6/Nf2tf34/VjSeG00v0nlLG0TS3rHiszzSI5ETMTvHKWXeb/FWLepvXJ1923n4Sk47x4b/ACLTGi5TqvHWOmOPqlslrcpnl5QRjv5fmbUr8U7z5Qe9zPd5Fa7855VjrJMze0VrG0eEJa02nbw8IhZ+zrtHxT19CLeRn5suU3/co12neZmfFlb3aRXxnnLWlU8lpjmqAw2AAAgKgAqAKAiDQAjoAAAAAAAAAAAAAAAAAAAAAAAAAAAAAAAAAAAAAAAAAAAAAAAAAAAAAAAAAAAAAAAAAAAAAAAAAAAAAAAAAAAAAAKigACAAAAKAAqKIAAAAKigAAoAAAAAACoAIKIqgAAAAAAAAAAAAAAAAAAAAAAAAAAAAAoAAAAAIAAACgAAAAAAAAAIAAAAAAAAogCiKAAAAAqAKIoKICKAAAAqAKIAoAgqCiiAKIAoAAAAAAAAgDZf36xeOvSSsxevDadpjpLGluGefSesF68M8ucT0lu/Ni3JLRNZ2mCJmOksovy2tHFB9nPjaEtHJbzzhjMzPWUiJmdojdl9nH4pJvO21YiseiWjnK3nlC8sfrb+CUjre3SP1lK14uvKI6yXtvyjlEdIW/NLckmZmd5QGGwAAQAAFARBRAAAGgBHQAAAAAAAAAAAAAAAAAAAAAAAAAAAAAAAAAAAAAAAAAAAAAAAAAAAAAAAAAAAAAAAAAAAAAAAAAAAAAAAAAAAAAAVFAAEAAAAUABUUQAAAAVFAABQAAAAAABABQABQAAAAAAAAAAAAAEAAAAAAAAABUAUAAAAAAAAAAAAABFQAAABQAQFQBRBRRAFEUAAAAAABUBFEUAAAABUAURQFQEURQAAAAFQBRAFEUAAQAAAAAABBVZVttHDbnX+DAWJskxdnNJ6196PRgsTMdJ2Zd5bx2/JfdlPehjETPSN2XBEc7zt6eKTktPj+TEygtMsrW35RyiPBiCTN2oiwIIAAoCAqAgAAAgoADSAjYAAAAAAAAAAAAAAAAAAAAAAAAAAAAAAAAAAAAAAAAAAAAAAAAAAAAAAAAAAAAAAAAAAAAAAAAAAAAAAAAAAAAAAqKAAIAAAAoACoogAAAAACiKCiKAAAAoAIACoAAKgCgAAAAAAACAKgAAAAAAAAAAAAAAAKgCoAAAAAAAAAAAAAAAAAAAAAAAAAACiiCCgAAAAAogqKAAAAACiAKAAACiAiiKAAAAAAAAAAAAAAAAACAqAAAKAgKiogqAACCqgAAgKgA1AI2AAAAAAAAAAAAAAAAAAAAAAAAAAAAAAAAAAAAAAAAAAAAAAAAAAAAAAAAAAAAAAAAAAAAAAAAAAAAAAAAAAAAAAKigACAAAAKAAqKIAAAAAAKgCgAoigAKAAAAgAAAAqAKAAAAioAAAAAAAAAAAAAAAAAAAAAAAAAAAAAAAAAAAAAAAAAAAAAAAAAAAqAKAAAAAAACoCooggoAACiiAKIoAAAAKICKIAoigAAAgKIAACgAAICoqIKgAAgqoAAAAIAAAADUAjYAAAAAAAAAAAAAAAAAAAAAAAAAAAAAAAAAAAAAAAAAAAAAAAAAAAAAAAAAAAAAAAAAAAAAAAAAAAAAAAAAAAAAAqKAAIAAAAoACoAoAgAAAAACgAAAoigAKAAAAgAAAAqAKAAkqgAAAAAAAAAAAAAAAAAAAAAAAAAAAAAAAAAAAAAAAAAAAAAAAAAAAAAACoAoigAAAAAAKgCiKAAAAIKgoogCgAAAAAAAAAAgKACKggAAAgqoAAAAAAIAAAAACCtYCNAAAAAAAAAAAAAAAAAAAAAAAAAAAAAAAAAAAAAAAAAAAAAAAAAAAAAAAAAAAAAAAAAAAAAAAAAAAAAAAAAAAAAACooAAgAAACgAAAoiiAAAAAAKAAAAACiKoAAAAACAAAAAAqoAgAKAAAAAAAAAAAAAAAAAAAAAAAAACAAAICiKAIAogCiAKIAogCiAKAAAAAAAAAAAAqAKIAoigAAAAAAogCiKAAAAIKgCoAKIAKgAAAAKCAKgAAAAAAAIAAAAAAIKAA1gI0AAAAAAAAAAAAAAAAAAAAAAAAAAAAAAAAAAAAAAAAAAAAAAAAAAAAAAAAAAAAAAAAAAAAAAAAAAAAAAAAAAAAAAKigACAAKgAKgCgAAAoAgAAAAqAKAAAAAAqCigAAAACAAAAoAAIoAgCiAKIAoAAigAAAAAAAAAAAgKICAAAAoAAAAAAAAAAAAAAAAAAqAiiKAAAAAAAAAAAAAqAKIAoAAAAAAAKIAogCiAKIAogCoAAAAAAAAAAgAAKACAIKogAAAADWAjQAAAAAAAAAAAAAAAAAAAAAAAAAAAAAAAAAAAAAAAAAAAAAAAAAAAAAAAAAAAAAAAAAAAAAAAAAAAAAAAAAAAAAAqKAAIAAAACoCiKAAAqAKAIAAAAKgCgAAAAAKgooAAAAAAAgkqkigAAAAAAAAAAAAAAAAAAAAAAAAAAAAAAAAICiAKIAogAAAACiAKIAoAAAAAKICKAKAAACAAAAAAAAKIoAAAAAAAAAAAAAAAAAAAICoAAAoAAAACAAAAAAACAMAEaAAAAAAAAAAAAAAAAAAAAAAAAAAAAAAAAAAAAAAAAAAAAAAAAAAAAAAAAAAAAAAAAAAAAAAAAAAAAAAAAAAAAAAAAUAQAAAAAAABQAAAURRAAAAAABUAUAAAABQVAFAAAAAASVQAAAAAAAAAAAAAAAAAAAAAAAAAQBRAAAAAAAAAAAAAAAAAAAAAAABUAURQAAAAAAUQBRFAAAAEAAAAUQBRAFEUAAAAAAAAAEBUAAAUAAAAEAAAAAAAAABAAAGACNAAAAAAAAAAAAAAAAAAAAAAAAAAAAAAAAAAAAAAAAAAAAAAAAAAAAAAAAAAAAAAAAAAAAAAAAAAAAAAAAAAAAAAAAKAAAIAAAAAAKigAAKiiAAAAAAAAKIqgAgAAAKAAKIAoACSqSAAAAAAAAAAAAAAAAAAACAqAAAAAAAAAAAAAAAAAAAAAAAAAAAAAAAAAAAAqAKIoAAAAAAKIAogCgAAAAAAAAAAAAAAAAAAAAgKIAqAAAAAAAAIAqAAAAAisABQAAAAAAAAAAAAAAAAAAAAAAAAAAAAAAAAAAAAAAAAAAAAAAAAAAAAAAAAAAAAAAAAAAAAAAAAAAAAAAAAAAAAAAAFAAAEAAAAAAFRQAAFQBRFEAAAAAAAAURVAAABAAUAAAACQAAAAAAABAUEBQAAAAQFQAAAAAAAAAAAAAAAAAAAAAAAAAAAAAAAAAAAAAAAAAAAUQBQAAAAAAAAAAAUQBRFAAAAABAUEBRAFABFEBUAAAAQBRAFQAAAAAAEUBAYgCgAAAAAAAAAAAAAAAAAAAAAAAAAAAAAAAAAAAAAAAAAAAAAAAAAAAAAAAAAAAAAAAAAAAAAAAAAAAAAAAAAAAAAAAKAAAIAAAoIACiKAAAAAACgCAAACgAAAgoCgAAAAAAAAioAAAAAAAAAAAAAAAAAAAAAAAAAAAAAAAAAAAAAAAAAAAAAAAAAAAAAAAAAAAAAAAAAACiAKIAoAAAAAAAKIAogCiAKIAqAAAACAogCoAAAAAACKAAAAIAAAMQBQAAAAAAAAAAAAAAAAAAAAAAAAAAAAAAAAAAAAAAAAAAAAAAAAAAAAAAAAAAAAAAAAAAAAAAAAAAAAAAAAAAAAAAAFAAAEAAAAAAAAUQBQAAAUAQAUAEABQAAVAFEAUAAAAABFQAAAAAAAAAAAAAAAAAAAAAAAAAAAAAAAAAAAAAEBRAFEBVEAUQBRAFEBFEAUQBQAAAAAAAABQAAAAAQAAbqafJesWjbaWulZveKx4y9elYikRs6YdHFq4Y2LNFrPHtE1tNZ6wjp1uPhy8XhZzMVRabOtFXFTEqERM9ImSYmOsbI0Bw28p/JAURQBeG3lP5MQV2YdNS+KtprzmPNxvU0v/TV+TphxEzm4doqmmmLPMvG17RHhLrw6al8VbTHOY83Jk/a3+crGTJEbRe0R5RLMTETm3XTVVTFpsl42vaI8JRJ585GXQF4Z8p/JAAACOc7Rzkd2iwRw8do5z0WmnimzGJXFEXloppclo3naFnR5IjlMN2p1U0tNMW28dZaaazLW3v7Wj5bNzFETZyicaYvDTfHbHO1o2YvVtWmfFvHOJeXes0vNZ6wzXRwt4WLx5TqkRMztEby310mSY57Q3aHFE1m89ZNVqrY7zjxbRt1lqKYiL1M1YlU18FDVOjyRHKYlovS1J2tG0unFrbxaIy7WrPjt0dOpxVyYp267bwcNNUXpT2ldFURW8sByekAABAQAUAAAAAAAAAAAAAAAAAAAAAAAAAAAAAAAAAAAAAAAAAAAAAAAAAAAAAAAAAAAAAAAAAAAAAAAAAAAAAAAAAAAAAAABQAABAAAAAAAVAAAFQBQAUQEUBQAAARQBUAAAAAAAAAAVAAAFABAAAAAAAAAAAAAAAAAAAAAAAAAAAEBRAUAAAAAAAAAAAAAAAAAAAAAAAAABRAFEAURUAAAAAAHVocfFkm8+Doz5+7z4678vvLpMfBhjznnLjz48uTNa3BPOeTvnTTFniyxMSb6OvW048MzHWObzXrY974I442nbnEvLyV4Mlqz4SmLHNvs1WtPR06CItN9/R0ZYxYp479Z5R5tHZ3XJ9P5se0J+1r8libUXZqp4saYb8WfDltwxvE+G/i16zBEV46xtMdXJinbLSfWHparnpr/IieOmblVPs644ebzaVm9orHWXo48OPDTinaNusy5dDXfPMz4Q3doXmKVpHSZ3SiIiniaxZmquKIWupwTbh5x6zHI1Gmi9ZtWPe/i896ektN9NG/hyWmrjylnEo9laql5r1NL/01fk87URw57xHm9HS/9NX5JhRaqV7RN6Il5mT9rf5y9DT0idPWfR5+T9rf5y9PS/8ATV+Rh/FK9o+CHmZP2lvnLs0unjgi9o3mefyceT9rf5y9HSZa3wxWJ96sbTCYcRxZrjzVFEWYW1OCl+HnO3jEcmd8OPNj3jaYnpMNGXRzxTNJ6+Ete+p09OGJ2r6Ru1xTHxQ5xRTNuCc2i9Zpeaz1idkW1ptabWneZYuMvZGmavXr7mHl4Q8d69v2E/7XXC5vN2nk8mZ3ndAcXqeh2daZx2rPhLRro21Hzht7O6X+cNev/wCoj/a7T/24eWn/AL8t3Z+SJxzTxjmx1Wmta83p1nrDiraa2iazMTHjDrx660RtlrxesJFUTHDUtWHXTXx0OW1LV+Ksw2e05uHh4+Xyh3Y8uHNyrPPylo1OliKzekbbdYJomIvTJGLFU8NcOIEcnpVAAABABQAAAAAAAAAAAAAAAAAAAAAAAAAAAAAAAAAAAAAAAAAAAAAAAAAAAAAAAAAAAAAAAAAAAAAAAAAAAAAAAAAAAAAAAFAAAEAAAAAAAAAAAAAAUABUAUBUAAAEUAAAAAUABAAAAAAAAAAAAAAAAAAAAAAAAAEBRAFQBQAAAAAAAAAAAAAAAAAAAAAAAAAAAABAAUAAAAAAAAUQBUUBGzDTvMta+vNg6tDwVta171iekbytMXljEq4aZmHblyVwYuKY38NnN7dT/t2a9dlre1a0tExHPlLldK8SYm0PPhYFM03qepp9TTNaaxWYmI35uXX02yRePHk06e/d5q28N+bs1dsWTDMRkpMxzjmt+KnNOD2eJFtGvs7rk+n82PaH7WvyXQXpSb8dorvt1lhrr1vlrNbRMbeEp/8AjaiJ9vdpx/tK/OHpar/prfJ5lJ2vWZ84ejqMuO2ntEZKzO3SJTDn3ZXHieOlzaG22fafGG7tCkzSto8HBW01tFqzzjm9LHqcWam15itvGJWiYmnhlMWmaa4rh5r1NJSaYIievVhGDT1txe7y9WOo1da0mmKd7T4x0haaYozlnErnFtTTDk1FotnvMeb0dL/01fk8l6emy466esWyVidukyzhz70y12in3IiHn5f2t/8AdL09L/01fk8vJMTktMecvR02XHXT1i2SsTt0mVw/ik7REzRDz8n7W/8Aulu9lvEcUW6c+TRkmJyWmPOXbptVSaRTLO0xy3npLNMRM5umJNcUxNLnpqs1Pvbx5Tzd2G8Z8PFNdp6TDC2DBeeL3eflLK2fDgptFomY6Vq6UxNOs5PPiTTX8NObz9RWKZ7VjpDWyyXm95tPWZYuE6vbTExEXHrYLRk09Z9NpeS36bUTgtzjes9Ybw6uGc3LHw5rpy1hry45x5JrP0YPTm2DUV+Ks+k8pSuLT454t6x6zKzh55SxHaLRaYzXRY5x4ve5TPOXFq7xfUWmOkcnRqNZHDNMPOfxOErqi3DC4NFXFNdTuw6bHfDW013mY83HkpNLzWY6S36XVdz7to3pP6Oq3s+ePirP15raKoy1Z4q8OqeLOHmRvvG3Xwez1xe9125tFMWnxTxb1j1mWvVaus0nHi579bLTHBE3ZxJnGmIphwAOD2AAAAIAKAAAAAAAAAAAAAAAAAAAAAAAAAAAAAAAAAAAAAAAAAAAAAAAAAAAAAAAAAAAAAAAAAAAAAAAAAAAAAAAAAAAAAAAAoigACAAAAAAAAAAAAAAKAAAAAAACiCiiAigIoAAAAAoIqAAAAAAAAAAAAAAAAAAAAAAAAAAAAAAAAAAAAAAAAAIqAoAAAAAAAAAAAAAAAAAACAAAAAAAAAAAAAAAAAAAAAAAAAAAAAAAAAAAAAAAIAAACgIqAAAIAKAAAAAAAAAAAAAAAAAAAAAAAAAAAAAAAAAAAAAAAAAAAAAAAAAAAAAAAAAAAAAAAAAAAAAAAAAAAAAAAAAAAAAAAAAAoigACAAAAAAAAAAAACoAogCgAAAAAAAAAAKKIAoggqAAAAAAAAAAAoAAAAAAAAAAAAAAAAAAAAAAAAAAAAAAIqAoAAAAAAICgAAIAgoogCiAKIAoigAAAAAAAAAAAAAIAAAAAAAAAAAAAAAAAAAAIqAKgAAKACAAAACACgAAAAAAAAAAAAAAAAAAAAAAAAAAAAAAAAAAAAAAAAAAAAAAAAAAAAAAAAAAAAAAAAAAAAAAAAAAAAAAAAAAAAAAAAAAAKAIAAAAAAAAAAAAAAAAAAKgCiKAAAAAAAAAAAAoAAAAAAAAAAAAAAAAAAAAAAAAAAAAAAAAAAAACACoAogCiAKIAoggAKAAAACoAqAgKgCiAKgAAoICggoCAAAAoAAAAAAAAAAAAAAAAgCiCioAACAAAAAAAAAAAAD/9k=;" vertex="1" parent="1">
          <mxGeometry x="720" y="225.00000000000003" width="520" height="325" as="geometry" />
        </mxCell>
      </root>
    </mxGraphModel>
  </diagram>
</mxfile>
